%TF.GenerationSoftware,KiCad,Pcbnew,(6.0.9)*%
%TF.CreationDate,2023-07-03T10:30:08+02:00*%
%TF.ProjectId,ModuleBattery18650,4d6f6475-6c65-4426-9174-746572793138,rev?*%
%TF.SameCoordinates,Original*%
%TF.FileFunction,Copper,L1,Top*%
%TF.FilePolarity,Positive*%
%FSLAX46Y46*%
G04 Gerber Fmt 4.6, Leading zero omitted, Abs format (unit mm)*
G04 Created by KiCad (PCBNEW (6.0.9)) date 2023-07-03 10:30:08*
%MOMM*%
%LPD*%
G01*
G04 APERTURE LIST*
G04 Aperture macros list*
%AMRoundRect*
0 Rectangle with rounded corners*
0 $1 Rounding radius*
0 $2 $3 $4 $5 $6 $7 $8 $9 X,Y pos of 4 corners*
0 Add a 4 corners polygon primitive as box body*
4,1,4,$2,$3,$4,$5,$6,$7,$8,$9,$2,$3,0*
0 Add four circle primitives for the rounded corners*
1,1,$1+$1,$2,$3*
1,1,$1+$1,$4,$5*
1,1,$1+$1,$6,$7*
1,1,$1+$1,$8,$9*
0 Add four rect primitives between the rounded corners*
20,1,$1+$1,$2,$3,$4,$5,0*
20,1,$1+$1,$4,$5,$6,$7,0*
20,1,$1+$1,$6,$7,$8,$9,0*
20,1,$1+$1,$8,$9,$2,$3,0*%
%AMFreePoly0*
4,1,22,0.500000,-0.750000,0.000000,-0.750000,0.000000,-0.745033,-0.079941,-0.743568,-0.215256,-0.701293,-0.333266,-0.622738,-0.424486,-0.514219,-0.481581,-0.384460,-0.499164,-0.250000,-0.500000,-0.250000,-0.500000,0.250000,-0.499164,0.250000,-0.499963,0.256109,-0.478152,0.396186,-0.417904,0.524511,-0.324060,0.630769,-0.204165,0.706417,-0.067858,0.745374,0.000000,0.744959,0.000000,0.750000,
0.500000,0.750000,0.500000,-0.750000,0.500000,-0.750000,$1*%
%AMFreePoly1*
4,1,20,0.000000,0.744959,0.073905,0.744508,0.209726,0.703889,0.328688,0.626782,0.421226,0.519385,0.479903,0.390333,0.500000,0.250000,0.500000,-0.250000,0.499851,-0.262216,0.476331,-0.402017,0.414519,-0.529596,0.319384,-0.634700,0.198574,-0.708877,0.061801,-0.746166,0.000000,-0.745033,0.000000,-0.750000,-0.500000,-0.750000,-0.500000,0.750000,0.000000,0.750000,0.000000,0.744959,
0.000000,0.744959,$1*%
G04 Aperture macros list end*
%TA.AperFunction,SMDPad,CuDef*%
%ADD10RoundRect,0.237500X0.237500X-0.250000X0.237500X0.250000X-0.237500X0.250000X-0.237500X-0.250000X0*%
%TD*%
%TA.AperFunction,SMDPad,CuDef*%
%ADD11C,1.000000*%
%TD*%
%TA.AperFunction,SMDPad,CuDef*%
%ADD12R,1.425000X1.750000*%
%TD*%
%TA.AperFunction,SMDPad,CuDef*%
%ADD13RoundRect,0.101250X-0.648750X-0.101250X0.648750X-0.101250X0.648750X0.101250X-0.648750X0.101250X0*%
%TD*%
%TA.AperFunction,SMDPad,CuDef*%
%ADD14R,1.725000X2.235000*%
%TD*%
%TA.AperFunction,SMDPad,CuDef*%
%ADD15RoundRect,0.101250X-0.533750X-0.101250X0.533750X-0.101250X0.533750X0.101250X-0.533750X0.101250X0*%
%TD*%
%TA.AperFunction,SMDPad,CuDef*%
%ADD16RoundRect,0.237500X-0.250000X-0.237500X0.250000X-0.237500X0.250000X0.237500X-0.250000X0.237500X0*%
%TD*%
%TA.AperFunction,SMDPad,CuDef*%
%ADD17RoundRect,0.101250X0.648750X0.101250X-0.648750X0.101250X-0.648750X-0.101250X0.648750X-0.101250X0*%
%TD*%
%TA.AperFunction,SMDPad,CuDef*%
%ADD18RoundRect,0.101250X0.533750X0.101250X-0.533750X0.101250X-0.533750X-0.101250X0.533750X-0.101250X0*%
%TD*%
%TA.AperFunction,SMDPad,CuDef*%
%ADD19RoundRect,0.237500X0.250000X0.237500X-0.250000X0.237500X-0.250000X-0.237500X0.250000X-0.237500X0*%
%TD*%
%TA.AperFunction,SMDPad,CuDef*%
%ADD20FreePoly0,270.000000*%
%TD*%
%TA.AperFunction,SMDPad,CuDef*%
%ADD21FreePoly1,270.000000*%
%TD*%
%TA.AperFunction,SMDPad,CuDef*%
%ADD22RoundRect,0.101250X0.101250X-0.648750X0.101250X0.648750X-0.101250X0.648750X-0.101250X-0.648750X0*%
%TD*%
%TA.AperFunction,SMDPad,CuDef*%
%ADD23RoundRect,0.101250X0.101250X-0.533750X0.101250X0.533750X-0.101250X0.533750X-0.101250X-0.533750X0*%
%TD*%
%TA.AperFunction,SMDPad,CuDef*%
%ADD24R,2.235000X1.725000*%
%TD*%
%TA.AperFunction,SMDPad,CuDef*%
%ADD25RoundRect,0.250000X-0.337500X-0.475000X0.337500X-0.475000X0.337500X0.475000X-0.337500X0.475000X0*%
%TD*%
%TA.AperFunction,SMDPad,CuDef*%
%ADD26R,0.800000X1.900000*%
%TD*%
%TA.AperFunction,ComponentPad*%
%ADD27R,1.700000X1.700000*%
%TD*%
%TA.AperFunction,ComponentPad*%
%ADD28O,1.700000X1.700000*%
%TD*%
%TA.AperFunction,ComponentPad*%
%ADD29C,3.048000*%
%TD*%
%TA.AperFunction,ComponentPad*%
%ADD30O,7.286000X3.048000*%
%TD*%
%TA.AperFunction,ViaPad*%
%ADD31C,1.000000*%
%TD*%
%TA.AperFunction,ViaPad*%
%ADD32C,0.800000*%
%TD*%
%TA.AperFunction,Conductor*%
%ADD33C,1.200000*%
%TD*%
%TA.AperFunction,Conductor*%
%ADD34C,0.500000*%
%TD*%
%TA.AperFunction,Conductor*%
%ADD35C,0.250000*%
%TD*%
G04 APERTURE END LIST*
D10*
%TO.P,RS2,1*%
%TO.N,Net-(R2-Pad1)*%
X156134000Y-114628500D03*
%TO.P,RS2,2*%
%TO.N,Net-(RS2-Pad2)*%
X156134000Y-112803500D03*
%TD*%
D11*
%TO.P,TP6,1,1*%
%TO.N,Net-(R2-Pad2)*%
X150800000Y-123114000D03*
%TD*%
%TO.P,TP2,1,1*%
%TO.N,GND*%
X164660000Y-117780000D03*
%TD*%
D12*
%TO.P,F1,1*%
%TO.N,Net-(BT1-Pad1)*%
X134072500Y-117780000D03*
%TO.P,F1,2*%
%TO.N,Net-(C1-Pad1)*%
X137047500Y-117780000D03*
%TD*%
D13*
%TO.P,T2,1,S*%
%TO.N,Net-(C1-Pad1)*%
X141820000Y-116790000D03*
%TO.P,T2,2,S*%
X141820000Y-117450000D03*
%TO.P,T2,3,S*%
X141820000Y-118110000D03*
%TO.P,T2,4,G*%
%TO.N,Net-(D1-Pad1)*%
X141820000Y-118770000D03*
D14*
%TO.P,T2,5,D*%
%TO.N,Net-(R2-Pad1)*%
X144067500Y-117780000D03*
D15*
X145315000Y-116800000D03*
X145315000Y-118120000D03*
X145315000Y-118780000D03*
X145315000Y-117460000D03*
%TD*%
D11*
%TO.P,TP4,1,1*%
%TO.N,Net-(C1-Pad1)*%
X141910000Y-122225000D03*
%TD*%
D16*
%TO.P,RS1,1*%
%TO.N,Net-(C1-Pad1)*%
X142013500Y-120320000D03*
%TO.P,RS1,2*%
%TO.N,Net-(R2-Pad1)*%
X143838500Y-120320000D03*
%TD*%
D17*
%TO.P,T5,1,S*%
%TO.N,/Vbat*%
X163207500Y-114960000D03*
%TO.P,T5,2,S*%
X163207500Y-114300000D03*
%TO.P,T5,3,S*%
X163207500Y-113640000D03*
%TO.P,T5,4,G*%
%TO.N,GND*%
X163207500Y-112980000D03*
D18*
%TO.P,T5,5,D*%
%TO.N,Net-(RS2-Pad2)*%
X159712500Y-113630000D03*
X159712500Y-112970000D03*
D14*
X160960000Y-113970000D03*
D18*
X159712500Y-114290000D03*
X159712500Y-114950000D03*
%TD*%
D11*
%TO.P,TP1,1,1*%
%TO.N,/Vch*%
X133350000Y-102870000D03*
%TD*%
D19*
%TO.P,R3,1*%
%TO.N,Net-(R2-Pad1)*%
X158062500Y-116510000D03*
%TO.P,R3,2*%
%TO.N,Net-(R3-Pad2)*%
X156237500Y-116510000D03*
%TD*%
D11*
%TO.P,TP7,1,1*%
%TO.N,Net-(R3-Pad2)*%
X156235600Y-118440400D03*
%TD*%
D20*
%TO.P,JP1,1,A*%
%TO.N,/Vch*%
X130810000Y-104140000D03*
D21*
%TO.P,JP1,2,B*%
%TO.N,Net-(D1-Pad1)*%
X130810000Y-105440000D03*
%TD*%
D11*
%TO.P,TP5,1,1*%
%TO.N,Net-(R2-Pad1)*%
X147244000Y-114732000D03*
%TD*%
%TO.P,TP9,1,1*%
%TO.N,/Vbat*%
X164660000Y-111430000D03*
%TD*%
D22*
%TO.P,T1,1,S*%
%TO.N,Net-(C1-Pad1)*%
X132665000Y-111850000D03*
%TO.P,T1,2,S*%
X133325000Y-111850000D03*
%TO.P,T1,3,S*%
X133985000Y-111850000D03*
%TO.P,T1,4,G*%
%TO.N,GND*%
X134645000Y-111850000D03*
D23*
%TO.P,T1,5,D*%
%TO.N,Net-(D1-Pad1)*%
X134655000Y-108355000D03*
D24*
X133655000Y-109602500D03*
D23*
X133335000Y-108355000D03*
X133995000Y-108355000D03*
X132675000Y-108355000D03*
%TD*%
D11*
%TO.P,TP8,1,1*%
%TO.N,Net-(RS2-Pad2)*%
X158420000Y-111430000D03*
%TD*%
D25*
%TO.P,C1,1*%
%TO.N,Net-(C1-Pad1)*%
X137062500Y-115240000D03*
%TO.P,C1,2*%
%TO.N,GND*%
X139137500Y-115240000D03*
%TD*%
D26*
%TO.P,T3,1,G*%
%TO.N,Net-(R2-Pad2)*%
X152390000Y-121820000D03*
%TO.P,T3,2,S*%
%TO.N,GND*%
X154290000Y-121820000D03*
%TO.P,T3,3,D*%
%TO.N,Net-(R3-Pad2)*%
X153340000Y-118820000D03*
%TD*%
%TO.P,U1,1,~{RST}*%
%TO.N,Net-(R2-Pad2)*%
X149210000Y-118820000D03*
%TO.P,U1,2,VDD*%
%TO.N,Net-(R2-Pad1)*%
X147310000Y-118820000D03*
%TO.P,U1,3,VSS*%
%TO.N,GND*%
X148260000Y-121820000D03*
%TD*%
D16*
%TO.P,R2,1*%
%TO.N,Net-(R2-Pad1)*%
X147347500Y-116510000D03*
%TO.P,R2,2*%
%TO.N,Net-(R2-Pad2)*%
X149172500Y-116510000D03*
%TD*%
%TO.P,R1,1*%
%TO.N,Net-(D1-Pad1)*%
X142013500Y-115240000D03*
%TO.P,R1,2*%
%TO.N,GND*%
X143838500Y-115240000D03*
%TD*%
D17*
%TO.P,T4,1,S*%
%TO.N,Net-(R2-Pad1)*%
X153125000Y-114960000D03*
%TO.P,T4,2,S*%
X153125000Y-114300000D03*
%TO.P,T4,3,S*%
X153125000Y-113640000D03*
%TO.P,T4,4,G*%
%TO.N,Net-(R3-Pad2)*%
X153125000Y-112980000D03*
D14*
%TO.P,T4,5,D*%
%TO.N,Net-(RS2-Pad2)*%
X150877500Y-113970000D03*
D18*
X149630000Y-112970000D03*
X149630000Y-114290000D03*
X149630000Y-113630000D03*
X149630000Y-114950000D03*
%TD*%
D11*
%TO.P,TP3,1,1*%
%TO.N,Net-(D1-Pad1)*%
X130048000Y-108204000D03*
%TD*%
D27*
%TO.P,J1,1,P1*%
%TO.N,/Vch*%
X137160000Y-102870000D03*
D28*
%TO.P,J1,2,P2*%
%TO.N,GND*%
X137160000Y-100330000D03*
%TD*%
D27*
%TO.P,J2,1,P1*%
%TO.N,/Vbat*%
X160840000Y-100330000D03*
D28*
%TO.P,J2,2,P2*%
%TO.N,GND*%
X160840000Y-102870000D03*
%TD*%
D29*
%TO.P,BT1,1,+*%
%TO.N,Net-(BT1-Pad1)*%
X120500000Y-117780000D03*
X128120000Y-115240000D03*
X128120000Y-120320000D03*
D30*
%TO.P,BT1,2,-*%
%TO.N,GND*%
X180859000Y-117780000D03*
X173239000Y-115240000D03*
X173239000Y-120320000D03*
%TD*%
D31*
%TO.N,GND*%
X135305800Y-113436400D03*
X164660000Y-119050000D03*
X164922200Y-113004600D03*
X146118000Y-120828000D03*
X156278000Y-120574000D03*
X139137500Y-112721500D03*
X143688000Y-112700000D03*
D32*
%TO.N,Net-(D1-Pad1)*%
X140665200Y-115265200D03*
X140106400Y-119151400D03*
X127000000Y-103886000D03*
%TO.N,Net-(R3-Pad2)*%
X154940000Y-112776000D03*
X154940000Y-117094000D03*
D31*
%TO.N,Net-(R2-Pad1)*%
X153162000Y-116586000D03*
X146050000Y-115570000D03*
%TD*%
D33*
%TO.N,Net-(BT1-Pad1)*%
X134072500Y-119267500D02*
X134072500Y-117780000D01*
X133020000Y-120320000D02*
X134072500Y-119267500D01*
X128120000Y-120320000D02*
X133020000Y-120320000D01*
%TO.N,GND*%
X164660000Y-117780000D02*
X164660000Y-119050000D01*
X139137500Y-115240000D02*
X139137500Y-112721500D01*
D34*
X134645000Y-111850000D02*
X134645000Y-112775600D01*
D33*
X143838500Y-112850500D02*
X143688000Y-112700000D01*
X155032000Y-121820000D02*
X156278000Y-120574000D01*
D34*
X163207500Y-112980000D02*
X164897600Y-112980000D01*
D33*
X143838500Y-115240000D02*
X143838500Y-112850500D01*
D34*
X134645000Y-112775600D02*
X135305800Y-113436400D01*
D33*
X154290000Y-121820000D02*
X155032000Y-121820000D01*
X147110000Y-121820000D02*
X146118000Y-120828000D01*
X148260000Y-121820000D02*
X147110000Y-121820000D01*
D34*
X164897600Y-112980000D02*
X164922200Y-113004600D01*
%TO.N,Net-(C1-Pad1)*%
X141910000Y-122225000D02*
X141910000Y-120423500D01*
X140055600Y-118110000D02*
X139141200Y-118110000D01*
X137047500Y-115255000D02*
X137062500Y-115240000D01*
X140132000Y-120320000D02*
X142013500Y-120320000D01*
X137846000Y-120320000D02*
X140132000Y-120320000D01*
X137062500Y-115240000D02*
X135154000Y-115240000D01*
X139801200Y-116790000D02*
X138811200Y-117780000D01*
X133325000Y-111850000D02*
X133325000Y-113411000D01*
X133985000Y-111850000D02*
X133985000Y-114071000D01*
X133985000Y-114071000D02*
X134163000Y-114249000D01*
X138811200Y-117780000D02*
X137047500Y-117780000D01*
X141910000Y-120423500D02*
X142013500Y-120320000D01*
X140715600Y-117450000D02*
X140055600Y-118110000D01*
X141820000Y-117450000D02*
X140715600Y-117450000D01*
X132665000Y-112751000D02*
X133985000Y-114071000D01*
X141820000Y-116790000D02*
X139801200Y-116790000D01*
X141820000Y-118110000D02*
X140055600Y-118110000D01*
X137047500Y-119521500D02*
X137846000Y-120320000D01*
X137047500Y-117780000D02*
X137047500Y-119521500D01*
X139141200Y-118110000D02*
X138811200Y-117780000D01*
X135154000Y-115240000D02*
X134163000Y-114249000D01*
X137047500Y-117780000D02*
X137047500Y-115255000D01*
X133325000Y-113411000D02*
X133985000Y-114071000D01*
X132665000Y-111850000D02*
X132665000Y-112751000D01*
%TO.N,/Vch*%
X133350000Y-102870000D02*
X137160000Y-102870000D01*
X130810000Y-104140000D02*
X130810000Y-103378000D01*
X131318000Y-102870000D02*
X133350000Y-102870000D01*
X130810000Y-103378000D02*
X131318000Y-102870000D01*
%TO.N,Net-(D1-Pad1)*%
X132675000Y-106837000D02*
X132553000Y-106715000D01*
D35*
X140665200Y-115265200D02*
X141988300Y-115265200D01*
D34*
X130810000Y-107442000D02*
X130048000Y-108204000D01*
D35*
X140487800Y-118770000D02*
X140106400Y-119151400D01*
D34*
X133655000Y-109602500D02*
X138812500Y-109602500D01*
D35*
X141820000Y-118770000D02*
X140487800Y-118770000D01*
D34*
X133893000Y-106715000D02*
X133315000Y-106715000D01*
X133995000Y-106817000D02*
X133893000Y-106715000D01*
X134655000Y-106715000D02*
X133893000Y-106715000D01*
X130810000Y-106680000D02*
X130810000Y-107442000D01*
X132553000Y-106715000D02*
X130845000Y-106715000D01*
X133335000Y-108355000D02*
X133335000Y-106735000D01*
X133995000Y-108355000D02*
X133995000Y-106817000D01*
D35*
X127538000Y-105440000D02*
X130810000Y-105440000D01*
D34*
X142013500Y-112803500D02*
X142013500Y-115240000D01*
X130810000Y-105440000D02*
X130810000Y-106680000D01*
X130845000Y-106715000D02*
X130810000Y-106680000D01*
X132675000Y-108355000D02*
X132675000Y-106837000D01*
D35*
X127000000Y-103886000D02*
X127000000Y-104902000D01*
X141988300Y-115265200D02*
X142013500Y-115240000D01*
D34*
X133315000Y-106715000D02*
X132553000Y-106715000D01*
X138812500Y-109602500D02*
X142013500Y-112803500D01*
X134655000Y-108355000D02*
X134655000Y-106715000D01*
D35*
X127000000Y-104902000D02*
X127538000Y-105440000D01*
D34*
X133335000Y-106735000D02*
X133315000Y-106715000D01*
%TO.N,/Vbat*%
X165801700Y-112571700D02*
X164660000Y-111430000D01*
X162952500Y-114960000D02*
X164288000Y-114960000D01*
X163195000Y-100330000D02*
X160840000Y-100330000D01*
X164288000Y-113640000D02*
X164948000Y-114300000D01*
X165801700Y-113446300D02*
X165801700Y-112571700D01*
X164660000Y-101795000D02*
X163195000Y-100330000D01*
X162952500Y-114300000D02*
X164948000Y-114300000D01*
X162952500Y-113640000D02*
X164288000Y-113640000D01*
X164948000Y-114300000D02*
X165801700Y-113446300D01*
X164288000Y-114960000D02*
X164948000Y-114300000D01*
X164660000Y-111430000D02*
X164660000Y-101795000D01*
D35*
%TO.N,Net-(R3-Pad2)*%
X153340000Y-117780000D02*
X153340000Y-118820000D01*
X155016000Y-116510000D02*
X154940000Y-116586000D01*
X154736000Y-112980000D02*
X154940000Y-112776000D01*
X153125000Y-112980000D02*
X154736000Y-112980000D01*
X154940000Y-116586000D02*
X154940000Y-117094000D01*
X155118000Y-116510000D02*
X155016000Y-116510000D01*
X156235600Y-116511900D02*
X156237500Y-116510000D01*
X156235600Y-118440400D02*
X156235600Y-116511900D01*
X155016000Y-116510000D02*
X154610000Y-116510000D01*
X156237500Y-116510000D02*
X155295800Y-116510000D01*
X154610000Y-116510000D02*
X153340000Y-117780000D01*
X155295800Y-116510000D02*
X155118000Y-116510000D01*
D34*
%TO.N,Net-(RS2-Pad2)*%
X158242000Y-113538000D02*
X158242000Y-113030000D01*
X148005754Y-112979246D02*
X148005754Y-112344246D01*
X155090500Y-111760000D02*
X156134000Y-112803500D01*
X159712500Y-112970000D02*
X158302000Y-112970000D01*
X158242000Y-113030000D02*
X158242000Y-112776000D01*
X148590000Y-111760000D02*
X155090500Y-111760000D01*
X158242000Y-111608000D02*
X158420000Y-111430000D01*
X149630000Y-113630000D02*
X148021508Y-113630000D01*
X148021508Y-113630000D02*
X148005754Y-113614246D01*
X148015000Y-112970000D02*
X148005754Y-112979246D01*
X148706508Y-114950000D02*
X148005754Y-114249246D01*
X149630000Y-114290000D02*
X148046508Y-114290000D01*
X159712500Y-114290000D02*
X158252000Y-114290000D01*
X158302000Y-112970000D02*
X158242000Y-113030000D01*
X159712500Y-113630000D02*
X158334000Y-113630000D01*
X148046508Y-114290000D02*
X148005754Y-114249246D01*
X148005754Y-114249246D02*
X148005754Y-113614246D01*
X158242000Y-114300000D02*
X158242000Y-113538000D01*
X156134000Y-112803500D02*
X158214500Y-112803500D01*
X159712500Y-114950000D02*
X158892000Y-114950000D01*
X148005754Y-112344246D02*
X148590000Y-111760000D01*
X148005754Y-113614246D02*
X148005754Y-112979246D01*
X158892000Y-114950000D02*
X158242000Y-114300000D01*
X158334000Y-113630000D02*
X158242000Y-113538000D01*
X158252000Y-114290000D02*
X158242000Y-114300000D01*
X158214500Y-112803500D02*
X158242000Y-112776000D01*
X158242000Y-112776000D02*
X158242000Y-111608000D01*
X149630000Y-114950000D02*
X148706508Y-114950000D01*
X149630000Y-112970000D02*
X148015000Y-112970000D01*
%TO.N,Net-(R2-Pad1)*%
X147270000Y-118780000D02*
X147310000Y-118820000D01*
X144926000Y-120320000D02*
X146466000Y-118780000D01*
X145315000Y-116800000D02*
X147057500Y-116800000D01*
X158062500Y-115136500D02*
X158062500Y-116510000D01*
X153125000Y-114960000D02*
X154534000Y-114960000D01*
X143838500Y-120320000D02*
X144926000Y-120320000D01*
X154534000Y-114960000D02*
X154686000Y-114808000D01*
X153162000Y-114997000D02*
X153125000Y-114960000D01*
X156134000Y-114628500D02*
X157554500Y-114628500D01*
X145315000Y-117460000D02*
X147188000Y-117460000D01*
X157554500Y-114628500D02*
X158062500Y-115136500D01*
X145315000Y-118780000D02*
X147270000Y-118780000D01*
X153125000Y-113640000D02*
X154280000Y-113640000D01*
X154686000Y-114554000D02*
X154686000Y-114808000D01*
X146466000Y-118780000D02*
X147270000Y-118780000D01*
X153125000Y-114300000D02*
X154432000Y-114300000D01*
X147347500Y-116510000D02*
X147347500Y-115542500D01*
X147310000Y-116547500D02*
X147347500Y-116510000D01*
X154432000Y-114300000D02*
X154686000Y-114046000D01*
X145315000Y-118120000D02*
X146610000Y-118120000D01*
X147188000Y-117460000D02*
X147310000Y-117338000D01*
X154280000Y-113640000D02*
X154686000Y-114046000D01*
X156134000Y-114628500D02*
X154760500Y-114628500D01*
X147310000Y-117338000D02*
X147310000Y-116547500D01*
X147057500Y-116800000D02*
X147347500Y-116510000D01*
X147347500Y-115542500D02*
X147347500Y-114835500D01*
X146077500Y-115542500D02*
X146050000Y-115570000D01*
X154760500Y-114628500D02*
X154686000Y-114554000D01*
X146610000Y-118120000D02*
X147310000Y-118820000D01*
X147310000Y-118820000D02*
X147310000Y-117338000D01*
X153162000Y-116586000D02*
X153162000Y-114997000D01*
X154686000Y-114046000D02*
X154686000Y-114554000D01*
X147347500Y-114835500D02*
X147244000Y-114732000D01*
X147347500Y-115542500D02*
X146077500Y-115542500D01*
D35*
%TO.N,Net-(R2-Pad2)*%
X150800000Y-119304000D02*
X150800000Y-121844000D01*
X150824000Y-121820000D02*
X150800000Y-121844000D01*
X149210000Y-118820000D02*
X150316000Y-118820000D01*
X152390000Y-121820000D02*
X150824000Y-121820000D01*
X149172500Y-116510000D02*
X149172500Y-118782500D01*
X150316000Y-118820000D02*
X150800000Y-119304000D01*
X150800000Y-123114000D02*
X150800000Y-121844000D01*
X149172500Y-118782500D02*
X149210000Y-118820000D01*
%TD*%
M02*
