M48
; DRILL file {KiCad (6.0.6)} date Wed Jul  5 10:52:09 2023
; FORMAT={-:-/ absolute / inch / decimal}
; #@! TF.CreationDate,2023-07-05T10:52:09+02:00
; #@! TF.GenerationSoftware,Kicad,Pcbnew,(6.0.6)
; #@! TF.FileFunction,Plated,1,2,PTH
FMAT,2
INCH
; #@! TA.AperFunction,Plated,PTH,ViaDrill
T1C0.0157
; #@! TA.AperFunction,Plated,PTH,ViaDrill
T2C0.0236
; #@! TA.AperFunction,Plated,PTH,ComponentDrill
T3C0.0394
; #@! TA.AperFunction,Plated,PTH,ComponentDrill
T4C0.0750
%
G90
G05
T1
X5.0Y-4.09
X5.516Y-4.691
X5.538Y-4.538
X6.1Y-4.44
X6.1Y-4.61
T2
X5.327Y-4.466
X5.4779Y-4.4379
X5.657Y-4.437
X5.75Y-4.55
X5.7527Y-4.757
X6.03Y-4.59
X6.1527Y-4.747
X6.4827Y-4.687
X6.493Y-4.449
T3
X5.4Y-3.95
X5.4Y-4.05
X6.3323Y-3.95
X6.3323Y-4.05
T4
X4.6654Y-4.637
X4.9654Y-4.537
X4.9654Y-4.737
T4
G00X6.737Y-4.537
M15
G01X6.9339Y-4.537
M16
G05
G00X6.737Y-4.737
M15
G01X6.9339Y-4.737
M16
G05
G00X7.037Y-4.637
M15
G01X7.2339Y-4.637
M16
G05
T0
M30
