%TF.GenerationSoftware,KiCad,Pcbnew,(6.0.6)*%
%TF.CreationDate,2023-04-08T10:42:47+02:00*%
%TF.ProjectId,ModuleBattery18650,4d6f6475-6c65-4426-9174-746572793138,rev?*%
%TF.SameCoordinates,Original*%
%TF.FileFunction,Copper,L1,Top*%
%TF.FilePolarity,Positive*%
%FSLAX46Y46*%
G04 Gerber Fmt 4.6, Leading zero omitted, Abs format (unit mm)*
G04 Created by KiCad (PCBNEW (6.0.6)) date 2023-04-08 10:42:47*
%MOMM*%
%LPD*%
G01*
G04 APERTURE LIST*
G04 Aperture macros list*
%AMRoundRect*
0 Rectangle with rounded corners*
0 $1 Rounding radius*
0 $2 $3 $4 $5 $6 $7 $8 $9 X,Y pos of 4 corners*
0 Add a 4 corners polygon primitive as box body*
4,1,4,$2,$3,$4,$5,$6,$7,$8,$9,$2,$3,0*
0 Add four circle primitives for the rounded corners*
1,1,$1+$1,$2,$3*
1,1,$1+$1,$4,$5*
1,1,$1+$1,$6,$7*
1,1,$1+$1,$8,$9*
0 Add four rect primitives between the rounded corners*
20,1,$1+$1,$2,$3,$4,$5,0*
20,1,$1+$1,$4,$5,$6,$7,0*
20,1,$1+$1,$6,$7,$8,$9,0*
20,1,$1+$1,$8,$9,$2,$3,0*%
%AMFreePoly0*
4,1,22,0.500000,-0.750000,0.000000,-0.750000,0.000000,-0.745033,-0.079941,-0.743568,-0.215256,-0.701293,-0.333266,-0.622738,-0.424486,-0.514219,-0.481581,-0.384460,-0.499164,-0.250000,-0.500000,-0.250000,-0.500000,0.250000,-0.499164,0.250000,-0.499963,0.256109,-0.478152,0.396186,-0.417904,0.524511,-0.324060,0.630769,-0.204165,0.706417,-0.067858,0.745374,0.000000,0.744959,0.000000,0.750000,
0.500000,0.750000,0.500000,-0.750000,0.500000,-0.750000,$1*%
%AMFreePoly1*
4,1,20,0.000000,0.744959,0.073905,0.744508,0.209726,0.703889,0.328688,0.626782,0.421226,0.519385,0.479903,0.390333,0.500000,0.250000,0.500000,-0.250000,0.499851,-0.262216,0.476331,-0.402017,0.414519,-0.529596,0.319384,-0.634700,0.198574,-0.708877,0.061801,-0.746166,0.000000,-0.745033,0.000000,-0.750000,-0.500000,-0.750000,-0.500000,0.750000,0.000000,0.750000,0.000000,0.744959,
0.000000,0.744959,$1*%
%AMFreePoly2*
4,1,6,0.587500,-0.725000,-0.587500,-0.725000,-1.287500,0.000000,-0.587500,0.725000,0.587500,0.725000,0.587500,-0.725000,0.587500,-0.725000,$1*%
%AMFreePoly3*
4,1,6,0.587500,0.000000,1.287500,-0.725000,-0.587500,-0.725000,-0.587500,0.725000,1.287500,0.725000,0.587500,0.000000,0.587500,0.000000,$1*%
G04 Aperture macros list end*
%TA.AperFunction,SMDPad,CuDef*%
%ADD10RoundRect,0.237500X-0.250000X-0.237500X0.250000X-0.237500X0.250000X0.237500X-0.250000X0.237500X0*%
%TD*%
%TA.AperFunction,SMDPad,CuDef*%
%ADD11FreePoly0,270.000000*%
%TD*%
%TA.AperFunction,SMDPad,CuDef*%
%ADD12FreePoly1,270.000000*%
%TD*%
%TA.AperFunction,SMDPad,CuDef*%
%ADD13RoundRect,0.237500X0.237500X-0.250000X0.237500X0.250000X-0.237500X0.250000X-0.237500X-0.250000X0*%
%TD*%
%TA.AperFunction,SMDPad,CuDef*%
%ADD14RoundRect,0.237500X0.250000X0.237500X-0.250000X0.237500X-0.250000X-0.237500X0.250000X-0.237500X0*%
%TD*%
%TA.AperFunction,ComponentPad*%
%ADD15R,1.700000X1.700000*%
%TD*%
%TA.AperFunction,ComponentPad*%
%ADD16O,1.700000X1.700000*%
%TD*%
%TA.AperFunction,SMDPad,CuDef*%
%ADD17C,1.000000*%
%TD*%
%TA.AperFunction,SMDPad,CuDef*%
%ADD18R,1.425000X1.750000*%
%TD*%
%TA.AperFunction,SMDPad,CuDef*%
%ADD19RoundRect,0.101250X-0.648750X-0.101250X0.648750X-0.101250X0.648750X0.101250X-0.648750X0.101250X0*%
%TD*%
%TA.AperFunction,SMDPad,CuDef*%
%ADD20RoundRect,0.101250X-0.533750X-0.101250X0.533750X-0.101250X0.533750X0.101250X-0.533750X0.101250X0*%
%TD*%
%TA.AperFunction,SMDPad,CuDef*%
%ADD21R,1.725000X2.235000*%
%TD*%
%TA.AperFunction,SMDPad,CuDef*%
%ADD22RoundRect,0.101250X0.648750X0.101250X-0.648750X0.101250X-0.648750X-0.101250X0.648750X-0.101250X0*%
%TD*%
%TA.AperFunction,SMDPad,CuDef*%
%ADD23RoundRect,0.101250X0.533750X0.101250X-0.533750X0.101250X-0.533750X-0.101250X0.533750X-0.101250X0*%
%TD*%
%TA.AperFunction,SMDPad,CuDef*%
%ADD24RoundRect,0.101250X0.101250X-0.648750X0.101250X0.648750X-0.101250X0.648750X-0.101250X-0.648750X0*%
%TD*%
%TA.AperFunction,SMDPad,CuDef*%
%ADD25R,2.235000X1.725000*%
%TD*%
%TA.AperFunction,SMDPad,CuDef*%
%ADD26RoundRect,0.101250X0.101250X-0.533750X0.101250X0.533750X-0.101250X0.533750X-0.101250X-0.533750X0*%
%TD*%
%TA.AperFunction,SMDPad,CuDef*%
%ADD27FreePoly2,180.000000*%
%TD*%
%TA.AperFunction,SMDPad,CuDef*%
%ADD28FreePoly3,180.000000*%
%TD*%
%TA.AperFunction,SMDPad,CuDef*%
%ADD29R,0.800000X1.900000*%
%TD*%
%TA.AperFunction,ComponentPad*%
%ADD30C,3.048000*%
%TD*%
%TA.AperFunction,ComponentPad*%
%ADD31O,6.548000X3.048000*%
%TD*%
%TA.AperFunction,ViaPad*%
%ADD32C,0.800000*%
%TD*%
%TA.AperFunction,ViaPad*%
%ADD33C,1.000000*%
%TD*%
%TA.AperFunction,Conductor*%
%ADD34C,0.250000*%
%TD*%
%TA.AperFunction,Conductor*%
%ADD35C,0.500000*%
%TD*%
%TA.AperFunction,Conductor*%
%ADD36C,1.200000*%
%TD*%
G04 APERTURE END LIST*
D10*
%TO.P,R1,1*%
%TO.N,Net-(JP1-Pad2)*%
X142013500Y-115240000D03*
%TO.P,R1,2*%
%TO.N,GND*%
X143838500Y-115240000D03*
%TD*%
D11*
%TO.P,JP1,1,A*%
%TO.N,/Vch*%
X130810000Y-104140000D03*
D12*
%TO.P,JP1,2,B*%
%TO.N,Net-(JP1-Pad2)*%
X130810000Y-105440000D03*
%TD*%
D13*
%TO.P,RS2,1*%
%TO.N,Net-(R2-Pad1)*%
X156134000Y-114628500D03*
%TO.P,RS2,2*%
%TO.N,Net-(RS2-Pad2)*%
X156134000Y-112803500D03*
%TD*%
D10*
%TO.P,RS1,1*%
%TO.N,Net-(C1-Pad1)*%
X142013500Y-120320000D03*
%TO.P,RS1,2*%
%TO.N,Net-(R2-Pad1)*%
X143838500Y-120320000D03*
%TD*%
D14*
%TO.P,R3,1*%
%TO.N,Net-(R2-Pad1)*%
X158062500Y-116510000D03*
%TO.P,R3,2*%
%TO.N,Net-(R3-Pad2)*%
X156237500Y-116510000D03*
%TD*%
D10*
%TO.P,R2,1*%
%TO.N,Net-(R2-Pad1)*%
X147347500Y-116510000D03*
%TO.P,R2,2*%
%TO.N,Net-(R2-Pad2)*%
X149172500Y-116510000D03*
%TD*%
D15*
%TO.P,J1,1,P1*%
%TO.N,/Vch*%
X137160000Y-102870000D03*
D16*
%TO.P,J1,2,P2*%
%TO.N,GND*%
X137160000Y-100330000D03*
%TD*%
D17*
%TO.P,TP6,1,1*%
%TO.N,Net-(R2-Pad2)*%
X150800000Y-123114000D03*
%TD*%
%TO.P,TP2,1,1*%
%TO.N,GND*%
X164660000Y-117780000D03*
%TD*%
D18*
%TO.P,F1,1*%
%TO.N,Net-(BT1-Pad1)*%
X134072500Y-117780000D03*
%TO.P,F1,2*%
%TO.N,Net-(C1-Pad1)*%
X137047500Y-117780000D03*
%TD*%
D19*
%TO.P,T2,1,G*%
%TO.N,Net-(JP1-Pad2)*%
X141820000Y-117450000D03*
X141820000Y-118110000D03*
X141820000Y-116790000D03*
%TO.P,T2,2,S*%
%TO.N,Net-(C1-Pad1)*%
X141820000Y-118770000D03*
D20*
%TO.P,T2,3,D*%
%TO.N,Net-(R2-Pad1)*%
X145315000Y-116800000D03*
X145315000Y-117460000D03*
D21*
X144067500Y-117780000D03*
D20*
X145315000Y-118120000D03*
X145315000Y-118780000D03*
%TD*%
D17*
%TO.P,TP4,1,1*%
%TO.N,Net-(C1-Pad1)*%
X141910000Y-122225000D03*
%TD*%
D15*
%TO.P,J2,1,P1*%
%TO.N,/Vbat*%
X160840000Y-100330000D03*
D16*
%TO.P,J2,2,P2*%
%TO.N,GND*%
X160840000Y-102870000D03*
%TD*%
D22*
%TO.P,T5,1,G*%
%TO.N,GND*%
X163207500Y-113640000D03*
X163207500Y-114300000D03*
X163207500Y-114960000D03*
%TO.P,T5,2,S*%
%TO.N,/Vbat*%
X163207500Y-112980000D03*
D23*
%TO.P,T5,3,D*%
%TO.N,Net-(RS2-Pad2)*%
X159712500Y-113630000D03*
X159712500Y-114950000D03*
X159712500Y-114290000D03*
D21*
X160960000Y-113970000D03*
D23*
X159712500Y-112970000D03*
%TD*%
D17*
%TO.P,TP1,1,1*%
%TO.N,/Vch*%
X133350000Y-102870000D03*
%TD*%
%TO.P,TP7,1,1*%
%TO.N,Net-(R3-Pad2)*%
X156235600Y-118440400D03*
%TD*%
%TO.P,TP5,1,1*%
%TO.N,Net-(R2-Pad1)*%
X147244000Y-114732000D03*
%TD*%
%TO.P,TP9,1,1*%
%TO.N,/Vbat*%
X164660000Y-111430000D03*
%TD*%
D24*
%TO.P,T1,1,G*%
%TO.N,GND*%
X132665000Y-111850000D03*
X133985000Y-111850000D03*
X133325000Y-111850000D03*
%TO.P,T1,2,S*%
%TO.N,Net-(C1-Pad1)*%
X134645000Y-111850000D03*
D25*
%TO.P,T1,3,D*%
%TO.N,Net-(JP1-Pad2)*%
X133655000Y-109602500D03*
D26*
X134655000Y-108355000D03*
X132675000Y-108355000D03*
X133995000Y-108355000D03*
X133335000Y-108355000D03*
%TD*%
D17*
%TO.P,TP8,1,1*%
%TO.N,Net-(RS2-Pad2)*%
X158420000Y-111430000D03*
%TD*%
D27*
%TO.P,C1,1*%
%TO.N,Net-(C1-Pad1)*%
X137062500Y-115240000D03*
D28*
%TO.P,C1,2*%
%TO.N,GND*%
X139137500Y-115240000D03*
%TD*%
D29*
%TO.P,T3,1,G*%
%TO.N,Net-(R2-Pad2)*%
X152390000Y-121820000D03*
%TO.P,T3,2,S*%
%TO.N,GND*%
X154290000Y-121820000D03*
%TO.P,T3,3,D*%
%TO.N,Net-(R3-Pad2)*%
X153340000Y-118820000D03*
%TD*%
%TO.P,U1,1,~{RST}*%
%TO.N,Net-(R2-Pad2)*%
X149210000Y-118820000D03*
%TO.P,U1,2,VDD*%
%TO.N,Net-(R2-Pad1)*%
X147310000Y-118820000D03*
%TO.P,U1,3,VSS*%
%TO.N,GND*%
X148260000Y-121820000D03*
%TD*%
D22*
%TO.P,T4,1,G*%
%TO.N,Net-(R3-Pad2)*%
X153125000Y-114300000D03*
X153125000Y-114960000D03*
X153125000Y-113640000D03*
%TO.P,T4,2,S*%
%TO.N,Net-(R2-Pad1)*%
X153125000Y-112980000D03*
D23*
%TO.P,T4,3,D*%
%TO.N,Net-(RS2-Pad2)*%
X149630000Y-114950000D03*
X149630000Y-114290000D03*
D21*
X150877500Y-113970000D03*
D23*
X149630000Y-112970000D03*
X149630000Y-113630000D03*
%TD*%
D17*
%TO.P,TP3,1,1*%
%TO.N,Net-(JP1-Pad2)*%
X130048000Y-108204000D03*
%TD*%
D30*
%TO.P,BT1,1,+*%
%TO.N,Net-(BT1-Pad1)*%
X120500000Y-117780000D03*
X128120000Y-120320000D03*
X128120000Y-115240000D03*
D31*
%TO.P,BT1,2,-*%
%TO.N,GND*%
X172870000Y-115240000D03*
X172870000Y-120320000D03*
X180490000Y-117780000D03*
%TD*%
D32*
%TO.N,Net-(JP1-Pad2)*%
X127000000Y-103886000D03*
D33*
%TO.N,GND*%
X133325000Y-113411000D03*
X164660000Y-119050000D03*
X146118000Y-120828000D03*
X164948000Y-114300000D03*
X156278000Y-120574000D03*
X139137500Y-112721500D03*
X143688000Y-112700000D03*
%TO.N,Net-(R2-Pad1)*%
X157912000Y-114732000D03*
X145974000Y-114732000D03*
%TD*%
D34*
%TO.N,Net-(JP1-Pad2)*%
X127538000Y-105440000D02*
X130810000Y-105440000D01*
X127000000Y-104902000D02*
X127538000Y-105440000D01*
X127000000Y-103886000D02*
X127000000Y-104902000D01*
D35*
X130845000Y-106715000D02*
X130810000Y-106680000D01*
X130810000Y-105440000D02*
X130810000Y-106680000D01*
X130810000Y-106680000D02*
X130810000Y-107442000D01*
X132553000Y-106715000D02*
X130845000Y-106715000D01*
X130810000Y-107442000D02*
X130048000Y-108204000D01*
%TO.N,/Vch*%
X133350000Y-102870000D02*
X137160000Y-102870000D01*
X130810000Y-103378000D02*
X131318000Y-102870000D01*
X131318000Y-102870000D02*
X133350000Y-102870000D01*
X130810000Y-104140000D02*
X130810000Y-103378000D01*
%TO.N,Net-(JP1-Pad2)*%
X133315000Y-106715000D02*
X132553000Y-106715000D01*
X132675000Y-108355000D02*
X132675000Y-106837000D01*
X132675000Y-106837000D02*
X132553000Y-106715000D01*
X133335000Y-106735000D02*
X133315000Y-106715000D01*
X133335000Y-108355000D02*
X133335000Y-106735000D01*
X133893000Y-106715000D02*
X133315000Y-106715000D01*
X133995000Y-108355000D02*
X133995000Y-106817000D01*
X133995000Y-106817000D02*
X133893000Y-106715000D01*
X134655000Y-106715000D02*
X133893000Y-106715000D01*
X134655000Y-108355000D02*
X134655000Y-106715000D01*
%TO.N,/Vbat*%
X163195000Y-100330000D02*
X160840000Y-100330000D01*
X164660000Y-101795000D02*
X163195000Y-100330000D01*
X164660000Y-111430000D02*
X164660000Y-101795000D01*
D36*
%TO.N,Net-(BT1-Pad1)*%
X134072500Y-119267500D02*
X134072500Y-117780000D01*
X133020000Y-120320000D02*
X134072500Y-119267500D01*
X128120000Y-120320000D02*
X133020000Y-120320000D01*
%TO.N,GND*%
X164660000Y-117780000D02*
X164660000Y-119050000D01*
X139137500Y-115240000D02*
X139137500Y-112721500D01*
X143838500Y-112850500D02*
X143688000Y-112700000D01*
X155032000Y-121820000D02*
X156278000Y-120574000D01*
D35*
X132665000Y-111595000D02*
X132665000Y-112751000D01*
X133985000Y-112751000D02*
X133325000Y-113411000D01*
X162952500Y-114960000D02*
X164288000Y-114960000D01*
X133325000Y-111595000D02*
X133325000Y-113411000D01*
X164288000Y-113640000D02*
X164948000Y-114300000D01*
D36*
X143838500Y-115240000D02*
X143838500Y-112850500D01*
D35*
X162952500Y-114300000D02*
X164948000Y-114300000D01*
X133985000Y-111595000D02*
X133985000Y-112751000D01*
X132665000Y-112751000D02*
X133325000Y-113411000D01*
X162952500Y-113640000D02*
X164288000Y-113640000D01*
D36*
X154290000Y-121820000D02*
X155032000Y-121820000D01*
X147110000Y-121820000D02*
X146118000Y-120828000D01*
X148260000Y-121820000D02*
X147110000Y-121820000D01*
D35*
X164288000Y-114960000D02*
X164948000Y-114300000D01*
%TO.N,Net-(C1-Pad1)*%
X141910000Y-122225000D02*
X141910000Y-120423500D01*
X140818000Y-118770000D02*
X140132000Y-119456000D01*
X137047500Y-115255000D02*
X137062500Y-115240000D01*
X140132000Y-120320000D02*
X142013500Y-120320000D01*
X137846000Y-120320000D02*
X140132000Y-120320000D01*
X134645000Y-114325000D02*
X135560000Y-115240000D01*
X140132000Y-119456000D02*
X140132000Y-120320000D01*
X141820000Y-118770000D02*
X140818000Y-118770000D01*
X141910000Y-120423500D02*
X142013500Y-120320000D01*
X137047500Y-119521500D02*
X137846000Y-120320000D01*
X137047500Y-117780000D02*
X137047500Y-119521500D01*
X134645000Y-111595000D02*
X134645000Y-114325000D01*
X135560000Y-115240000D02*
X137062500Y-115240000D01*
X137047500Y-117780000D02*
X137047500Y-115255000D01*
%TO.N,Net-(JP1-Pad2)*%
X140462000Y-116840000D02*
X140462000Y-115824000D01*
X140462000Y-117856000D02*
X140462000Y-117348000D01*
X141820000Y-116790000D02*
X140512000Y-116790000D01*
X140512000Y-116790000D02*
X140462000Y-116840000D01*
X140462000Y-117348000D02*
X140462000Y-116840000D01*
X133655000Y-109602500D02*
X138812500Y-109602500D01*
X141820000Y-118110000D02*
X140716000Y-118110000D01*
X142013500Y-112803500D02*
X142013500Y-115240000D01*
X141046000Y-115240000D02*
X142013500Y-115240000D01*
X138812500Y-109602500D02*
X142013500Y-112803500D01*
X140564000Y-117450000D02*
X140462000Y-117348000D01*
X141820000Y-117450000D02*
X140564000Y-117450000D01*
X140462000Y-115824000D02*
X141046000Y-115240000D01*
X140716000Y-118110000D02*
X140462000Y-117856000D01*
%TO.N,/Vbat*%
X164126000Y-112980000D02*
X162952500Y-112980000D01*
X164660000Y-112446000D02*
X164126000Y-112980000D01*
X164660000Y-111430000D02*
X164660000Y-112446000D01*
%TO.N,Net-(R2-Pad1)*%
X144926000Y-120320000D02*
X146466000Y-118780000D01*
X157912000Y-114732000D02*
X156237500Y-114732000D01*
X143838500Y-120320000D02*
X144926000Y-120320000D01*
X147347500Y-114835500D02*
X147244000Y-114732000D01*
X154636000Y-112980000D02*
X156134000Y-114478000D01*
X147244000Y-114732000D02*
X145974000Y-114732000D01*
X146466000Y-118780000D02*
X147270000Y-118780000D01*
X147310000Y-118820000D02*
X147310000Y-116547500D01*
X143838500Y-118009000D02*
X144067500Y-117780000D01*
X147310000Y-116547500D02*
X147347500Y-116510000D01*
X156237500Y-114732000D02*
X156134000Y-114628500D01*
X143838500Y-120320000D02*
X143838500Y-118009000D01*
X156134000Y-114478000D02*
X156134000Y-114628500D01*
X153125000Y-112980000D02*
X154636000Y-112980000D01*
X147270000Y-118780000D02*
X147310000Y-118820000D01*
X147347500Y-116510000D02*
X147347500Y-114835500D01*
X158062500Y-116510000D02*
X158015500Y-116510000D01*
X158015500Y-116510000D02*
X156134000Y-114628500D01*
D34*
%TO.N,Net-(R2-Pad2)*%
X150800000Y-119304000D02*
X150800000Y-121844000D01*
X150824000Y-121820000D02*
X150800000Y-121844000D01*
X149210000Y-118820000D02*
X150316000Y-118820000D01*
X152390000Y-121820000D02*
X150824000Y-121820000D01*
X149172500Y-116510000D02*
X149172500Y-118782500D01*
X150316000Y-118820000D02*
X150800000Y-119304000D01*
X150800000Y-123114000D02*
X150800000Y-121844000D01*
X149172500Y-118782500D02*
X149210000Y-118820000D01*
%TO.N,Net-(R3-Pad2)*%
X154610000Y-114224000D02*
X154610000Y-114986000D01*
X154610000Y-114986000D02*
X154610000Y-116510000D01*
X153340000Y-117780000D02*
X153340000Y-118820000D01*
X153505000Y-113640000D02*
X154280000Y-113640000D01*
X153505000Y-114300000D02*
X154534000Y-114300000D01*
X156237500Y-116510000D02*
X154610000Y-116510000D01*
X156235600Y-116511900D02*
X156237500Y-116510000D01*
X156235600Y-118440400D02*
X156235600Y-116511900D01*
X154610000Y-113970000D02*
X154610000Y-114224000D01*
X154584000Y-114960000D02*
X154610000Y-114986000D01*
X154534000Y-114300000D02*
X154610000Y-114224000D01*
X153505000Y-114960000D02*
X154584000Y-114960000D01*
X154280000Y-113640000D02*
X154610000Y-113970000D01*
X154610000Y-116510000D02*
X153340000Y-117780000D01*
D35*
%TO.N,Net-(RS2-Pad2)*%
X158420000Y-111430000D02*
X157046500Y-112803500D01*
X155318000Y-111987500D02*
X156134000Y-112803500D01*
X160960000Y-111938000D02*
X160452000Y-111430000D01*
X150877500Y-113970000D02*
X150877500Y-112520500D01*
X157046500Y-112803500D02*
X156134000Y-112803500D01*
X151410500Y-111987500D02*
X155318000Y-111987500D01*
X150877500Y-112520500D02*
X151410500Y-111987500D01*
X160452000Y-111430000D02*
X158420000Y-111430000D01*
X160960000Y-113970000D02*
X160960000Y-111938000D01*
%TD*%
M02*
