%TF.GenerationSoftware,KiCad,Pcbnew,(6.0.6)*%
%TF.CreationDate,2023-07-05T10:52:05+02:00*%
%TF.ProjectId,ModuleBattery18650,4d6f6475-6c65-4426-9174-746572793138,rev?*%
%TF.SameCoordinates,Original*%
%TF.FileFunction,Legend,Bot*%
%TF.FilePolarity,Positive*%
%FSLAX46Y46*%
G04 Gerber Fmt 4.6, Leading zero omitted, Abs format (unit mm)*
G04 Created by KiCad (PCBNEW (6.0.6)) date 2023-07-05 10:52:05*
%MOMM*%
%LPD*%
G01*
G04 APERTURE LIST*
%ADD10C,0.150000*%
%ADD11C,0.300000*%
%ADD12C,0.250000*%
%ADD13C,0.120000*%
%ADD14C,0.100000*%
G04 APERTURE END LIST*
D10*
G36*
X157500000Y-108000000D02*
G01*
X156500000Y-109000000D01*
X156500000Y-107000000D01*
X157500000Y-108000000D01*
G37*
X157500000Y-108000000D02*
X156500000Y-109000000D01*
X156500000Y-107000000D01*
X157500000Y-108000000D01*
X142500000Y-108000000D02*
X157500000Y-108000000D01*
X166187380Y-99290476D02*
X165187380Y-99290476D01*
X165187380Y-99671428D01*
X165235000Y-99766666D01*
X165282619Y-99814285D01*
X165377857Y-99861904D01*
X165520714Y-99861904D01*
X165615952Y-99814285D01*
X165663571Y-99766666D01*
X165711190Y-99671428D01*
X165711190Y-99290476D01*
X165187380Y-100480952D02*
X165187380Y-100671428D01*
X165235000Y-100766666D01*
X165330238Y-100861904D01*
X165520714Y-100909523D01*
X165854047Y-100909523D01*
X166044523Y-100861904D01*
X166139761Y-100766666D01*
X166187380Y-100671428D01*
X166187380Y-100480952D01*
X166139761Y-100385714D01*
X166044523Y-100290476D01*
X165854047Y-100242857D01*
X165520714Y-100242857D01*
X165330238Y-100290476D01*
X165235000Y-100385714D01*
X165187380Y-100480952D01*
X165187380Y-101242857D02*
X166187380Y-101480952D01*
X165473095Y-101671428D01*
X166187380Y-101861904D01*
X165187380Y-102100000D01*
X165663571Y-102480952D02*
X165663571Y-102814285D01*
X166187380Y-102957142D02*
X166187380Y-102480952D01*
X165187380Y-102480952D01*
X165187380Y-102957142D01*
X166187380Y-103957142D02*
X165711190Y-103623809D01*
X166187380Y-103385714D02*
X165187380Y-103385714D01*
X165187380Y-103766666D01*
X165235000Y-103861904D01*
X165282619Y-103909523D01*
X165377857Y-103957142D01*
X165520714Y-103957142D01*
X165615952Y-103909523D01*
X165663571Y-103861904D01*
X165711190Y-103766666D01*
X165711190Y-103385714D01*
D11*
X116325952Y-109420176D02*
X116325952Y-110690176D01*
X116749285Y-109783033D01*
X117172619Y-110690176D01*
X117172619Y-109420176D01*
X117958809Y-109420176D02*
X117837857Y-109480652D01*
X117777380Y-109541128D01*
X117716904Y-109662080D01*
X117716904Y-110024938D01*
X117777380Y-110145890D01*
X117837857Y-110206366D01*
X117958809Y-110266842D01*
X118140238Y-110266842D01*
X118261190Y-110206366D01*
X118321666Y-110145890D01*
X118382142Y-110024938D01*
X118382142Y-109662080D01*
X118321666Y-109541128D01*
X118261190Y-109480652D01*
X118140238Y-109420176D01*
X117958809Y-109420176D01*
X119470714Y-109420176D02*
X119470714Y-110690176D01*
X119470714Y-109480652D02*
X119349761Y-109420176D01*
X119107857Y-109420176D01*
X118986904Y-109480652D01*
X118926428Y-109541128D01*
X118865952Y-109662080D01*
X118865952Y-110024938D01*
X118926428Y-110145890D01*
X118986904Y-110206366D01*
X119107857Y-110266842D01*
X119349761Y-110266842D01*
X119470714Y-110206366D01*
X120619761Y-110266842D02*
X120619761Y-109420176D01*
X120075476Y-110266842D02*
X120075476Y-109601604D01*
X120135952Y-109480652D01*
X120256904Y-109420176D01*
X120438333Y-109420176D01*
X120559285Y-109480652D01*
X120619761Y-109541128D01*
X121405952Y-109420176D02*
X121285000Y-109480652D01*
X121224523Y-109601604D01*
X121224523Y-110690176D01*
X122373571Y-109480652D02*
X122252619Y-109420176D01*
X122010714Y-109420176D01*
X121889761Y-109480652D01*
X121829285Y-109601604D01*
X121829285Y-110085414D01*
X121889761Y-110206366D01*
X122010714Y-110266842D01*
X122252619Y-110266842D01*
X122373571Y-110206366D01*
X122434047Y-110085414D01*
X122434047Y-109964461D01*
X121829285Y-109843509D01*
X123401666Y-110085414D02*
X123583095Y-110024938D01*
X123643571Y-109964461D01*
X123704047Y-109843509D01*
X123704047Y-109662080D01*
X123643571Y-109541128D01*
X123583095Y-109480652D01*
X123462142Y-109420176D01*
X122978333Y-109420176D01*
X122978333Y-110690176D01*
X123401666Y-110690176D01*
X123522619Y-110629700D01*
X123583095Y-110569223D01*
X123643571Y-110448271D01*
X123643571Y-110327319D01*
X123583095Y-110206366D01*
X123522619Y-110145890D01*
X123401666Y-110085414D01*
X122978333Y-110085414D01*
X124792619Y-109420176D02*
X124792619Y-110085414D01*
X124732142Y-110206366D01*
X124611190Y-110266842D01*
X124369285Y-110266842D01*
X124248333Y-110206366D01*
X124792619Y-109480652D02*
X124671666Y-109420176D01*
X124369285Y-109420176D01*
X124248333Y-109480652D01*
X124187857Y-109601604D01*
X124187857Y-109722557D01*
X124248333Y-109843509D01*
X124369285Y-109903985D01*
X124671666Y-109903985D01*
X124792619Y-109964461D01*
X125215952Y-110266842D02*
X125699761Y-110266842D01*
X125397380Y-110690176D02*
X125397380Y-109601604D01*
X125457857Y-109480652D01*
X125578809Y-109420176D01*
X125699761Y-109420176D01*
X125941666Y-110266842D02*
X126425476Y-110266842D01*
X126123095Y-110690176D02*
X126123095Y-109601604D01*
X126183571Y-109480652D01*
X126304523Y-109420176D01*
X126425476Y-109420176D01*
X127332619Y-109480652D02*
X127211666Y-109420176D01*
X126969761Y-109420176D01*
X126848809Y-109480652D01*
X126788333Y-109601604D01*
X126788333Y-110085414D01*
X126848809Y-110206366D01*
X126969761Y-110266842D01*
X127211666Y-110266842D01*
X127332619Y-110206366D01*
X127393095Y-110085414D01*
X127393095Y-109964461D01*
X126788333Y-109843509D01*
X127937380Y-109420176D02*
X127937380Y-110266842D01*
X127937380Y-110024938D02*
X127997857Y-110145890D01*
X128058333Y-110206366D01*
X128179285Y-110266842D01*
X128300238Y-110266842D01*
X128602619Y-110266842D02*
X128905000Y-109420176D01*
X129207380Y-110266842D02*
X128905000Y-109420176D01*
X128784047Y-109117795D01*
X128723571Y-109057319D01*
X128602619Y-108996842D01*
X130356428Y-109420176D02*
X129630714Y-109420176D01*
X129993571Y-109420176D02*
X129993571Y-110690176D01*
X129872619Y-110508747D01*
X129751666Y-110387795D01*
X129630714Y-110327319D01*
X131082142Y-110145890D02*
X130961190Y-110206366D01*
X130900714Y-110266842D01*
X130840238Y-110387795D01*
X130840238Y-110448271D01*
X130900714Y-110569223D01*
X130961190Y-110629700D01*
X131082142Y-110690176D01*
X131324047Y-110690176D01*
X131445000Y-110629700D01*
X131505476Y-110569223D01*
X131565952Y-110448271D01*
X131565952Y-110387795D01*
X131505476Y-110266842D01*
X131445000Y-110206366D01*
X131324047Y-110145890D01*
X131082142Y-110145890D01*
X130961190Y-110085414D01*
X130900714Y-110024938D01*
X130840238Y-109903985D01*
X130840238Y-109662080D01*
X130900714Y-109541128D01*
X130961190Y-109480652D01*
X131082142Y-109420176D01*
X131324047Y-109420176D01*
X131445000Y-109480652D01*
X131505476Y-109541128D01*
X131565952Y-109662080D01*
X131565952Y-109903985D01*
X131505476Y-110024938D01*
X131445000Y-110085414D01*
X131324047Y-110145890D01*
X132654523Y-110690176D02*
X132412619Y-110690176D01*
X132291666Y-110629700D01*
X132231190Y-110569223D01*
X132110238Y-110387795D01*
X132049761Y-110145890D01*
X132049761Y-109662080D01*
X132110238Y-109541128D01*
X132170714Y-109480652D01*
X132291666Y-109420176D01*
X132533571Y-109420176D01*
X132654523Y-109480652D01*
X132715000Y-109541128D01*
X132775476Y-109662080D01*
X132775476Y-109964461D01*
X132715000Y-110085414D01*
X132654523Y-110145890D01*
X132533571Y-110206366D01*
X132291666Y-110206366D01*
X132170714Y-110145890D01*
X132110238Y-110085414D01*
X132049761Y-109964461D01*
X133924523Y-110690176D02*
X133319761Y-110690176D01*
X133259285Y-110085414D01*
X133319761Y-110145890D01*
X133440714Y-110206366D01*
X133743095Y-110206366D01*
X133864047Y-110145890D01*
X133924523Y-110085414D01*
X133985000Y-109964461D01*
X133985000Y-109662080D01*
X133924523Y-109541128D01*
X133864047Y-109480652D01*
X133743095Y-109420176D01*
X133440714Y-109420176D01*
X133319761Y-109480652D01*
X133259285Y-109541128D01*
X134771190Y-110690176D02*
X134892142Y-110690176D01*
X135013095Y-110629700D01*
X135073571Y-110569223D01*
X135134047Y-110448271D01*
X135194523Y-110206366D01*
X135194523Y-109903985D01*
X135134047Y-109662080D01*
X135073571Y-109541128D01*
X135013095Y-109480652D01*
X134892142Y-109420176D01*
X134771190Y-109420176D01*
X134650238Y-109480652D01*
X134589761Y-109541128D01*
X134529285Y-109662080D01*
X134468809Y-109903985D01*
X134468809Y-110206366D01*
X134529285Y-110448271D01*
X134589761Y-110569223D01*
X134650238Y-110629700D01*
X134771190Y-110690176D01*
X118533333Y-107375476D02*
X118533333Y-108645476D01*
X119259047Y-107375476D01*
X119259047Y-108645476D01*
X119863809Y-107375476D02*
X119863809Y-108222142D01*
X119863809Y-108645476D02*
X119803333Y-108585000D01*
X119863809Y-108524523D01*
X119924285Y-108585000D01*
X119863809Y-108645476D01*
X119863809Y-108524523D01*
X121012857Y-107435952D02*
X120891904Y-107375476D01*
X120650000Y-107375476D01*
X120529047Y-107435952D01*
X120468571Y-107496428D01*
X120408095Y-107617380D01*
X120408095Y-107980238D01*
X120468571Y-108101190D01*
X120529047Y-108161666D01*
X120650000Y-108222142D01*
X120891904Y-108222142D01*
X121012857Y-108161666D01*
X121738571Y-107375476D02*
X121617619Y-107435952D01*
X121557142Y-107496428D01*
X121496666Y-107617380D01*
X121496666Y-107980238D01*
X121557142Y-108101190D01*
X121617619Y-108161666D01*
X121738571Y-108222142D01*
X121920000Y-108222142D01*
X122040952Y-108161666D01*
X122101428Y-108101190D01*
X122161904Y-107980238D01*
X122161904Y-107617380D01*
X122101428Y-107496428D01*
X122040952Y-107435952D01*
X121920000Y-107375476D01*
X121738571Y-107375476D01*
X122887619Y-107375476D02*
X122766666Y-107435952D01*
X122706190Y-107556904D01*
X122706190Y-108645476D01*
X123915714Y-107375476D02*
X123915714Y-108040714D01*
X123855238Y-108161666D01*
X123734285Y-108222142D01*
X123492380Y-108222142D01*
X123371428Y-108161666D01*
X123915714Y-107435952D02*
X123794761Y-107375476D01*
X123492380Y-107375476D01*
X123371428Y-107435952D01*
X123310952Y-107556904D01*
X123310952Y-107677857D01*
X123371428Y-107798809D01*
X123492380Y-107859285D01*
X123794761Y-107859285D01*
X123915714Y-107919761D01*
X124460000Y-107435952D02*
X124580952Y-107375476D01*
X124822857Y-107375476D01*
X124943809Y-107435952D01*
X125004285Y-107556904D01*
X125004285Y-107617380D01*
X124943809Y-107738333D01*
X124822857Y-107798809D01*
X124641428Y-107798809D01*
X124520476Y-107859285D01*
X124460000Y-107980238D01*
X124460000Y-108040714D01*
X124520476Y-108161666D01*
X124641428Y-108222142D01*
X124822857Y-108222142D01*
X124943809Y-108161666D01*
X126516190Y-108040714D02*
X126939523Y-108040714D01*
X127120952Y-107375476D02*
X126516190Y-107375476D01*
X126516190Y-108645476D01*
X127120952Y-108645476D01*
X127604761Y-107435952D02*
X127725714Y-107375476D01*
X127967619Y-107375476D01*
X128088571Y-107435952D01*
X128149047Y-107556904D01*
X128149047Y-107617380D01*
X128088571Y-107738333D01*
X127967619Y-107798809D01*
X127786190Y-107798809D01*
X127665238Y-107859285D01*
X127604761Y-107980238D01*
X127604761Y-108040714D01*
X127665238Y-108161666D01*
X127786190Y-108222142D01*
X127967619Y-108222142D01*
X128088571Y-108161666D01*
X128632857Y-107435952D02*
X128753809Y-107375476D01*
X128995714Y-107375476D01*
X129116666Y-107435952D01*
X129177142Y-107556904D01*
X129177142Y-107617380D01*
X129116666Y-107738333D01*
X128995714Y-107798809D01*
X128814285Y-107798809D01*
X128693333Y-107859285D01*
X128632857Y-107980238D01*
X128632857Y-108040714D01*
X128693333Y-108161666D01*
X128814285Y-108222142D01*
X128995714Y-108222142D01*
X129116666Y-108161666D01*
X130205238Y-107435952D02*
X130084285Y-107375476D01*
X129842380Y-107375476D01*
X129721428Y-107435952D01*
X129660952Y-107556904D01*
X129660952Y-108040714D01*
X129721428Y-108161666D01*
X129842380Y-108222142D01*
X130084285Y-108222142D01*
X130205238Y-108161666D01*
X130265714Y-108040714D01*
X130265714Y-107919761D01*
X129660952Y-107798809D01*
X130810000Y-107375476D02*
X130810000Y-108222142D01*
X130810000Y-108645476D02*
X130749523Y-108585000D01*
X130810000Y-108524523D01*
X130870476Y-108585000D01*
X130810000Y-108645476D01*
X130810000Y-108524523D01*
X131293809Y-108222142D02*
X131596190Y-107375476D01*
X131898571Y-108222142D01*
X132926666Y-107375476D02*
X132926666Y-108040714D01*
X132866190Y-108161666D01*
X132745238Y-108222142D01*
X132503333Y-108222142D01*
X132382380Y-108161666D01*
X132926666Y-107435952D02*
X132805714Y-107375476D01*
X132503333Y-107375476D01*
X132382380Y-107435952D01*
X132321904Y-107556904D01*
X132321904Y-107677857D01*
X132382380Y-107798809D01*
X132503333Y-107859285D01*
X132805714Y-107859285D01*
X132926666Y-107919761D01*
X117172619Y-106479823D02*
X117233095Y-106540300D01*
X117354047Y-106600776D01*
X117656428Y-106600776D01*
X117777380Y-106540300D01*
X117837857Y-106479823D01*
X117898333Y-106358871D01*
X117898333Y-106237919D01*
X117837857Y-106056490D01*
X117112142Y-105330776D01*
X117898333Y-105330776D01*
X118684523Y-106600776D02*
X118805476Y-106600776D01*
X118926428Y-106540300D01*
X118986904Y-106479823D01*
X119047380Y-106358871D01*
X119107857Y-106116966D01*
X119107857Y-105814585D01*
X119047380Y-105572680D01*
X118986904Y-105451728D01*
X118926428Y-105391252D01*
X118805476Y-105330776D01*
X118684523Y-105330776D01*
X118563571Y-105391252D01*
X118503095Y-105451728D01*
X118442619Y-105572680D01*
X118382142Y-105814585D01*
X118382142Y-106116966D01*
X118442619Y-106358871D01*
X118503095Y-106479823D01*
X118563571Y-106540300D01*
X118684523Y-106600776D01*
X119591666Y-106479823D02*
X119652142Y-106540300D01*
X119773095Y-106600776D01*
X120075476Y-106600776D01*
X120196428Y-106540300D01*
X120256904Y-106479823D01*
X120317380Y-106358871D01*
X120317380Y-106237919D01*
X120256904Y-106056490D01*
X119531190Y-105330776D01*
X120317380Y-105330776D01*
X120740714Y-106600776D02*
X121526904Y-106600776D01*
X121103571Y-106116966D01*
X121285000Y-106116966D01*
X121405952Y-106056490D01*
X121466428Y-105996014D01*
X121526904Y-105875061D01*
X121526904Y-105572680D01*
X121466428Y-105451728D01*
X121405952Y-105391252D01*
X121285000Y-105330776D01*
X120922142Y-105330776D01*
X120801190Y-105391252D01*
X120740714Y-105451728D01*
X122071190Y-105451728D02*
X122131666Y-105391252D01*
X122071190Y-105330776D01*
X122010714Y-105391252D01*
X122071190Y-105451728D01*
X122071190Y-105330776D01*
X122917857Y-106600776D02*
X123038809Y-106600776D01*
X123159761Y-106540300D01*
X123220238Y-106479823D01*
X123280714Y-106358871D01*
X123341190Y-106116966D01*
X123341190Y-105814585D01*
X123280714Y-105572680D01*
X123220238Y-105451728D01*
X123159761Y-105391252D01*
X123038809Y-105330776D01*
X122917857Y-105330776D01*
X122796904Y-105391252D01*
X122736428Y-105451728D01*
X122675952Y-105572680D01*
X122615476Y-105814585D01*
X122615476Y-106116966D01*
X122675952Y-106358871D01*
X122736428Y-106479823D01*
X122796904Y-106540300D01*
X122917857Y-106600776D01*
X123764523Y-106600776D02*
X124611190Y-106600776D01*
X124066904Y-105330776D01*
X125095000Y-105451728D02*
X125155476Y-105391252D01*
X125095000Y-105330776D01*
X125034523Y-105391252D01*
X125095000Y-105451728D01*
X125095000Y-105330776D01*
X125941666Y-106600776D02*
X126062619Y-106600776D01*
X126183571Y-106540300D01*
X126244047Y-106479823D01*
X126304523Y-106358871D01*
X126365000Y-106116966D01*
X126365000Y-105814585D01*
X126304523Y-105572680D01*
X126244047Y-105451728D01*
X126183571Y-105391252D01*
X126062619Y-105330776D01*
X125941666Y-105330776D01*
X125820714Y-105391252D01*
X125760238Y-105451728D01*
X125699761Y-105572680D01*
X125639285Y-105814585D01*
X125639285Y-106116966D01*
X125699761Y-106358871D01*
X125760238Y-106479823D01*
X125820714Y-106540300D01*
X125941666Y-106600776D01*
X127514047Y-106600776D02*
X126909285Y-106600776D01*
X126848809Y-105996014D01*
X126909285Y-106056490D01*
X127030238Y-106116966D01*
X127332619Y-106116966D01*
X127453571Y-106056490D01*
X127514047Y-105996014D01*
X127574523Y-105875061D01*
X127574523Y-105572680D01*
X127514047Y-105451728D01*
X127453571Y-105391252D01*
X127332619Y-105330776D01*
X127030238Y-105330776D01*
X126909285Y-105391252D01*
X126848809Y-105451728D01*
X129086428Y-105814585D02*
X130054047Y-105814585D01*
X131626428Y-105330776D02*
X131626428Y-106177442D01*
X131626428Y-105935538D02*
X131686904Y-106056490D01*
X131747380Y-106116966D01*
X131868333Y-106177442D01*
X131989285Y-106177442D01*
X132654523Y-106600776D02*
X132775476Y-106600776D01*
X132896428Y-106540300D01*
X132956904Y-106479823D01*
X133017380Y-106358871D01*
X133077857Y-106116966D01*
X133077857Y-105814585D01*
X133017380Y-105572680D01*
X132956904Y-105451728D01*
X132896428Y-105391252D01*
X132775476Y-105330776D01*
X132654523Y-105330776D01*
X132533571Y-105391252D01*
X132473095Y-105451728D01*
X132412619Y-105572680D01*
X132352142Y-105814585D01*
X132352142Y-106116966D01*
X132412619Y-106358871D01*
X132473095Y-106479823D01*
X132533571Y-106540300D01*
X132654523Y-106600776D01*
X133561666Y-106479823D02*
X133622142Y-106540300D01*
X133743095Y-106600776D01*
X134045476Y-106600776D01*
X134166428Y-106540300D01*
X134226904Y-106479823D01*
X134287380Y-106358871D01*
X134287380Y-106237919D01*
X134226904Y-106056490D01*
X133501190Y-105330776D01*
X134287380Y-105330776D01*
D10*
X132357857Y-103060238D02*
X132310238Y-103107857D01*
X132262619Y-103250714D01*
X132262619Y-103345952D01*
X132310238Y-103488809D01*
X132405476Y-103584047D01*
X132500714Y-103631666D01*
X132691190Y-103679285D01*
X132834047Y-103679285D01*
X133024523Y-103631666D01*
X133119761Y-103584047D01*
X133215000Y-103488809D01*
X133262619Y-103345952D01*
X133262619Y-103250714D01*
X133215000Y-103107857D01*
X133167380Y-103060238D01*
X132262619Y-102631666D02*
X133262619Y-102631666D01*
X132786428Y-102631666D02*
X132786428Y-102060238D01*
X132262619Y-102060238D02*
X133262619Y-102060238D01*
X132548333Y-101631666D02*
X132548333Y-101155476D01*
X132262619Y-101726904D02*
X133262619Y-101393571D01*
X132262619Y-101060238D01*
X132262619Y-100155476D02*
X132738809Y-100488809D01*
X132262619Y-100726904D02*
X133262619Y-100726904D01*
X133262619Y-100345952D01*
X133215000Y-100250714D01*
X133167380Y-100203095D01*
X133072142Y-100155476D01*
X132929285Y-100155476D01*
X132834047Y-100203095D01*
X132786428Y-100250714D01*
X132738809Y-100345952D01*
X132738809Y-100726904D01*
X133215000Y-99203095D02*
X133262619Y-99298333D01*
X133262619Y-99441190D01*
X133215000Y-99584047D01*
X133119761Y-99679285D01*
X133024523Y-99726904D01*
X132834047Y-99774523D01*
X132691190Y-99774523D01*
X132500714Y-99726904D01*
X132405476Y-99679285D01*
X132310238Y-99584047D01*
X132262619Y-99441190D01*
X132262619Y-99345952D01*
X132310238Y-99203095D01*
X132357857Y-99155476D01*
X132691190Y-99155476D01*
X132691190Y-99345952D01*
X132786428Y-98726904D02*
X132786428Y-98393571D01*
X132262619Y-98250714D02*
X132262619Y-98726904D01*
X133262619Y-98726904D01*
X133262619Y-98250714D01*
%TO.C,J1*%
X137493333Y-104622380D02*
X137493333Y-105336666D01*
X137540952Y-105479523D01*
X137636190Y-105574761D01*
X137779047Y-105622380D01*
X137874285Y-105622380D01*
X136493333Y-105622380D02*
X137064761Y-105622380D01*
X136779047Y-105622380D02*
X136779047Y-104622380D01*
X136874285Y-104765238D01*
X136969523Y-104860476D01*
X137064761Y-104908095D01*
X141445714Y-102417619D02*
X140874285Y-102417619D01*
X141160000Y-102417619D02*
X141160000Y-103417619D01*
X141064761Y-103274761D01*
X140969523Y-103179523D01*
X140874285Y-103131904D01*
%TO.C,R4*%
X123897380Y-101433333D02*
X123421190Y-101100000D01*
X123897380Y-100861904D02*
X122897380Y-100861904D01*
X122897380Y-101242857D01*
X122945000Y-101338095D01*
X122992619Y-101385714D01*
X123087857Y-101433333D01*
X123230714Y-101433333D01*
X123325952Y-101385714D01*
X123373571Y-101338095D01*
X123421190Y-101242857D01*
X123421190Y-100861904D01*
X123230714Y-102290476D02*
X123897380Y-102290476D01*
X122849761Y-102052380D02*
X123564047Y-101814285D01*
X123564047Y-102433333D01*
%TO.C,J2*%
X160988333Y-104862380D02*
X160988333Y-105576666D01*
X161035952Y-105719523D01*
X161131190Y-105814761D01*
X161274047Y-105862380D01*
X161369285Y-105862380D01*
X160559761Y-104957619D02*
X160512142Y-104910000D01*
X160416904Y-104862380D01*
X160178809Y-104862380D01*
X160083571Y-104910000D01*
X160035952Y-104957619D01*
X159988333Y-105052857D01*
X159988333Y-105148095D01*
X160035952Y-105290952D01*
X160607380Y-105862380D01*
X159988333Y-105862380D01*
X156554285Y-100782380D02*
X157125714Y-100782380D01*
X156840000Y-100782380D02*
X156840000Y-99782380D01*
X156935238Y-99925238D01*
X157030476Y-100020476D01*
X157125714Y-100068095D01*
%TO.C,D1*%
X128882380Y-100861904D02*
X127882380Y-100861904D01*
X127882380Y-101100000D01*
X127930000Y-101242857D01*
X128025238Y-101338095D01*
X128120476Y-101385714D01*
X128310952Y-101433333D01*
X128453809Y-101433333D01*
X128644285Y-101385714D01*
X128739523Y-101338095D01*
X128834761Y-101242857D01*
X128882380Y-101100000D01*
X128882380Y-100861904D01*
X128882380Y-102385714D02*
X128882380Y-101814285D01*
X128882380Y-102100000D02*
X127882380Y-102100000D01*
X128025238Y-102004761D01*
X128120476Y-101909523D01*
X128168095Y-101814285D01*
%TO.C,BT1*%
X150205714Y-124058571D02*
X150062857Y-124106190D01*
X150015238Y-124153809D01*
X149967619Y-124249047D01*
X149967619Y-124391904D01*
X150015238Y-124487142D01*
X150062857Y-124534761D01*
X150158095Y-124582380D01*
X150539047Y-124582380D01*
X150539047Y-123582380D01*
X150205714Y-123582380D01*
X150110476Y-123630000D01*
X150062857Y-123677619D01*
X150015238Y-123772857D01*
X150015238Y-123868095D01*
X150062857Y-123963333D01*
X150110476Y-124010952D01*
X150205714Y-124058571D01*
X150539047Y-124058571D01*
X149681904Y-123582380D02*
X149110476Y-123582380D01*
X149396190Y-124582380D02*
X149396190Y-123582380D01*
X148253333Y-124582380D02*
X148824761Y-124582380D01*
X148539047Y-124582380D02*
X148539047Y-123582380D01*
X148634285Y-123725238D01*
X148729523Y-123820476D01*
X148824761Y-123868095D01*
D12*
X132144095Y-124910142D02*
X130595904Y-124910142D01*
X131370000Y-125684238D02*
X131370000Y-124136047D01*
X167345142Y-123990904D02*
X167345142Y-125539095D01*
D13*
%TO.C,J1*%
X133910000Y-99130000D02*
X140260000Y-99130000D01*
X133910000Y-99130000D02*
X133910000Y-104070000D01*
X138660000Y-104070000D02*
X138660000Y-99130000D01*
X133910000Y-104070000D02*
X140260000Y-104070000D01*
X140260000Y-104070000D02*
X140260000Y-99130000D01*
%TO.C,R4*%
X124360000Y-101372936D02*
X124360000Y-101827064D01*
X125830000Y-101372936D02*
X125830000Y-101827064D01*
%TO.C,J2*%
X159340000Y-99130000D02*
X159340000Y-104070000D01*
X164090000Y-104070000D02*
X157740000Y-104070000D01*
X164090000Y-99130000D02*
X157740000Y-99130000D01*
X164090000Y-104070000D02*
X164090000Y-99130000D01*
X157740000Y-99130000D02*
X157740000Y-104070000D01*
%TO.C,D1*%
X126265000Y-103260000D02*
X126265000Y-100800000D01*
X127735000Y-103260000D02*
X126265000Y-103260000D01*
X127735000Y-100800000D02*
X127735000Y-103260000D01*
D10*
%TO.C,BT1*%
X172650000Y-112700000D02*
X130660000Y-112700000D01*
D14*
X172120000Y-124730000D02*
X173170000Y-124730000D01*
X174095000Y-124730000D02*
X175145000Y-124730000D01*
X172095000Y-123830000D02*
X173145000Y-123830000D01*
D10*
X130660000Y-122860000D02*
X172650000Y-122860000D01*
D14*
X174070000Y-123830000D02*
X175120000Y-123830000D01*
G36*
X173120000Y-123780000D02*
G01*
X174120000Y-123780000D01*
X174120000Y-124780000D01*
X173120000Y-124780000D01*
X173120000Y-123780000D01*
G37*
G36*
X175120000Y-123780000D02*
G01*
X176120000Y-123780000D01*
X176120000Y-124780000D01*
X175120000Y-124780000D01*
X175120000Y-123780000D01*
G37*
G36*
X171120000Y-123780000D02*
G01*
X172120000Y-123780000D01*
X172120000Y-124780000D01*
X171120000Y-124780000D01*
X171120000Y-123780000D01*
G37*
G36*
X168724000Y-122860000D02*
G01*
X167200000Y-122860000D01*
X167200000Y-112700000D01*
X168724000Y-112700000D01*
X168724000Y-122860000D01*
G37*
X168724000Y-122860000D02*
X167200000Y-122860000D01*
X167200000Y-112700000D01*
X168724000Y-112700000D01*
X168724000Y-122860000D01*
%TD*%
M02*
