%TF.GenerationSoftware,KiCad,Pcbnew,(6.0.6)*%
%TF.CreationDate,2023-07-05T10:52:05+02:00*%
%TF.ProjectId,ModuleBattery18650,4d6f6475-6c65-4426-9174-746572793138,rev?*%
%TF.SameCoordinates,Original*%
%TF.FileFunction,Copper,L1,Top*%
%TF.FilePolarity,Positive*%
%FSLAX46Y46*%
G04 Gerber Fmt 4.6, Leading zero omitted, Abs format (unit mm)*
G04 Created by KiCad (PCBNEW (6.0.6)) date 2023-07-05 10:52:05*
%MOMM*%
%LPD*%
G01*
G04 APERTURE LIST*
G04 Aperture macros list*
%AMRoundRect*
0 Rectangle with rounded corners*
0 $1 Rounding radius*
0 $2 $3 $4 $5 $6 $7 $8 $9 X,Y pos of 4 corners*
0 Add a 4 corners polygon primitive as box body*
4,1,4,$2,$3,$4,$5,$6,$7,$8,$9,$2,$3,0*
0 Add four circle primitives for the rounded corners*
1,1,$1+$1,$2,$3*
1,1,$1+$1,$4,$5*
1,1,$1+$1,$6,$7*
1,1,$1+$1,$8,$9*
0 Add four rect primitives between the rounded corners*
20,1,$1+$1,$2,$3,$4,$5,0*
20,1,$1+$1,$4,$5,$6,$7,0*
20,1,$1+$1,$6,$7,$8,$9,0*
20,1,$1+$1,$8,$9,$2,$3,0*%
%AMFreePoly0*
4,1,22,0.500000,-0.750000,0.000000,-0.750000,0.000000,-0.745033,-0.079941,-0.743568,-0.215256,-0.701293,-0.333266,-0.622738,-0.424486,-0.514219,-0.481581,-0.384460,-0.499164,-0.250000,-0.500000,-0.250000,-0.500000,0.250000,-0.499164,0.250000,-0.499963,0.256109,-0.478152,0.396186,-0.417904,0.524511,-0.324060,0.630769,-0.204165,0.706417,-0.067858,0.745374,0.000000,0.744959,0.000000,0.750000,
0.500000,0.750000,0.500000,-0.750000,0.500000,-0.750000,$1*%
%AMFreePoly1*
4,1,20,0.000000,0.744959,0.073905,0.744508,0.209726,0.703889,0.328688,0.626782,0.421226,0.519385,0.479903,0.390333,0.500000,0.250000,0.500000,-0.250000,0.499851,-0.262216,0.476331,-0.402017,0.414519,-0.529596,0.319384,-0.634700,0.198574,-0.708877,0.061801,-0.746166,0.000000,-0.745033,0.000000,-0.750000,-0.500000,-0.750000,-0.500000,0.750000,0.000000,0.750000,0.000000,0.744959,
0.000000,0.744959,$1*%
G04 Aperture macros list end*
%TA.AperFunction,SMDPad,CuDef*%
%ADD10RoundRect,0.237500X0.237500X-0.250000X0.237500X0.250000X-0.237500X0.250000X-0.237500X-0.250000X0*%
%TD*%
%TA.AperFunction,SMDPad,CuDef*%
%ADD11C,1.000000*%
%TD*%
%TA.AperFunction,SMDPad,CuDef*%
%ADD12R,1.425000X1.750000*%
%TD*%
%TA.AperFunction,SMDPad,CuDef*%
%ADD13RoundRect,0.101250X-0.648750X-0.101250X0.648750X-0.101250X0.648750X0.101250X-0.648750X0.101250X0*%
%TD*%
%TA.AperFunction,SMDPad,CuDef*%
%ADD14R,1.725000X2.235000*%
%TD*%
%TA.AperFunction,SMDPad,CuDef*%
%ADD15RoundRect,0.101250X-0.533750X-0.101250X0.533750X-0.101250X0.533750X0.101250X-0.533750X0.101250X0*%
%TD*%
%TA.AperFunction,SMDPad,CuDef*%
%ADD16RoundRect,0.237500X-0.250000X-0.237500X0.250000X-0.237500X0.250000X0.237500X-0.250000X0.237500X0*%
%TD*%
%TA.AperFunction,SMDPad,CuDef*%
%ADD17RoundRect,0.101250X0.648750X0.101250X-0.648750X0.101250X-0.648750X-0.101250X0.648750X-0.101250X0*%
%TD*%
%TA.AperFunction,SMDPad,CuDef*%
%ADD18RoundRect,0.101250X0.533750X0.101250X-0.533750X0.101250X-0.533750X-0.101250X0.533750X-0.101250X0*%
%TD*%
%TA.AperFunction,SMDPad,CuDef*%
%ADD19RoundRect,0.237500X0.250000X0.237500X-0.250000X0.237500X-0.250000X-0.237500X0.250000X-0.237500X0*%
%TD*%
%TA.AperFunction,SMDPad,CuDef*%
%ADD20FreePoly0,270.000000*%
%TD*%
%TA.AperFunction,SMDPad,CuDef*%
%ADD21FreePoly1,270.000000*%
%TD*%
%TA.AperFunction,SMDPad,CuDef*%
%ADD22RoundRect,0.101250X0.101250X-0.648750X0.101250X0.648750X-0.101250X0.648750X-0.101250X-0.648750X0*%
%TD*%
%TA.AperFunction,SMDPad,CuDef*%
%ADD23RoundRect,0.101250X0.101250X-0.533750X0.101250X0.533750X-0.101250X0.533750X-0.101250X-0.533750X0*%
%TD*%
%TA.AperFunction,SMDPad,CuDef*%
%ADD24R,2.235000X1.725000*%
%TD*%
%TA.AperFunction,SMDPad,CuDef*%
%ADD25RoundRect,0.250000X-0.337500X-0.475000X0.337500X-0.475000X0.337500X0.475000X-0.337500X0.475000X0*%
%TD*%
%TA.AperFunction,SMDPad,CuDef*%
%ADD26R,0.800000X1.900000*%
%TD*%
%TA.AperFunction,ComponentPad*%
%ADD27R,1.700000X1.700000*%
%TD*%
%TA.AperFunction,ComponentPad*%
%ADD28O,1.700000X1.700000*%
%TD*%
%TA.AperFunction,ComponentPad*%
%ADD29C,3.048000*%
%TD*%
%TA.AperFunction,ComponentPad*%
%ADD30O,8.048000X3.048000*%
%TD*%
%TA.AperFunction,ViaPad*%
%ADD31C,1.000000*%
%TD*%
%TA.AperFunction,ViaPad*%
%ADD32C,0.800000*%
%TD*%
%TA.AperFunction,Conductor*%
%ADD33C,1.200000*%
%TD*%
%TA.AperFunction,Conductor*%
%ADD34C,0.500000*%
%TD*%
%TA.AperFunction,Conductor*%
%ADD35C,0.250000*%
%TD*%
G04 APERTURE END LIST*
D10*
%TO.P,RS2,1*%
%TO.N,Net-(R2-Pad1)*%
X156134000Y-114628500D03*
%TO.P,RS2,2*%
%TO.N,Net-(RS2-Pad2)*%
X156134000Y-112803500D03*
%TD*%
D11*
%TO.P,TP6,1,1*%
%TO.N,Net-(R2-Pad2)*%
X150800000Y-123114000D03*
%TD*%
%TO.P,TP2,1,1*%
%TO.N,GND*%
X164660000Y-117780000D03*
%TD*%
D12*
%TO.P,F1,1*%
%TO.N,Net-(BT1-Pad1)*%
X134072500Y-117780000D03*
%TO.P,F1,2*%
%TO.N,Net-(C1-Pad1)*%
X137047500Y-117780000D03*
%TD*%
D13*
%TO.P,T2,1,S*%
%TO.N,Net-(C1-Pad1)*%
X141820000Y-116790000D03*
%TO.P,T2,2,S*%
X141820000Y-117450000D03*
%TO.P,T2,3,S*%
X141820000Y-118110000D03*
%TO.P,T2,4,G*%
%TO.N,Net-(D1-Pad1)*%
X141820000Y-118770000D03*
D14*
%TO.P,T2,5,D*%
%TO.N,Net-(R2-Pad1)*%
X144067500Y-117780000D03*
D15*
X145315000Y-116800000D03*
X145315000Y-118120000D03*
X145315000Y-118780000D03*
X145315000Y-117460000D03*
%TD*%
D11*
%TO.P,TP4,1,1*%
%TO.N,Net-(C1-Pad1)*%
X141910000Y-122225000D03*
%TD*%
D16*
%TO.P,RS1,1*%
%TO.N,Net-(C1-Pad1)*%
X142013500Y-120320000D03*
%TO.P,RS1,2*%
%TO.N,Net-(R2-Pad1)*%
X143838500Y-120320000D03*
%TD*%
D17*
%TO.P,T5,1,S*%
%TO.N,/Vbat*%
X163207500Y-114960000D03*
%TO.P,T5,2,S*%
X163207500Y-114300000D03*
%TO.P,T5,3,S*%
X163207500Y-113640000D03*
%TO.P,T5,4,G*%
%TO.N,GND*%
X163207500Y-112980000D03*
D18*
%TO.P,T5,5,D*%
%TO.N,Net-(RS2-Pad2)*%
X159712500Y-113630000D03*
X159712500Y-112970000D03*
D14*
X160960000Y-113970000D03*
D18*
X159712500Y-114290000D03*
X159712500Y-114950000D03*
%TD*%
D11*
%TO.P,TP1,1,1*%
%TO.N,/Vch*%
X133350000Y-102870000D03*
%TD*%
D19*
%TO.P,R3,1*%
%TO.N,Net-(R2-Pad1)*%
X158062500Y-116510000D03*
%TO.P,R3,2*%
%TO.N,Net-(R3-Pad2)*%
X156237500Y-116510000D03*
%TD*%
D11*
%TO.P,TP7,1,1*%
%TO.N,Net-(R3-Pad2)*%
X156235600Y-118440400D03*
%TD*%
D20*
%TO.P,JP1,1,A*%
%TO.N,/Vch*%
X130810000Y-104140000D03*
D21*
%TO.P,JP1,2,B*%
%TO.N,Net-(D1-Pad1)*%
X130810000Y-105440000D03*
%TD*%
D11*
%TO.P,TP5,1,1*%
%TO.N,Net-(R2-Pad1)*%
X147244000Y-114732000D03*
%TD*%
%TO.P,TP9,1,1*%
%TO.N,/Vbat*%
X164660000Y-111430000D03*
%TD*%
D22*
%TO.P,T1,1,S*%
%TO.N,Net-(C1-Pad1)*%
X132665000Y-111850000D03*
%TO.P,T1,2,S*%
X133325000Y-111850000D03*
%TO.P,T1,3,S*%
X133985000Y-111850000D03*
%TO.P,T1,4,G*%
%TO.N,GND*%
X134645000Y-111850000D03*
D23*
%TO.P,T1,5,D*%
%TO.N,Net-(D1-Pad1)*%
X134655000Y-108355000D03*
D24*
X133655000Y-109602500D03*
D23*
X133335000Y-108355000D03*
X133995000Y-108355000D03*
X132675000Y-108355000D03*
%TD*%
D11*
%TO.P,TP8,1,1*%
%TO.N,Net-(RS2-Pad2)*%
X158420000Y-111430000D03*
%TD*%
D25*
%TO.P,C1,1*%
%TO.N,Net-(C1-Pad1)*%
X137062500Y-115240000D03*
%TO.P,C1,2*%
%TO.N,GND*%
X139137500Y-115240000D03*
%TD*%
D26*
%TO.P,T3,1,G*%
%TO.N,Net-(R2-Pad2)*%
X152390000Y-121820000D03*
%TO.P,T3,2,S*%
%TO.N,GND*%
X154290000Y-121820000D03*
%TO.P,T3,3,D*%
%TO.N,Net-(R3-Pad2)*%
X153340000Y-118820000D03*
%TD*%
%TO.P,U1,1,~{RST}*%
%TO.N,Net-(R2-Pad2)*%
X149210000Y-118820000D03*
%TO.P,U1,2,VDD*%
%TO.N,Net-(R2-Pad1)*%
X147310000Y-118820000D03*
%TO.P,U1,3,VSS*%
%TO.N,GND*%
X148260000Y-121820000D03*
%TD*%
D16*
%TO.P,R2,1*%
%TO.N,Net-(R2-Pad1)*%
X147347500Y-116510000D03*
%TO.P,R2,2*%
%TO.N,Net-(R2-Pad2)*%
X149172500Y-116510000D03*
%TD*%
%TO.P,R1,1*%
%TO.N,Net-(D1-Pad1)*%
X142013500Y-115240000D03*
%TO.P,R1,2*%
%TO.N,GND*%
X143838500Y-115240000D03*
%TD*%
D17*
%TO.P,T4,1,S*%
%TO.N,Net-(R2-Pad1)*%
X153125000Y-114960000D03*
%TO.P,T4,2,S*%
X153125000Y-114300000D03*
%TO.P,T4,3,S*%
X153125000Y-113640000D03*
%TO.P,T4,4,G*%
%TO.N,Net-(R3-Pad2)*%
X153125000Y-112980000D03*
D14*
%TO.P,T4,5,D*%
%TO.N,Net-(RS2-Pad2)*%
X150877500Y-113970000D03*
D18*
X149630000Y-112970000D03*
X149630000Y-114290000D03*
X149630000Y-113630000D03*
X149630000Y-114950000D03*
%TD*%
D11*
%TO.P,TP3,1,1*%
%TO.N,Net-(D1-Pad1)*%
X130048000Y-108204000D03*
%TD*%
D27*
%TO.P,J1,1,P1*%
%TO.N,/Vch*%
X137160000Y-102870000D03*
D28*
%TO.P,J1,2,P2*%
%TO.N,GND*%
X137160000Y-100330000D03*
%TD*%
D27*
%TO.P,J2,1,P1*%
%TO.N,/Vbat*%
X160840000Y-100330000D03*
D28*
%TO.P,J2,2,P2*%
%TO.N,GND*%
X160840000Y-102870000D03*
%TD*%
D29*
%TO.P,BT1,1,+*%
%TO.N,Net-(BT1-Pad1)*%
X118500000Y-117780000D03*
X126120000Y-115240000D03*
X126120000Y-120320000D03*
D30*
%TO.P,BT1,2,-*%
%TO.N,GND*%
X173620000Y-120320000D03*
X173620000Y-115240000D03*
X181240000Y-117780000D03*
%TD*%
D31*
%TO.N,GND*%
X135305800Y-113436400D03*
X164660000Y-119050000D03*
X164922200Y-113004600D03*
X146118000Y-120828000D03*
X156278000Y-120574000D03*
X139137500Y-112721500D03*
X143688000Y-112700000D03*
D32*
%TO.N,Net-(D1-Pad1)*%
X140665200Y-115265200D03*
X140106400Y-119151400D03*
X127000000Y-103886000D03*
%TO.N,Net-(R3-Pad2)*%
X154940000Y-112776000D03*
X154940000Y-117094000D03*
D31*
%TO.N,Net-(R2-Pad1)*%
X153162000Y-116586000D03*
X146050000Y-115570000D03*
%TD*%
D33*
%TO.N,Net-(BT1-Pad1)*%
X134072500Y-119267500D02*
X134072500Y-117780000D01*
X133020000Y-120320000D02*
X134072500Y-119267500D01*
X126120000Y-120320000D02*
X133020000Y-120320000D01*
%TO.N,GND*%
X164660000Y-117780000D02*
X164660000Y-119050000D01*
X139137500Y-115240000D02*
X139137500Y-112721500D01*
D34*
X134645000Y-111850000D02*
X134645000Y-112775600D01*
D33*
X143838500Y-112850500D02*
X143688000Y-112700000D01*
X155032000Y-121820000D02*
X156278000Y-120574000D01*
D34*
X163207500Y-112980000D02*
X164897600Y-112980000D01*
D33*
X143838500Y-115240000D02*
X143838500Y-112850500D01*
D34*
X134645000Y-112775600D02*
X135305800Y-113436400D01*
D33*
X154290000Y-121820000D02*
X155032000Y-121820000D01*
X147110000Y-121820000D02*
X146118000Y-120828000D01*
X148260000Y-121820000D02*
X147110000Y-121820000D01*
D34*
X164897600Y-112980000D02*
X164922200Y-113004600D01*
%TO.N,Net-(C1-Pad1)*%
X141910000Y-122225000D02*
X141910000Y-120423500D01*
X140055600Y-118110000D02*
X139141200Y-118110000D01*
X137047500Y-115255000D02*
X137062500Y-115240000D01*
X140132000Y-120320000D02*
X142013500Y-120320000D01*
X137846000Y-120320000D02*
X140132000Y-120320000D01*
X137062500Y-115240000D02*
X135154000Y-115240000D01*
X139801200Y-116790000D02*
X138811200Y-117780000D01*
X133325000Y-111850000D02*
X133325000Y-113411000D01*
X133985000Y-111850000D02*
X133985000Y-114071000D01*
X133985000Y-114071000D02*
X134163000Y-114249000D01*
X138811200Y-117780000D02*
X137047500Y-117780000D01*
X141910000Y-120423500D02*
X142013500Y-120320000D01*
X140715600Y-117450000D02*
X140055600Y-118110000D01*
X141820000Y-117450000D02*
X140715600Y-117450000D01*
X132665000Y-112751000D02*
X133985000Y-114071000D01*
X141820000Y-116790000D02*
X139801200Y-116790000D01*
X141820000Y-118110000D02*
X140055600Y-118110000D01*
X137047500Y-119521500D02*
X137846000Y-120320000D01*
X137047500Y-117780000D02*
X137047500Y-119521500D01*
X139141200Y-118110000D02*
X138811200Y-117780000D01*
X135154000Y-115240000D02*
X134163000Y-114249000D01*
X137047500Y-117780000D02*
X137047500Y-115255000D01*
X133325000Y-113411000D02*
X133985000Y-114071000D01*
X132665000Y-111850000D02*
X132665000Y-112751000D01*
%TO.N,/Vch*%
X133350000Y-102870000D02*
X137160000Y-102870000D01*
X130810000Y-104140000D02*
X130810000Y-103378000D01*
X131318000Y-102870000D02*
X133350000Y-102870000D01*
X130810000Y-103378000D02*
X131318000Y-102870000D01*
%TO.N,Net-(D1-Pad1)*%
X132675000Y-106837000D02*
X132553000Y-106715000D01*
D35*
X140665200Y-115265200D02*
X141988300Y-115265200D01*
D34*
X130810000Y-107442000D02*
X130048000Y-108204000D01*
D35*
X140487800Y-118770000D02*
X140106400Y-119151400D01*
D34*
X133655000Y-109602500D02*
X138812500Y-109602500D01*
D35*
X141820000Y-118770000D02*
X140487800Y-118770000D01*
D34*
X133893000Y-106715000D02*
X133315000Y-106715000D01*
X133995000Y-106817000D02*
X133893000Y-106715000D01*
X134655000Y-106715000D02*
X133893000Y-106715000D01*
X130810000Y-106680000D02*
X130810000Y-107442000D01*
X132553000Y-106715000D02*
X130845000Y-106715000D01*
X133335000Y-108355000D02*
X133335000Y-106735000D01*
X133995000Y-108355000D02*
X133995000Y-106817000D01*
D35*
X127538000Y-105440000D02*
X130810000Y-105440000D01*
D34*
X142013500Y-112803500D02*
X142013500Y-115240000D01*
X130810000Y-105440000D02*
X130810000Y-106680000D01*
X130845000Y-106715000D02*
X130810000Y-106680000D01*
X132675000Y-108355000D02*
X132675000Y-106837000D01*
D35*
X127000000Y-103886000D02*
X127000000Y-104902000D01*
X141988300Y-115265200D02*
X142013500Y-115240000D01*
D34*
X133315000Y-106715000D02*
X132553000Y-106715000D01*
X138812500Y-109602500D02*
X142013500Y-112803500D01*
X134655000Y-108355000D02*
X134655000Y-106715000D01*
D35*
X127000000Y-104902000D02*
X127538000Y-105440000D01*
D34*
X133335000Y-106735000D02*
X133315000Y-106715000D01*
%TO.N,/Vbat*%
X165801700Y-112571700D02*
X164660000Y-111430000D01*
X162952500Y-114960000D02*
X164288000Y-114960000D01*
X163195000Y-100330000D02*
X160840000Y-100330000D01*
X164288000Y-113640000D02*
X164948000Y-114300000D01*
X165801700Y-113446300D02*
X165801700Y-112571700D01*
X164660000Y-101795000D02*
X163195000Y-100330000D01*
X162952500Y-114300000D02*
X164948000Y-114300000D01*
X162952500Y-113640000D02*
X164288000Y-113640000D01*
X164948000Y-114300000D02*
X165801700Y-113446300D01*
X164288000Y-114960000D02*
X164948000Y-114300000D01*
X164660000Y-111430000D02*
X164660000Y-101795000D01*
D35*
%TO.N,Net-(R3-Pad2)*%
X153340000Y-117780000D02*
X153340000Y-118820000D01*
X155016000Y-116510000D02*
X154940000Y-116586000D01*
X154736000Y-112980000D02*
X154940000Y-112776000D01*
X153125000Y-112980000D02*
X154736000Y-112980000D01*
X154940000Y-116586000D02*
X154940000Y-117094000D01*
X155118000Y-116510000D02*
X155016000Y-116510000D01*
X156235600Y-116511900D02*
X156237500Y-116510000D01*
X156235600Y-118440400D02*
X156235600Y-116511900D01*
X155016000Y-116510000D02*
X154610000Y-116510000D01*
X156237500Y-116510000D02*
X155295800Y-116510000D01*
X154610000Y-116510000D02*
X153340000Y-117780000D01*
X155295800Y-116510000D02*
X155118000Y-116510000D01*
D34*
%TO.N,Net-(RS2-Pad2)*%
X158242000Y-113538000D02*
X158242000Y-113030000D01*
X148005754Y-112979246D02*
X148005754Y-112344246D01*
X155090500Y-111760000D02*
X156134000Y-112803500D01*
X159712500Y-112970000D02*
X158302000Y-112970000D01*
X158242000Y-113030000D02*
X158242000Y-112776000D01*
X148590000Y-111760000D02*
X155090500Y-111760000D01*
X158242000Y-111608000D02*
X158420000Y-111430000D01*
X149630000Y-113630000D02*
X148021508Y-113630000D01*
X148021508Y-113630000D02*
X148005754Y-113614246D01*
X148015000Y-112970000D02*
X148005754Y-112979246D01*
X148706508Y-114950000D02*
X148005754Y-114249246D01*
X149630000Y-114290000D02*
X148046508Y-114290000D01*
X159712500Y-114290000D02*
X158252000Y-114290000D01*
X158302000Y-112970000D02*
X158242000Y-113030000D01*
X159712500Y-113630000D02*
X158334000Y-113630000D01*
X148046508Y-114290000D02*
X148005754Y-114249246D01*
X148005754Y-114249246D02*
X148005754Y-113614246D01*
X158242000Y-114300000D02*
X158242000Y-113538000D01*
X156134000Y-112803500D02*
X158214500Y-112803500D01*
X159712500Y-114950000D02*
X158892000Y-114950000D01*
X148005754Y-112344246D02*
X148590000Y-111760000D01*
X148005754Y-113614246D02*
X148005754Y-112979246D01*
X158892000Y-114950000D02*
X158242000Y-114300000D01*
X158334000Y-113630000D02*
X158242000Y-113538000D01*
X158252000Y-114290000D02*
X158242000Y-114300000D01*
X158214500Y-112803500D02*
X158242000Y-112776000D01*
X158242000Y-112776000D02*
X158242000Y-111608000D01*
X149630000Y-114950000D02*
X148706508Y-114950000D01*
X149630000Y-112970000D02*
X148015000Y-112970000D01*
%TO.N,Net-(R2-Pad1)*%
X147270000Y-118780000D02*
X147310000Y-118820000D01*
X144926000Y-120320000D02*
X146466000Y-118780000D01*
X145315000Y-116800000D02*
X147057500Y-116800000D01*
X158062500Y-115136500D02*
X158062500Y-116510000D01*
X153125000Y-114960000D02*
X154534000Y-114960000D01*
X143838500Y-120320000D02*
X144926000Y-120320000D01*
X154534000Y-114960000D02*
X154686000Y-114808000D01*
X153162000Y-114997000D02*
X153125000Y-114960000D01*
X156134000Y-114628500D02*
X157554500Y-114628500D01*
X145315000Y-117460000D02*
X147188000Y-117460000D01*
X157554500Y-114628500D02*
X158062500Y-115136500D01*
X145315000Y-118780000D02*
X147270000Y-118780000D01*
X153125000Y-113640000D02*
X154280000Y-113640000D01*
X154686000Y-114554000D02*
X154686000Y-114808000D01*
X146466000Y-118780000D02*
X147270000Y-118780000D01*
X153125000Y-114300000D02*
X154432000Y-114300000D01*
X147347500Y-116510000D02*
X147347500Y-115542500D01*
X147310000Y-116547500D02*
X147347500Y-116510000D01*
X154432000Y-114300000D02*
X154686000Y-114046000D01*
X145315000Y-118120000D02*
X146610000Y-118120000D01*
X147188000Y-117460000D02*
X147310000Y-117338000D01*
X154280000Y-113640000D02*
X154686000Y-114046000D01*
X156134000Y-114628500D02*
X154760500Y-114628500D01*
X147310000Y-117338000D02*
X147310000Y-116547500D01*
X147057500Y-116800000D02*
X147347500Y-116510000D01*
X147347500Y-115542500D02*
X147347500Y-114835500D01*
X146077500Y-115542500D02*
X146050000Y-115570000D01*
X154760500Y-114628500D02*
X154686000Y-114554000D01*
X146610000Y-118120000D02*
X147310000Y-118820000D01*
X147310000Y-118820000D02*
X147310000Y-117338000D01*
X153162000Y-116586000D02*
X153162000Y-114997000D01*
X154686000Y-114046000D02*
X154686000Y-114554000D01*
X147347500Y-114835500D02*
X147244000Y-114732000D01*
X147347500Y-115542500D02*
X146077500Y-115542500D01*
D35*
%TO.N,Net-(R2-Pad2)*%
X150800000Y-119304000D02*
X150800000Y-121844000D01*
X150824000Y-121820000D02*
X150800000Y-121844000D01*
X149210000Y-118820000D02*
X150316000Y-118820000D01*
X152390000Y-121820000D02*
X150824000Y-121820000D01*
X149172500Y-116510000D02*
X149172500Y-118782500D01*
X150316000Y-118820000D02*
X150800000Y-119304000D01*
X150800000Y-123114000D02*
X150800000Y-121844000D01*
X149172500Y-118782500D02*
X149210000Y-118820000D01*
%TD*%
%TA.AperFunction,Conductor*%
%TO.N,GND*%
G36*
X191771621Y-96190502D02*
G01*
X191818114Y-96244158D01*
X191829500Y-96296500D01*
X191829500Y-125703500D01*
X191809498Y-125771621D01*
X191755842Y-125818114D01*
X191703500Y-125829500D01*
X109296500Y-125829500D01*
X109228379Y-125809498D01*
X109181886Y-125755842D01*
X109170500Y-125703500D01*
X109170500Y-120275519D01*
X124421331Y-120275519D01*
X124433415Y-120527087D01*
X124445852Y-120589612D01*
X124481266Y-120767649D01*
X124482550Y-120774105D01*
X124484129Y-120778503D01*
X124484131Y-120778510D01*
X124543972Y-120945181D01*
X124567657Y-121011148D01*
X124569874Y-121015274D01*
X124678135Y-121216757D01*
X124686866Y-121233007D01*
X124689661Y-121236750D01*
X124689663Y-121236753D01*
X124834767Y-121431071D01*
X124834772Y-121431077D01*
X124837559Y-121434809D01*
X124840868Y-121438089D01*
X124840873Y-121438095D01*
X124981349Y-121577350D01*
X125016425Y-121612121D01*
X125020187Y-121614879D01*
X125020190Y-121614882D01*
X125153789Y-121712841D01*
X125219534Y-121761047D01*
X125223665Y-121763221D01*
X125223666Y-121763221D01*
X125438290Y-121876140D01*
X125438296Y-121876142D01*
X125442425Y-121878315D01*
X125446832Y-121879854D01*
X125446839Y-121879857D01*
X125675785Y-121959808D01*
X125680201Y-121961350D01*
X125684794Y-121962222D01*
X125837988Y-121991307D01*
X125927639Y-122008328D01*
X126047341Y-122013031D01*
X126174635Y-122018033D01*
X126174640Y-122018033D01*
X126179303Y-122018216D01*
X126277543Y-122007457D01*
X126425011Y-121991307D01*
X126425016Y-121991306D01*
X126429664Y-121990797D01*
X126434188Y-121989606D01*
X126668699Y-121927864D01*
X126668701Y-121927863D01*
X126673222Y-121926673D01*
X126721743Y-121905827D01*
X126900333Y-121829099D01*
X126900335Y-121829098D01*
X126904627Y-121827254D01*
X127008103Y-121763221D01*
X127114822Y-121697182D01*
X127114826Y-121697179D01*
X127118795Y-121694723D01*
X127272823Y-121564329D01*
X127307454Y-121535012D01*
X127307456Y-121535010D01*
X127311021Y-121531992D01*
X127477082Y-121342635D01*
X127482296Y-121334530D01*
X127602059Y-121148337D01*
X127655733Y-121101866D01*
X127708030Y-121090500D01*
X133011185Y-121090500D01*
X133012505Y-121090507D01*
X133098357Y-121091406D01*
X133105240Y-121089918D01*
X133138452Y-121082738D01*
X133151029Y-121080679D01*
X133184782Y-121076892D01*
X133184787Y-121076891D01*
X133191783Y-121076106D01*
X133198427Y-121073792D01*
X133198433Y-121073791D01*
X133221619Y-121065717D01*
X133236424Y-121061555D01*
X133240634Y-121060644D01*
X133267313Y-121054876D01*
X133273695Y-121051900D01*
X133273701Y-121051898D01*
X133304496Y-121037538D01*
X133316307Y-121032742D01*
X133355028Y-121019258D01*
X133375063Y-121006739D01*
X133381819Y-121002517D01*
X133395334Y-120995179D01*
X133423978Y-120981822D01*
X133456388Y-120956682D01*
X133466844Y-120949388D01*
X133478668Y-120941999D01*
X133501622Y-120927656D01*
X133529084Y-120900385D01*
X133529665Y-120899842D01*
X133530309Y-120899342D01*
X133555198Y-120874453D01*
X133624279Y-120805853D01*
X133624909Y-120804859D01*
X133625940Y-120803711D01*
X134611020Y-119818632D01*
X134611957Y-119817703D01*
X134668342Y-119762487D01*
X134668343Y-119762486D01*
X134673373Y-119757560D01*
X134695594Y-119723079D01*
X134703026Y-119712738D01*
X134724222Y-119686185D01*
X134724223Y-119686183D01*
X134728617Y-119680679D01*
X134742367Y-119652236D01*
X134749896Y-119638819D01*
X134762044Y-119619969D01*
X134767013Y-119612259D01*
X134781044Y-119573709D01*
X134786006Y-119561963D01*
X134800784Y-119531394D01*
X134800785Y-119531392D01*
X134803851Y-119525049D01*
X134810958Y-119494264D01*
X134815328Y-119479512D01*
X134819332Y-119468511D01*
X134826134Y-119449823D01*
X134831275Y-119409126D01*
X134833509Y-119396585D01*
X134842736Y-119356619D01*
X134842767Y-119347915D01*
X134842871Y-119317938D01*
X134842898Y-119317118D01*
X134843000Y-119316314D01*
X134843000Y-119281065D01*
X134843340Y-119183760D01*
X134843083Y-119182609D01*
X134843000Y-119181080D01*
X134843000Y-118888652D01*
X134863002Y-118820531D01*
X134889150Y-118793912D01*
X134888831Y-118793593D01*
X134897610Y-118784814D01*
X134907923Y-118777923D01*
X134945607Y-118721526D01*
X134955500Y-118671791D01*
X134955499Y-116888210D01*
X134945607Y-116838474D01*
X134937355Y-116826123D01*
X134914814Y-116792390D01*
X134907923Y-116782077D01*
X134851526Y-116744393D01*
X134801791Y-116734500D01*
X134072618Y-116734500D01*
X133343210Y-116734501D01*
X133293474Y-116744393D01*
X133283158Y-116751286D01*
X133283156Y-116751287D01*
X133252026Y-116772088D01*
X133237077Y-116782077D01*
X133199393Y-116838474D01*
X133189500Y-116888209D01*
X133189501Y-118671790D01*
X133199393Y-118721526D01*
X133206286Y-118731842D01*
X133206287Y-118731844D01*
X133216111Y-118746546D01*
X133237077Y-118777923D01*
X133247390Y-118784814D01*
X133256169Y-118793593D01*
X133255049Y-118794713D01*
X133291529Y-118838362D01*
X133302000Y-118888652D01*
X133302000Y-118896157D01*
X133281998Y-118964278D01*
X133265096Y-118985252D01*
X132737754Y-119512595D01*
X132675441Y-119546620D01*
X132648658Y-119549500D01*
X127704568Y-119549500D01*
X127636447Y-119529498D01*
X127595175Y-119486023D01*
X127570489Y-119442832D01*
X127528743Y-119369791D01*
X127372819Y-119172003D01*
X127270652Y-119075894D01*
X127192774Y-119002633D01*
X127192771Y-119002631D01*
X127189373Y-118999434D01*
X127120785Y-118951853D01*
X126986267Y-118858534D01*
X126986264Y-118858532D01*
X126982435Y-118855876D01*
X126978258Y-118853816D01*
X126978251Y-118853812D01*
X126760737Y-118746546D01*
X126760733Y-118746545D01*
X126756551Y-118744482D01*
X126516682Y-118667699D01*
X126358785Y-118641984D01*
X126272711Y-118627966D01*
X126272710Y-118627966D01*
X126268099Y-118627215D01*
X126138638Y-118625520D01*
X126020939Y-118623979D01*
X126020936Y-118623979D01*
X126016263Y-118623918D01*
X125883520Y-118641984D01*
X125771340Y-118657251D01*
X125771336Y-118657252D01*
X125766706Y-118657882D01*
X125524910Y-118728359D01*
X125520657Y-118730319D01*
X125520656Y-118730320D01*
X125489867Y-118744514D01*
X125296187Y-118833802D01*
X125250602Y-118863689D01*
X125089475Y-118969328D01*
X125089470Y-118969332D01*
X125085562Y-118971894D01*
X125031190Y-119020423D01*
X124902254Y-119135502D01*
X124897661Y-119139601D01*
X124736613Y-119333240D01*
X124702477Y-119389495D01*
X124617521Y-119529498D01*
X124605956Y-119548556D01*
X124508560Y-119780820D01*
X124446564Y-120024928D01*
X124446096Y-120029579D01*
X124446095Y-120029583D01*
X124442428Y-120066000D01*
X124421331Y-120275519D01*
X109170500Y-120275519D01*
X109170500Y-117735519D01*
X116801331Y-117735519D01*
X116801555Y-117740184D01*
X116801555Y-117740190D01*
X116805180Y-117815645D01*
X116813415Y-117987087D01*
X116826330Y-118052015D01*
X116855866Y-118200500D01*
X116862550Y-118234105D01*
X116864129Y-118238503D01*
X116864131Y-118238510D01*
X116908174Y-118361178D01*
X116947657Y-118471148D01*
X116949874Y-118475274D01*
X117058135Y-118676757D01*
X117066866Y-118693007D01*
X117069661Y-118696750D01*
X117069663Y-118696753D01*
X117214767Y-118891071D01*
X117214772Y-118891077D01*
X117217559Y-118894809D01*
X117220868Y-118898089D01*
X117220873Y-118898095D01*
X117392267Y-119067999D01*
X117396425Y-119072121D01*
X117400187Y-119074879D01*
X117400190Y-119074882D01*
X117571511Y-119200500D01*
X117599534Y-119221047D01*
X117603665Y-119223221D01*
X117603666Y-119223221D01*
X117818290Y-119336140D01*
X117818296Y-119336142D01*
X117822425Y-119338315D01*
X117826832Y-119339854D01*
X117826839Y-119339857D01*
X118055785Y-119419808D01*
X118060201Y-119421350D01*
X118064794Y-119422222D01*
X118236939Y-119454905D01*
X118307639Y-119468328D01*
X118427341Y-119473031D01*
X118554635Y-119478033D01*
X118554640Y-119478033D01*
X118559303Y-119478216D01*
X118657543Y-119467457D01*
X118805011Y-119451307D01*
X118805016Y-119451306D01*
X118809664Y-119450797D01*
X118839917Y-119442832D01*
X119048699Y-119387864D01*
X119048701Y-119387863D01*
X119053222Y-119386673D01*
X119123175Y-119356619D01*
X119280333Y-119289099D01*
X119280335Y-119289098D01*
X119284627Y-119287254D01*
X119389981Y-119222059D01*
X119494822Y-119157182D01*
X119494826Y-119157179D01*
X119498795Y-119154723D01*
X119531268Y-119127233D01*
X119687454Y-118995012D01*
X119687456Y-118995010D01*
X119691021Y-118991992D01*
X119857082Y-118802635D01*
X119872978Y-118777923D01*
X119990803Y-118594743D01*
X119993331Y-118590813D01*
X120096774Y-118361178D01*
X120101010Y-118346160D01*
X120138878Y-118211886D01*
X120165138Y-118118776D01*
X120193937Y-117892399D01*
X120196524Y-117872062D01*
X120196524Y-117872058D01*
X120196922Y-117868932D01*
X120197950Y-117829700D01*
X120198317Y-117815647D01*
X120199251Y-117780000D01*
X120196292Y-117740184D01*
X120180932Y-117533487D01*
X120180931Y-117533483D01*
X120180586Y-117528835D01*
X120125002Y-117283187D01*
X120123309Y-117278833D01*
X120035412Y-117052807D01*
X120035411Y-117052805D01*
X120033719Y-117048454D01*
X120024572Y-117032449D01*
X119959168Y-116918016D01*
X119908743Y-116829791D01*
X119752819Y-116632003D01*
X119654567Y-116539577D01*
X119572774Y-116462633D01*
X119572771Y-116462631D01*
X119569373Y-116459434D01*
X119525975Y-116429328D01*
X119366267Y-116318534D01*
X119366264Y-116318532D01*
X119362435Y-116315876D01*
X119358258Y-116313816D01*
X119358251Y-116313812D01*
X119140737Y-116206546D01*
X119140733Y-116206545D01*
X119136551Y-116204482D01*
X118896682Y-116127699D01*
X118730710Y-116100669D01*
X118652711Y-116087966D01*
X118652710Y-116087966D01*
X118648099Y-116087215D01*
X118518638Y-116085520D01*
X118400939Y-116083979D01*
X118400936Y-116083979D01*
X118396263Y-116083918D01*
X118273182Y-116100669D01*
X118151340Y-116117251D01*
X118151336Y-116117252D01*
X118146706Y-116117882D01*
X117904910Y-116188359D01*
X117900657Y-116190319D01*
X117900656Y-116190320D01*
X117869062Y-116204885D01*
X117676187Y-116293802D01*
X117634034Y-116321439D01*
X117469475Y-116429328D01*
X117469470Y-116429332D01*
X117465562Y-116431894D01*
X117379410Y-116508787D01*
X117281725Y-116595974D01*
X117277661Y-116599601D01*
X117116613Y-116793240D01*
X117081779Y-116850645D01*
X117034529Y-116928511D01*
X116985956Y-117008556D01*
X116888560Y-117240820D01*
X116826564Y-117484928D01*
X116826096Y-117489579D01*
X116826095Y-117489583D01*
X116821154Y-117538658D01*
X116801331Y-117735519D01*
X109170500Y-117735519D01*
X109170500Y-115195519D01*
X124421331Y-115195519D01*
X124421555Y-115200185D01*
X124421555Y-115200190D01*
X124426082Y-115294433D01*
X124433415Y-115447087D01*
X124448677Y-115523815D01*
X124476867Y-115665533D01*
X124482550Y-115694105D01*
X124484129Y-115698503D01*
X124484131Y-115698510D01*
X124548431Y-115877600D01*
X124567657Y-115931148D01*
X124576643Y-115947871D01*
X124682483Y-116144849D01*
X124686866Y-116153007D01*
X124689661Y-116156750D01*
X124689663Y-116156753D01*
X124834767Y-116351071D01*
X124834772Y-116351077D01*
X124837559Y-116354809D01*
X124840868Y-116358089D01*
X124840873Y-116358095D01*
X124983490Y-116499472D01*
X125016425Y-116532121D01*
X125020187Y-116534879D01*
X125020190Y-116534882D01*
X125179777Y-116651896D01*
X125219534Y-116681047D01*
X125223665Y-116683221D01*
X125223666Y-116683221D01*
X125438290Y-116796140D01*
X125438296Y-116796142D01*
X125442425Y-116798315D01*
X125446832Y-116799854D01*
X125446839Y-116799857D01*
X125675785Y-116879808D01*
X125680201Y-116881350D01*
X125684794Y-116882222D01*
X125873325Y-116918016D01*
X125927639Y-116928328D01*
X126047341Y-116933031D01*
X126174635Y-116938033D01*
X126174640Y-116938033D01*
X126179303Y-116938216D01*
X126277543Y-116927457D01*
X126425011Y-116911307D01*
X126425016Y-116911306D01*
X126429664Y-116910797D01*
X126474677Y-116898946D01*
X126668699Y-116847864D01*
X126668701Y-116847863D01*
X126673222Y-116846673D01*
X126712516Y-116829791D01*
X126900333Y-116749099D01*
X126900335Y-116749098D01*
X126904627Y-116747254D01*
X127008103Y-116683221D01*
X127114822Y-116617182D01*
X127114826Y-116617179D01*
X127118795Y-116614723D01*
X127250597Y-116503145D01*
X127307454Y-116455012D01*
X127307456Y-116455010D01*
X127311021Y-116451992D01*
X127477082Y-116262635D01*
X127482296Y-116254530D01*
X127610803Y-116054743D01*
X127613331Y-116050813D01*
X127716774Y-115821178D01*
X127785138Y-115578776D01*
X127811733Y-115369725D01*
X127816524Y-115332062D01*
X127816524Y-115332058D01*
X127816922Y-115328932D01*
X127817078Y-115323000D01*
X127818389Y-115272919D01*
X127819251Y-115240000D01*
X127816287Y-115200110D01*
X127800932Y-114993487D01*
X127800931Y-114993483D01*
X127800586Y-114988835D01*
X127745002Y-114743187D01*
X127737728Y-114724481D01*
X127655412Y-114512807D01*
X127655411Y-114512805D01*
X127653719Y-114508454D01*
X127630916Y-114468556D01*
X127595511Y-114406611D01*
X127528743Y-114289791D01*
X127372819Y-114092003D01*
X127264529Y-113990134D01*
X127192774Y-113922633D01*
X127192771Y-113922631D01*
X127189373Y-113919434D01*
X127133212Y-113880474D01*
X126986267Y-113778534D01*
X126986264Y-113778532D01*
X126982435Y-113775876D01*
X126978258Y-113773816D01*
X126978251Y-113773812D01*
X126760737Y-113666546D01*
X126760733Y-113666545D01*
X126756551Y-113664482D01*
X126516682Y-113587699D01*
X126348033Y-113560233D01*
X126272711Y-113547966D01*
X126272710Y-113547966D01*
X126268099Y-113547215D01*
X126138638Y-113545520D01*
X126020939Y-113543979D01*
X126020936Y-113543979D01*
X126016263Y-113543918D01*
X125870723Y-113563726D01*
X125771340Y-113577251D01*
X125771336Y-113577252D01*
X125766706Y-113577882D01*
X125524910Y-113648359D01*
X125520657Y-113650319D01*
X125520656Y-113650320D01*
X125485459Y-113666546D01*
X125296187Y-113753802D01*
X125257641Y-113779074D01*
X125089475Y-113889328D01*
X125089470Y-113889332D01*
X125085562Y-113891894D01*
X125038691Y-113933728D01*
X124906936Y-114051323D01*
X124897661Y-114059601D01*
X124736613Y-114253240D01*
X124680765Y-114345275D01*
X124617566Y-114449424D01*
X124605956Y-114468556D01*
X124508560Y-114700820D01*
X124446564Y-114944928D01*
X124446096Y-114949579D01*
X124446095Y-114949583D01*
X124439470Y-115015375D01*
X124421331Y-115195519D01*
X109170500Y-115195519D01*
X109170500Y-103886000D01*
X126424577Y-103886000D01*
X126444184Y-104034930D01*
X126501669Y-104173711D01*
X126593114Y-104292886D01*
X126599664Y-104297912D01*
X126599665Y-104297913D01*
X126655204Y-104340529D01*
X126697071Y-104397867D01*
X126704500Y-104440492D01*
X126704500Y-104850588D01*
X126704315Y-104853108D01*
X126702606Y-104858085D01*
X126703042Y-104869707D01*
X126703042Y-104869709D01*
X126704411Y-104906162D01*
X126704500Y-104910889D01*
X126704500Y-104929486D01*
X126705372Y-104934168D01*
X126705587Y-104937494D01*
X126706736Y-104968090D01*
X126711328Y-104978778D01*
X126712491Y-104983940D01*
X126715501Y-104993845D01*
X126717405Y-104998781D01*
X126719536Y-105010222D01*
X126732177Y-105030729D01*
X126740684Y-105047107D01*
X126750190Y-105069233D01*
X126754132Y-105074032D01*
X126756315Y-105076215D01*
X126758372Y-105078483D01*
X126758186Y-105078652D01*
X126764537Y-105086685D01*
X126771195Y-105094028D01*
X126777300Y-105103932D01*
X126786558Y-105110972D01*
X126786560Y-105110974D01*
X126798610Y-105120137D01*
X126811439Y-105131339D01*
X127292689Y-105612589D01*
X127294347Y-105614510D01*
X127296658Y-105619237D01*
X127305186Y-105627147D01*
X127305189Y-105627152D01*
X127331961Y-105651986D01*
X127335366Y-105655266D01*
X127348486Y-105668386D01*
X127352408Y-105671077D01*
X127354911Y-105673275D01*
X127368831Y-105686188D01*
X127368836Y-105686191D01*
X127377364Y-105694102D01*
X127388172Y-105698414D01*
X127392654Y-105701247D01*
X127401786Y-105706123D01*
X127406616Y-105708263D01*
X127416207Y-105714843D01*
X127439650Y-105720406D01*
X127457232Y-105725966D01*
X127479609Y-105734894D01*
X127485790Y-105735500D01*
X127488871Y-105735500D01*
X127491942Y-105735650D01*
X127491930Y-105735900D01*
X127502094Y-105737090D01*
X127511996Y-105737574D01*
X127523315Y-105740260D01*
X127534844Y-105738691D01*
X127549834Y-105736651D01*
X127566825Y-105735500D01*
X129880178Y-105735500D01*
X129948299Y-105755502D01*
X129987553Y-105795572D01*
X130020850Y-105849802D01*
X130020856Y-105849810D01*
X130023200Y-105853628D01*
X130026063Y-105857076D01*
X130026064Y-105857078D01*
X130030859Y-105862853D01*
X130054684Y-105891551D01*
X130160868Y-105987665D01*
X130164584Y-105990172D01*
X130164586Y-105990173D01*
X130198013Y-106012720D01*
X130198018Y-106012723D01*
X130201732Y-106015228D01*
X130205769Y-106017184D01*
X130205771Y-106017185D01*
X130318438Y-106071771D01*
X130371021Y-106119473D01*
X130389500Y-106185163D01*
X130389500Y-106613396D01*
X130389499Y-106613399D01*
X130389499Y-106746595D01*
X130389500Y-106746607D01*
X130389500Y-107215633D01*
X130369498Y-107283754D01*
X130352595Y-107304728D01*
X130160648Y-107496675D01*
X130098336Y-107530701D01*
X130070896Y-107533578D01*
X129970369Y-107533051D01*
X129962989Y-107534823D01*
X129962987Y-107534823D01*
X129819945Y-107569164D01*
X129819941Y-107569165D01*
X129812566Y-107570936D01*
X129805821Y-107574417D01*
X129805822Y-107574417D01*
X129706165Y-107625854D01*
X129668355Y-107645369D01*
X129662633Y-107650361D01*
X129662631Y-107650362D01*
X129551788Y-107747056D01*
X129546061Y-107752052D01*
X129452746Y-107884827D01*
X129393795Y-108036029D01*
X129372612Y-108196927D01*
X129390420Y-108358234D01*
X129403139Y-108392989D01*
X129443580Y-108503501D01*
X129443582Y-108503505D01*
X129446192Y-108510637D01*
X129450429Y-108516943D01*
X129450431Y-108516946D01*
X129472091Y-108549179D01*
X129536707Y-108645337D01*
X129542325Y-108650449D01*
X129651118Y-108749444D01*
X129651122Y-108749447D01*
X129656739Y-108754558D01*
X129663412Y-108758181D01*
X129663416Y-108758184D01*
X129792686Y-108828371D01*
X129799359Y-108831994D01*
X129956334Y-108873176D01*
X130042250Y-108874526D01*
X130111004Y-108875606D01*
X130111007Y-108875606D01*
X130118601Y-108875725D01*
X130174392Y-108862947D01*
X130269389Y-108841190D01*
X130269393Y-108841189D01*
X130276792Y-108839494D01*
X130421774Y-108766576D01*
X130448060Y-108744126D01*
X130539404Y-108666111D01*
X130539406Y-108666108D01*
X130545178Y-108661179D01*
X130639879Y-108529388D01*
X130661032Y-108476769D01*
X130697577Y-108385861D01*
X130697578Y-108385859D01*
X130700410Y-108378813D01*
X130723277Y-108218145D01*
X130723425Y-108204000D01*
X130722074Y-108192839D01*
X130733749Y-108122810D01*
X130758067Y-108088610D01*
X131060241Y-107786436D01*
X131060244Y-107786434D01*
X131154433Y-107692245D01*
X131158935Y-107683410D01*
X131165144Y-107671225D01*
X131175474Y-107654368D01*
X131183509Y-107643308D01*
X131189340Y-107635283D01*
X131196633Y-107612837D01*
X131204196Y-107594580D01*
X131210403Y-107582398D01*
X131210403Y-107582397D01*
X131214905Y-107573562D01*
X131218595Y-107550261D01*
X131223208Y-107531045D01*
X131230501Y-107508601D01*
X131230501Y-107375399D01*
X131230500Y-107375396D01*
X131230500Y-107261500D01*
X131250502Y-107193379D01*
X131304158Y-107146886D01*
X131356500Y-107135500D01*
X132128500Y-107135500D01*
X132196621Y-107155502D01*
X132243114Y-107209158D01*
X132254500Y-107261500D01*
X132254500Y-108388097D01*
X132270095Y-108486562D01*
X132274596Y-108495395D01*
X132274597Y-108495399D01*
X132288267Y-108522228D01*
X132302000Y-108579430D01*
X132302000Y-108915516D01*
X132317767Y-108994782D01*
X132345766Y-109036685D01*
X132367000Y-109106685D01*
X132367001Y-110481790D01*
X132376893Y-110531526D01*
X132414577Y-110587923D01*
X132470974Y-110625607D01*
X132520709Y-110635500D01*
X132537302Y-110635500D01*
X133949615Y-110635499D01*
X134017735Y-110655501D01*
X134064228Y-110709157D01*
X134074332Y-110779431D01*
X134058067Y-110825640D01*
X134033227Y-110867641D01*
X133981333Y-110916092D01*
X133924774Y-110929500D01*
X133856984Y-110929500D01*
X133777718Y-110945267D01*
X133748219Y-110964978D01*
X133725002Y-110980491D01*
X133657249Y-111001706D01*
X133584998Y-110980491D01*
X133561782Y-110964978D01*
X133532282Y-110945267D01*
X133453016Y-110929500D01*
X133196984Y-110929500D01*
X133117718Y-110945267D01*
X133088219Y-110964978D01*
X133065002Y-110980491D01*
X132997249Y-111001706D01*
X132924998Y-110980491D01*
X132901782Y-110964978D01*
X132872282Y-110945267D01*
X132793016Y-110929500D01*
X132536984Y-110929500D01*
X132457718Y-110945267D01*
X132367829Y-111005329D01*
X132307767Y-111095218D01*
X132292000Y-111174484D01*
X132292000Y-111625570D01*
X132278267Y-111682772D01*
X132264597Y-111709601D01*
X132264596Y-111709605D01*
X132260095Y-111718438D01*
X132244500Y-111816903D01*
X132244500Y-112684396D01*
X132244499Y-112684399D01*
X132244499Y-112817601D01*
X132247563Y-112827031D01*
X132247564Y-112827037D01*
X132251789Y-112840039D01*
X132256406Y-112859267D01*
X132260095Y-112882562D01*
X132270806Y-112903583D01*
X132278370Y-112921846D01*
X132282596Y-112934852D01*
X132282598Y-112934855D01*
X132285661Y-112944283D01*
X132291486Y-112952301D01*
X132291487Y-112952302D01*
X132299528Y-112963369D01*
X132309859Y-112980229D01*
X132320567Y-113001245D01*
X132414755Y-113095433D01*
X132414757Y-113095434D01*
X132980566Y-113661243D01*
X132980567Y-113661245D01*
X133074755Y-113755433D01*
X133074757Y-113755434D01*
X133640566Y-114321243D01*
X133640567Y-114321245D01*
X133734755Y-114415433D01*
X133734757Y-114415434D01*
X134809566Y-115490243D01*
X134809567Y-115490245D01*
X134903755Y-115584433D01*
X134912589Y-115588934D01*
X134912590Y-115588935D01*
X134924777Y-115595145D01*
X134941633Y-115605474D01*
X134960718Y-115619340D01*
X134983162Y-115626632D01*
X135001418Y-115634195D01*
X135005420Y-115636234D01*
X135022438Y-115644905D01*
X135032229Y-115646456D01*
X135032230Y-115646456D01*
X135045736Y-115648595D01*
X135064960Y-115653211D01*
X135077962Y-115657435D01*
X135077964Y-115657435D01*
X135087399Y-115660501D01*
X135220601Y-115660501D01*
X135220603Y-115660500D01*
X136183013Y-115660500D01*
X136251134Y-115680502D01*
X136297627Y-115734158D01*
X136307462Y-115766791D01*
X136320095Y-115846562D01*
X136324598Y-115855399D01*
X136324598Y-115855400D01*
X136339239Y-115884134D01*
X136380567Y-115965245D01*
X136474755Y-116059433D01*
X136483588Y-116063933D01*
X136483587Y-116063933D01*
X136558203Y-116101952D01*
X136609818Y-116150700D01*
X136627000Y-116214219D01*
X136627000Y-116608501D01*
X136606998Y-116676622D01*
X136553342Y-116723115D01*
X136501000Y-116734501D01*
X136318210Y-116734501D01*
X136268474Y-116744393D01*
X136258158Y-116751286D01*
X136258156Y-116751287D01*
X136227026Y-116772088D01*
X136212077Y-116782077D01*
X136174393Y-116838474D01*
X136164500Y-116888209D01*
X136164501Y-118671790D01*
X136174393Y-118721526D01*
X136181286Y-118731842D01*
X136181287Y-118731844D01*
X136191111Y-118746546D01*
X136212077Y-118777923D01*
X136268474Y-118815607D01*
X136318209Y-118825500D01*
X136501000Y-118825500D01*
X136569121Y-118845502D01*
X136615614Y-118899158D01*
X136627000Y-118951499D01*
X136627000Y-119454896D01*
X136626999Y-119454899D01*
X136626999Y-119588101D01*
X136630063Y-119597531D01*
X136630064Y-119597537D01*
X136634289Y-119610539D01*
X136638906Y-119629767D01*
X136642595Y-119653062D01*
X136653306Y-119674083D01*
X136660870Y-119692346D01*
X136665096Y-119705352D01*
X136665098Y-119705355D01*
X136668161Y-119714783D01*
X136673986Y-119722801D01*
X136673987Y-119722802D01*
X136682028Y-119733869D01*
X136692359Y-119750729D01*
X136703067Y-119771745D01*
X136797255Y-119865933D01*
X136797257Y-119865934D01*
X137501566Y-120570243D01*
X137501567Y-120570245D01*
X137595755Y-120664433D01*
X137604589Y-120668934D01*
X137604590Y-120668935D01*
X137616777Y-120675145D01*
X137633630Y-120685472D01*
X137652718Y-120699340D01*
X137675162Y-120706632D01*
X137693418Y-120714195D01*
X137697524Y-120716287D01*
X137714438Y-120724905D01*
X137724229Y-120726456D01*
X137724230Y-120726456D01*
X137737736Y-120728595D01*
X137756960Y-120733211D01*
X137769962Y-120737435D01*
X137769964Y-120737435D01*
X137779399Y-120740501D01*
X137912601Y-120740501D01*
X137912603Y-120740500D01*
X141323572Y-120740500D01*
X141391693Y-120760502D01*
X141425102Y-120792056D01*
X141429306Y-120800306D01*
X141452595Y-120823595D01*
X141486621Y-120885907D01*
X141489500Y-120912690D01*
X141489500Y-121644720D01*
X141469498Y-121712841D01*
X141446329Y-121739669D01*
X141408061Y-121773052D01*
X141314746Y-121905827D01*
X141255795Y-122057029D01*
X141254804Y-122064556D01*
X141238400Y-122189158D01*
X141234612Y-122217927D01*
X141252420Y-122379234D01*
X141259951Y-122399813D01*
X141305580Y-122524501D01*
X141305582Y-122524505D01*
X141308192Y-122531637D01*
X141312429Y-122537943D01*
X141312431Y-122537946D01*
X141354130Y-122599999D01*
X141398707Y-122666337D01*
X141404325Y-122671449D01*
X141513118Y-122770444D01*
X141513122Y-122770447D01*
X141518739Y-122775558D01*
X141525412Y-122779181D01*
X141525416Y-122779184D01*
X141650030Y-122846843D01*
X141661359Y-122852994D01*
X141818334Y-122894176D01*
X141904250Y-122895526D01*
X141973004Y-122896606D01*
X141973007Y-122896606D01*
X141980601Y-122896725D01*
X142042230Y-122882610D01*
X142131389Y-122862190D01*
X142131393Y-122862189D01*
X142138792Y-122860494D01*
X142229905Y-122814669D01*
X147352001Y-122814669D01*
X147352371Y-122821490D01*
X147357895Y-122872352D01*
X147361521Y-122887604D01*
X147406676Y-123008054D01*
X147415214Y-123023649D01*
X147491715Y-123125724D01*
X147504276Y-123138285D01*
X147606351Y-123214786D01*
X147621946Y-123223324D01*
X147742394Y-123268478D01*
X147757649Y-123272105D01*
X147808514Y-123277631D01*
X147815328Y-123278000D01*
X147987885Y-123278000D01*
X148003124Y-123273525D01*
X148004329Y-123272135D01*
X148006000Y-123264452D01*
X148006000Y-123259884D01*
X148514000Y-123259884D01*
X148518475Y-123275123D01*
X148519865Y-123276328D01*
X148527548Y-123277999D01*
X148704669Y-123277999D01*
X148711490Y-123277629D01*
X148762352Y-123272105D01*
X148777604Y-123268479D01*
X148898054Y-123223324D01*
X148913649Y-123214786D01*
X149015724Y-123138285D01*
X149028285Y-123125724D01*
X149104786Y-123023649D01*
X149113324Y-123008054D01*
X149158478Y-122887606D01*
X149162105Y-122872351D01*
X149167631Y-122821486D01*
X149168000Y-122814672D01*
X149168000Y-122092115D01*
X149163525Y-122076876D01*
X149162135Y-122075671D01*
X149154452Y-122074000D01*
X148532115Y-122074000D01*
X148516876Y-122078475D01*
X148515671Y-122079865D01*
X148514000Y-122087548D01*
X148514000Y-123259884D01*
X148006000Y-123259884D01*
X148006000Y-122092115D01*
X148001525Y-122076876D01*
X148000135Y-122075671D01*
X147992452Y-122074000D01*
X147370116Y-122074000D01*
X147354877Y-122078475D01*
X147353672Y-122079865D01*
X147352001Y-122087548D01*
X147352001Y-122814669D01*
X142229905Y-122814669D01*
X142283774Y-122787576D01*
X142310060Y-122765126D01*
X142401404Y-122687111D01*
X142401406Y-122687108D01*
X142407178Y-122682179D01*
X142501879Y-122550388D01*
X142562410Y-122399813D01*
X142585277Y-122239145D01*
X142585425Y-122225000D01*
X142574595Y-122135502D01*
X142566841Y-122071432D01*
X142566841Y-122071431D01*
X142565928Y-122063889D01*
X142527182Y-121961350D01*
X142511249Y-121919183D01*
X142511248Y-121919181D01*
X142508564Y-121912078D01*
X142437098Y-121808094D01*
X142420946Y-121784592D01*
X142420945Y-121784590D01*
X142416644Y-121778333D01*
X142410973Y-121773281D01*
X142410971Y-121773278D01*
X142372682Y-121739164D01*
X142335126Y-121678914D01*
X142330500Y-121645087D01*
X142330500Y-121547885D01*
X147352000Y-121547885D01*
X147356475Y-121563124D01*
X147357865Y-121564329D01*
X147365548Y-121566000D01*
X147987885Y-121566000D01*
X148003124Y-121561525D01*
X148004329Y-121560135D01*
X148006000Y-121552452D01*
X148006000Y-121547885D01*
X148514000Y-121547885D01*
X148518475Y-121563124D01*
X148519865Y-121564329D01*
X148527548Y-121566000D01*
X149149884Y-121566000D01*
X149165123Y-121561525D01*
X149166328Y-121560135D01*
X149167999Y-121552452D01*
X149167999Y-120825331D01*
X149167629Y-120818510D01*
X149162105Y-120767648D01*
X149158479Y-120752396D01*
X149113324Y-120631946D01*
X149104786Y-120616351D01*
X149028285Y-120514276D01*
X149015724Y-120501715D01*
X148913649Y-120425214D01*
X148898054Y-120416676D01*
X148777606Y-120371522D01*
X148762351Y-120367895D01*
X148711486Y-120362369D01*
X148704672Y-120362000D01*
X148532115Y-120362000D01*
X148516876Y-120366475D01*
X148515671Y-120367865D01*
X148514000Y-120375548D01*
X148514000Y-121547885D01*
X148006000Y-121547885D01*
X148006000Y-120380116D01*
X148001525Y-120364877D01*
X148000135Y-120363672D01*
X147992452Y-120362001D01*
X147815331Y-120362001D01*
X147808510Y-120362371D01*
X147757648Y-120367895D01*
X147742396Y-120371521D01*
X147621946Y-120416676D01*
X147606351Y-120425214D01*
X147504276Y-120501715D01*
X147491715Y-120514276D01*
X147415214Y-120616351D01*
X147406676Y-120631946D01*
X147361522Y-120752394D01*
X147357895Y-120767649D01*
X147352369Y-120818514D01*
X147352000Y-120825328D01*
X147352000Y-121547885D01*
X142330500Y-121547885D01*
X142330500Y-121058484D01*
X142350502Y-120990363D01*
X142399296Y-120946218D01*
X142506306Y-120891694D01*
X142597694Y-120800306D01*
X142614334Y-120767649D01*
X142651866Y-120693987D01*
X142651866Y-120693986D01*
X142656368Y-120685151D01*
X142671500Y-120589612D01*
X142671500Y-120050388D01*
X142656368Y-119954849D01*
X142649057Y-119940500D01*
X142602199Y-119848535D01*
X142602198Y-119848534D01*
X142597694Y-119839694D01*
X142506306Y-119748306D01*
X142497466Y-119743802D01*
X142497465Y-119743801D01*
X142399987Y-119694134D01*
X142399986Y-119694134D01*
X142391151Y-119689632D01*
X142295612Y-119674500D01*
X141731388Y-119674500D01*
X141635849Y-119689632D01*
X141627014Y-119694134D01*
X141627013Y-119694134D01*
X141529535Y-119743801D01*
X141529534Y-119743802D01*
X141520694Y-119748306D01*
X141429306Y-119839694D01*
X141425161Y-119847829D01*
X141369284Y-119890915D01*
X141323572Y-119899500D01*
X140424561Y-119899500D01*
X140356440Y-119879498D01*
X140309947Y-119825842D01*
X140299843Y-119755568D01*
X140329337Y-119690988D01*
X140376344Y-119657091D01*
X140386480Y-119652893D01*
X140386485Y-119652890D01*
X140394112Y-119649731D01*
X140474430Y-119588101D01*
X140506735Y-119563313D01*
X140506736Y-119563312D01*
X140513286Y-119558286D01*
X140604731Y-119439111D01*
X140662216Y-119300330D01*
X140678709Y-119175054D01*
X140707431Y-119110126D01*
X140766697Y-119071035D01*
X140803631Y-119065500D01*
X140934607Y-119065500D01*
X141004608Y-119086735D01*
X141065218Y-119127233D01*
X141144484Y-119143000D01*
X142495516Y-119143000D01*
X142574782Y-119127233D01*
X142636692Y-119085866D01*
X142654355Y-119074064D01*
X142664671Y-119067171D01*
X142724733Y-118977282D01*
X142740500Y-118898016D01*
X142740500Y-118641984D01*
X142724733Y-118562718D01*
X142689509Y-118510001D01*
X142668294Y-118442249D01*
X142689509Y-118369998D01*
X142695403Y-118361178D01*
X142724733Y-118317282D01*
X142740500Y-118238016D01*
X142740500Y-117981984D01*
X142724733Y-117902718D01*
X142689509Y-117850001D01*
X142668294Y-117782249D01*
X142689509Y-117709998D01*
X142696031Y-117700238D01*
X142724733Y-117657282D01*
X142740500Y-117578016D01*
X142740500Y-117321984D01*
X142724733Y-117242718D01*
X142689509Y-117190001D01*
X142668294Y-117122249D01*
X142689509Y-117049998D01*
X142695979Y-117040316D01*
X142724733Y-116997282D01*
X142740500Y-116918016D01*
X142740500Y-116661984D01*
X142737263Y-116645709D01*
X143034500Y-116645709D01*
X143034501Y-118914290D01*
X143044393Y-118964026D01*
X143051286Y-118974342D01*
X143051287Y-118974344D01*
X143068052Y-118999434D01*
X143082077Y-119020423D01*
X143138474Y-119058107D01*
X143188209Y-119068000D01*
X143353688Y-119068000D01*
X144533381Y-119067999D01*
X144603382Y-119089234D01*
X144675218Y-119137233D01*
X144754484Y-119153000D01*
X145090570Y-119153000D01*
X145147772Y-119166733D01*
X145174601Y-119180403D01*
X145174605Y-119180404D01*
X145183438Y-119184905D01*
X145193231Y-119186456D01*
X145202664Y-119189521D01*
X145201405Y-119193396D01*
X145247701Y-119215382D01*
X145285186Y-119275676D01*
X145284123Y-119346665D01*
X145252867Y-119398456D01*
X144788728Y-119862595D01*
X144726416Y-119896621D01*
X144699633Y-119899500D01*
X144528428Y-119899500D01*
X144460307Y-119879498D01*
X144426898Y-119847944D01*
X144422694Y-119839694D01*
X144331306Y-119748306D01*
X144322466Y-119743802D01*
X144322465Y-119743801D01*
X144224987Y-119694134D01*
X144224986Y-119694134D01*
X144216151Y-119689632D01*
X144120612Y-119674500D01*
X143556388Y-119674500D01*
X143460849Y-119689632D01*
X143452014Y-119694134D01*
X143452013Y-119694134D01*
X143354535Y-119743801D01*
X143354534Y-119743802D01*
X143345694Y-119748306D01*
X143254306Y-119839694D01*
X143249802Y-119848534D01*
X143249801Y-119848535D01*
X143202943Y-119940500D01*
X143195632Y-119954849D01*
X143180500Y-120050388D01*
X143180500Y-120589612D01*
X143195632Y-120685151D01*
X143200134Y-120693986D01*
X143200134Y-120693987D01*
X143237667Y-120767649D01*
X143254306Y-120800306D01*
X143345694Y-120891694D01*
X143354532Y-120896197D01*
X143354535Y-120896199D01*
X143423600Y-120931389D01*
X143460849Y-120950368D01*
X143556388Y-120965500D01*
X144120612Y-120965500D01*
X144216151Y-120950368D01*
X144253400Y-120931389D01*
X144322465Y-120896199D01*
X144322468Y-120896197D01*
X144331306Y-120891694D01*
X144422694Y-120800306D01*
X144426839Y-120792171D01*
X144482716Y-120749085D01*
X144528428Y-120740500D01*
X144859397Y-120740500D01*
X144859399Y-120740501D01*
X144992601Y-120740501D01*
X145002031Y-120737437D01*
X145002037Y-120737436D01*
X145015039Y-120733211D01*
X145034267Y-120728594D01*
X145057562Y-120724905D01*
X145078583Y-120714194D01*
X145096846Y-120706630D01*
X145109852Y-120702404D01*
X145109855Y-120702402D01*
X145119283Y-120699339D01*
X145138369Y-120685472D01*
X145155229Y-120675141D01*
X145167405Y-120668937D01*
X145176245Y-120664433D01*
X145270433Y-120570245D01*
X145270434Y-120570243D01*
X146524406Y-119316271D01*
X146586718Y-119282245D01*
X146657533Y-119287310D01*
X146714369Y-119329857D01*
X146739180Y-119396377D01*
X146739501Y-119405366D01*
X146739501Y-119786790D01*
X146749393Y-119836526D01*
X146756286Y-119846842D01*
X146756287Y-119846844D01*
X146777088Y-119877974D01*
X146787077Y-119892923D01*
X146843474Y-119930607D01*
X146893209Y-119940500D01*
X147309932Y-119940500D01*
X147726790Y-119940499D01*
X147776526Y-119930607D01*
X147786842Y-119923714D01*
X147786844Y-119923713D01*
X147822610Y-119899814D01*
X147832923Y-119892923D01*
X147870607Y-119836526D01*
X147880500Y-119786791D01*
X147880499Y-117853210D01*
X147870607Y-117803474D01*
X147857034Y-117783160D01*
X147839814Y-117757390D01*
X147832923Y-117747077D01*
X147822610Y-117740186D01*
X147822608Y-117740184D01*
X147786498Y-117716056D01*
X147740970Y-117661579D01*
X147730500Y-117611291D01*
X147730500Y-117404607D01*
X147730501Y-117404595D01*
X147730501Y-117271399D01*
X147730500Y-117271396D01*
X147730500Y-117214856D01*
X147750502Y-117146735D01*
X147799297Y-117102589D01*
X147831474Y-117086194D01*
X147831473Y-117086194D01*
X147840306Y-117081694D01*
X147931694Y-116990306D01*
X147958495Y-116937707D01*
X147985866Y-116883987D01*
X147985866Y-116883986D01*
X147990368Y-116875151D01*
X148005500Y-116779612D01*
X148514500Y-116779612D01*
X148529632Y-116875151D01*
X148534134Y-116883986D01*
X148534134Y-116883987D01*
X148561506Y-116937707D01*
X148588306Y-116990306D01*
X148679694Y-117081694D01*
X148688534Y-117086198D01*
X148688535Y-117086199D01*
X148782043Y-117133843D01*
X148794488Y-117140184D01*
X148794849Y-117140368D01*
X148794799Y-117140466D01*
X148848544Y-117177217D01*
X148876179Y-117242614D01*
X148877000Y-117256974D01*
X148877000Y-117579429D01*
X148856998Y-117647550D01*
X148803342Y-117694043D01*
X148775585Y-117703006D01*
X148743474Y-117709393D01*
X148733158Y-117716286D01*
X148733156Y-117716287D01*
X148704374Y-117735519D01*
X148687077Y-117747077D01*
X148649393Y-117803474D01*
X148639500Y-117853209D01*
X148639501Y-119786790D01*
X148649393Y-119836526D01*
X148656286Y-119846842D01*
X148656287Y-119846844D01*
X148677088Y-119877974D01*
X148687077Y-119892923D01*
X148743474Y-119930607D01*
X148793209Y-119940500D01*
X149209932Y-119940500D01*
X149626790Y-119940499D01*
X149676526Y-119930607D01*
X149686842Y-119923714D01*
X149686844Y-119923713D01*
X149722610Y-119899814D01*
X149732923Y-119892923D01*
X149770607Y-119836526D01*
X149780500Y-119786791D01*
X149780500Y-119241500D01*
X149800502Y-119173379D01*
X149854158Y-119126886D01*
X149906500Y-119115500D01*
X150141410Y-119115500D01*
X150209531Y-119135502D01*
X150230505Y-119152405D01*
X150467595Y-119389495D01*
X150501621Y-119451807D01*
X150504500Y-119478590D01*
X150504500Y-121794509D01*
X150502910Y-121808094D01*
X150502426Y-121817996D01*
X150499740Y-121829315D01*
X150501309Y-121840844D01*
X150503349Y-121855834D01*
X150504500Y-121872825D01*
X150504500Y-122435179D01*
X150484498Y-122503300D01*
X150436294Y-122547142D01*
X150420355Y-122555369D01*
X150298061Y-122662052D01*
X150204746Y-122794827D01*
X150145795Y-122946029D01*
X150124612Y-123106927D01*
X150142420Y-123268234D01*
X150149951Y-123288813D01*
X150195580Y-123413501D01*
X150195582Y-123413505D01*
X150198192Y-123420637D01*
X150202429Y-123426943D01*
X150202431Y-123426946D01*
X150244130Y-123488999D01*
X150288707Y-123555337D01*
X150294325Y-123560449D01*
X150403118Y-123659444D01*
X150403122Y-123659447D01*
X150408739Y-123664558D01*
X150415412Y-123668181D01*
X150415416Y-123668184D01*
X150544686Y-123738371D01*
X150551359Y-123741994D01*
X150708334Y-123783176D01*
X150794250Y-123784526D01*
X150863004Y-123785606D01*
X150863007Y-123785606D01*
X150870601Y-123785725D01*
X150926392Y-123772947D01*
X151021389Y-123751190D01*
X151021393Y-123751189D01*
X151028792Y-123749494D01*
X151173774Y-123676576D01*
X151200060Y-123654126D01*
X151291404Y-123576111D01*
X151291406Y-123576108D01*
X151297178Y-123571179D01*
X151391879Y-123439388D01*
X151452410Y-123288813D01*
X151475277Y-123128145D01*
X151475425Y-123114000D01*
X151455928Y-122952889D01*
X151406277Y-122821490D01*
X151401249Y-122808183D01*
X151401248Y-122808181D01*
X151398564Y-122801078D01*
X151320237Y-122687111D01*
X151310946Y-122673592D01*
X151310945Y-122673590D01*
X151306644Y-122667333D01*
X151298449Y-122660031D01*
X151191145Y-122564428D01*
X151185474Y-122559375D01*
X151162540Y-122547232D01*
X151111698Y-122497682D01*
X151095500Y-122435879D01*
X151095500Y-122241500D01*
X151115502Y-122173379D01*
X151169158Y-122126886D01*
X151221500Y-122115500D01*
X151693501Y-122115500D01*
X151761622Y-122135502D01*
X151808115Y-122189158D01*
X151819501Y-122241500D01*
X151819501Y-122786790D01*
X151829393Y-122836526D01*
X151836286Y-122846842D01*
X151836287Y-122846844D01*
X151845408Y-122860494D01*
X151867077Y-122892923D01*
X151923474Y-122930607D01*
X151973209Y-122940500D01*
X152389932Y-122940500D01*
X152806790Y-122940499D01*
X152856526Y-122930607D01*
X152866842Y-122923714D01*
X152866844Y-122923713D01*
X152902610Y-122899814D01*
X152912923Y-122892923D01*
X152950607Y-122836526D01*
X152954955Y-122814669D01*
X153382001Y-122814669D01*
X153382371Y-122821490D01*
X153387895Y-122872352D01*
X153391521Y-122887604D01*
X153436676Y-123008054D01*
X153445214Y-123023649D01*
X153521715Y-123125724D01*
X153534276Y-123138285D01*
X153636351Y-123214786D01*
X153651946Y-123223324D01*
X153772394Y-123268478D01*
X153787649Y-123272105D01*
X153838514Y-123277631D01*
X153845328Y-123278000D01*
X154017885Y-123278000D01*
X154033124Y-123273525D01*
X154034329Y-123272135D01*
X154036000Y-123264452D01*
X154036000Y-123259884D01*
X154544000Y-123259884D01*
X154548475Y-123275123D01*
X154549865Y-123276328D01*
X154557548Y-123277999D01*
X154734669Y-123277999D01*
X154741490Y-123277629D01*
X154792352Y-123272105D01*
X154807604Y-123268479D01*
X154928054Y-123223324D01*
X154943649Y-123214786D01*
X155045724Y-123138285D01*
X155058285Y-123125724D01*
X155134786Y-123023649D01*
X155143324Y-123008054D01*
X155188478Y-122887606D01*
X155192105Y-122872351D01*
X155197631Y-122821486D01*
X155198000Y-122814672D01*
X155198000Y-122092115D01*
X155193525Y-122076876D01*
X155192135Y-122075671D01*
X155184452Y-122074000D01*
X154562115Y-122074000D01*
X154546876Y-122078475D01*
X154545671Y-122079865D01*
X154544000Y-122087548D01*
X154544000Y-123259884D01*
X154036000Y-123259884D01*
X154036000Y-122092115D01*
X154031525Y-122076876D01*
X154030135Y-122075671D01*
X154022452Y-122074000D01*
X153400116Y-122074000D01*
X153384877Y-122078475D01*
X153383672Y-122079865D01*
X153382001Y-122087548D01*
X153382001Y-122814669D01*
X152954955Y-122814669D01*
X152960500Y-122786791D01*
X152960499Y-121547885D01*
X153382000Y-121547885D01*
X153386475Y-121563124D01*
X153387865Y-121564329D01*
X153395548Y-121566000D01*
X154017885Y-121566000D01*
X154033124Y-121561525D01*
X154034329Y-121560135D01*
X154036000Y-121552452D01*
X154036000Y-121547885D01*
X154544000Y-121547885D01*
X154548475Y-121563124D01*
X154549865Y-121564329D01*
X154557548Y-121566000D01*
X155179884Y-121566000D01*
X155195123Y-121561525D01*
X155196328Y-121560135D01*
X155197999Y-121552452D01*
X155197999Y-120825331D01*
X155197629Y-120818510D01*
X155192105Y-120767648D01*
X155188479Y-120752396D01*
X155143324Y-120631946D01*
X155134786Y-120616351D01*
X155117169Y-120592845D01*
X169104763Y-120592845D01*
X169142781Y-120808458D01*
X169144902Y-120816965D01*
X169230001Y-121078871D01*
X169233293Y-121087018D01*
X169354012Y-121334530D01*
X169358397Y-121342126D01*
X169512392Y-121570433D01*
X169517797Y-121577350D01*
X169702059Y-121781994D01*
X169708379Y-121788097D01*
X169919333Y-121965109D01*
X169926436Y-121970269D01*
X170159980Y-122116204D01*
X170167714Y-122120316D01*
X170419304Y-122232331D01*
X170427545Y-122235330D01*
X170692265Y-122311237D01*
X170700845Y-122313061D01*
X170973557Y-122351388D01*
X170982306Y-122352000D01*
X173347885Y-122352000D01*
X173363124Y-122347525D01*
X173364329Y-122346135D01*
X173366000Y-122338452D01*
X173366000Y-122333885D01*
X173874000Y-122333885D01*
X173878475Y-122349124D01*
X173879865Y-122350329D01*
X173887548Y-122352000D01*
X176188765Y-122352000D01*
X176193147Y-122351847D01*
X176399102Y-122337445D01*
X176407791Y-122336224D01*
X176677167Y-122278967D01*
X176685592Y-122276551D01*
X176944374Y-122182361D01*
X176952394Y-122178790D01*
X177195533Y-122049512D01*
X177202989Y-122044853D01*
X177425771Y-121882992D01*
X177432501Y-121877345D01*
X177630596Y-121686048D01*
X177636467Y-121679526D01*
X177806010Y-121462521D01*
X177810916Y-121455248D01*
X177948608Y-121216757D01*
X177952457Y-121208865D01*
X178055616Y-120953539D01*
X178058332Y-120945181D01*
X178124952Y-120677984D01*
X178126476Y-120669342D01*
X178134603Y-120592015D01*
X178131923Y-120577364D01*
X178119603Y-120574000D01*
X173892115Y-120574000D01*
X173876876Y-120578475D01*
X173875671Y-120579865D01*
X173874000Y-120587548D01*
X173874000Y-122333885D01*
X173366000Y-122333885D01*
X173366000Y-120592115D01*
X173361525Y-120576876D01*
X173360135Y-120575671D01*
X173352452Y-120574000D01*
X169119555Y-120574000D01*
X169106686Y-120577779D01*
X169104763Y-120592845D01*
X155117169Y-120592845D01*
X155058285Y-120514276D01*
X155045724Y-120501715D01*
X154943649Y-120425214D01*
X154928054Y-120416676D01*
X154807606Y-120371522D01*
X154792351Y-120367895D01*
X154741486Y-120362369D01*
X154734672Y-120362000D01*
X154562115Y-120362000D01*
X154546876Y-120366475D01*
X154545671Y-120367865D01*
X154544000Y-120375548D01*
X154544000Y-121547885D01*
X154036000Y-121547885D01*
X154036000Y-120380116D01*
X154031525Y-120364877D01*
X154030135Y-120363672D01*
X154022452Y-120362001D01*
X153845331Y-120362001D01*
X153838510Y-120362371D01*
X153787648Y-120367895D01*
X153772396Y-120371521D01*
X153651946Y-120416676D01*
X153636351Y-120425214D01*
X153534276Y-120501715D01*
X153521715Y-120514276D01*
X153445214Y-120616351D01*
X153436676Y-120631946D01*
X153391522Y-120752394D01*
X153387895Y-120767649D01*
X153382369Y-120818514D01*
X153382000Y-120825328D01*
X153382000Y-121547885D01*
X152960499Y-121547885D01*
X152960499Y-120853210D01*
X152950607Y-120803474D01*
X152912923Y-120747077D01*
X152856526Y-120709393D01*
X152806791Y-120699500D01*
X152390068Y-120699500D01*
X151973210Y-120699501D01*
X151923474Y-120709393D01*
X151913158Y-120716286D01*
X151913156Y-120716287D01*
X151882026Y-120737088D01*
X151867077Y-120747077D01*
X151829393Y-120803474D01*
X151819500Y-120853209D01*
X151819500Y-121398500D01*
X151799498Y-121466621D01*
X151745842Y-121513114D01*
X151693500Y-121524500D01*
X151221500Y-121524500D01*
X151153379Y-121504498D01*
X151106886Y-121450842D01*
X151095500Y-121398500D01*
X151095500Y-120047985D01*
X169105397Y-120047985D01*
X169108077Y-120062636D01*
X169120397Y-120066000D01*
X173347885Y-120066000D01*
X173363124Y-120061525D01*
X173364329Y-120060135D01*
X173366000Y-120052452D01*
X173366000Y-120047885D01*
X173874000Y-120047885D01*
X173878475Y-120063124D01*
X173879865Y-120064329D01*
X173887548Y-120066000D01*
X178120445Y-120066000D01*
X178133314Y-120062221D01*
X178135237Y-120047155D01*
X178109582Y-119901656D01*
X178117451Y-119831097D01*
X178162219Y-119775994D01*
X178229670Y-119753840D01*
X178268399Y-119758658D01*
X178312269Y-119771238D01*
X178320845Y-119773061D01*
X178593557Y-119811388D01*
X178602306Y-119812000D01*
X180967885Y-119812000D01*
X180983124Y-119807525D01*
X180984329Y-119806135D01*
X180986000Y-119798452D01*
X180986000Y-119793885D01*
X181494000Y-119793885D01*
X181498475Y-119809124D01*
X181499865Y-119810329D01*
X181507548Y-119812000D01*
X183808765Y-119812000D01*
X183813147Y-119811847D01*
X184019102Y-119797445D01*
X184027791Y-119796224D01*
X184297167Y-119738967D01*
X184305592Y-119736551D01*
X184564374Y-119642361D01*
X184572394Y-119638790D01*
X184815533Y-119509512D01*
X184822989Y-119504853D01*
X185045771Y-119342992D01*
X185052501Y-119337345D01*
X185250596Y-119146048D01*
X185256467Y-119139526D01*
X185426010Y-118922521D01*
X185430916Y-118915248D01*
X185568608Y-118676757D01*
X185572457Y-118668865D01*
X185675616Y-118413539D01*
X185678332Y-118405181D01*
X185744952Y-118137984D01*
X185746476Y-118129342D01*
X185754603Y-118052015D01*
X185751923Y-118037364D01*
X185739603Y-118034000D01*
X181512115Y-118034000D01*
X181496876Y-118038475D01*
X181495671Y-118039865D01*
X181494000Y-118047548D01*
X181494000Y-119793885D01*
X180986000Y-119793885D01*
X180986000Y-118052115D01*
X180981525Y-118036876D01*
X180980135Y-118035671D01*
X180972452Y-118034000D01*
X176739555Y-118034000D01*
X176726686Y-118037779D01*
X176724763Y-118052845D01*
X176750418Y-118198344D01*
X176742549Y-118268903D01*
X176697781Y-118324006D01*
X176630330Y-118346160D01*
X176591601Y-118341342D01*
X176547731Y-118328762D01*
X176539155Y-118326939D01*
X176266443Y-118288612D01*
X176257694Y-118288000D01*
X173892115Y-118288000D01*
X173876876Y-118292475D01*
X173875671Y-118293865D01*
X173874000Y-118301548D01*
X173874000Y-120047885D01*
X173366000Y-120047885D01*
X173366000Y-118306115D01*
X173361525Y-118290876D01*
X173360135Y-118289671D01*
X173352452Y-118288000D01*
X171051235Y-118288000D01*
X171046853Y-118288153D01*
X170840898Y-118302555D01*
X170832209Y-118303776D01*
X170562833Y-118361033D01*
X170554408Y-118363449D01*
X170295626Y-118457639D01*
X170287606Y-118461210D01*
X170044467Y-118590488D01*
X170037011Y-118595147D01*
X169814229Y-118757008D01*
X169807499Y-118762655D01*
X169609404Y-118953952D01*
X169603533Y-118960474D01*
X169433990Y-119177479D01*
X169429084Y-119184752D01*
X169291392Y-119423243D01*
X169287543Y-119431135D01*
X169184384Y-119686461D01*
X169181668Y-119694819D01*
X169115048Y-119962016D01*
X169113524Y-119970658D01*
X169105397Y-120047985D01*
X151095500Y-120047985D01*
X151095500Y-119355412D01*
X151095685Y-119352892D01*
X151097394Y-119347915D01*
X151096123Y-119314047D01*
X151095589Y-119299838D01*
X151095500Y-119295111D01*
X151095500Y-119276514D01*
X151094630Y-119271840D01*
X151094413Y-119268499D01*
X151093701Y-119249536D01*
X151093701Y-119249534D01*
X151093264Y-119237909D01*
X151088673Y-119227222D01*
X151087509Y-119222059D01*
X151084497Y-119212147D01*
X151082594Y-119207215D01*
X151080464Y-119195778D01*
X151067823Y-119175271D01*
X151059320Y-119158900D01*
X151053321Y-119144938D01*
X151053320Y-119144936D01*
X151049810Y-119136767D01*
X151045868Y-119131968D01*
X151043686Y-119129786D01*
X151041628Y-119127517D01*
X151041814Y-119127348D01*
X151035463Y-119119315D01*
X151028805Y-119111972D01*
X151022700Y-119102068D01*
X151013442Y-119095028D01*
X151013440Y-119095026D01*
X151001394Y-119085866D01*
X150988564Y-119074664D01*
X150561302Y-118647401D01*
X150559653Y-118645491D01*
X150557342Y-118640763D01*
X150542672Y-118627154D01*
X150522066Y-118608040D01*
X150518661Y-118604760D01*
X150505515Y-118591614D01*
X150501591Y-118588922D01*
X150499079Y-118586716D01*
X150485163Y-118573808D01*
X150485164Y-118573808D01*
X150476636Y-118565898D01*
X150465835Y-118561589D01*
X150461370Y-118558766D01*
X150452211Y-118553875D01*
X150447384Y-118551736D01*
X150437793Y-118545157D01*
X150414350Y-118539594D01*
X150396768Y-118534034D01*
X150374391Y-118525106D01*
X150368210Y-118524500D01*
X150365129Y-118524500D01*
X150362058Y-118524350D01*
X150362070Y-118524100D01*
X150351906Y-118522910D01*
X150342004Y-118522426D01*
X150330685Y-118519740D01*
X150319156Y-118521309D01*
X150304166Y-118523349D01*
X150287175Y-118524500D01*
X149906499Y-118524500D01*
X149838378Y-118504498D01*
X149791885Y-118450842D01*
X149780499Y-118398500D01*
X149780499Y-117853210D01*
X149770607Y-117803474D01*
X149757034Y-117783160D01*
X149739814Y-117757390D01*
X149732923Y-117747077D01*
X149676526Y-117709393D01*
X149626791Y-117699500D01*
X149594000Y-117699500D01*
X149525879Y-117679498D01*
X149479386Y-117625842D01*
X149468000Y-117573500D01*
X149468000Y-117256974D01*
X149488002Y-117188853D01*
X149541658Y-117142360D01*
X149544459Y-117141270D01*
X149550151Y-117140368D01*
X149562957Y-117133843D01*
X149656465Y-117086199D01*
X149656466Y-117086198D01*
X149665306Y-117081694D01*
X149756694Y-116990306D01*
X149783495Y-116937707D01*
X149810866Y-116883987D01*
X149810866Y-116883986D01*
X149815368Y-116875151D01*
X149830500Y-116779612D01*
X149830500Y-116240388D01*
X149815368Y-116144849D01*
X149802991Y-116120558D01*
X149761199Y-116038535D01*
X149761198Y-116038534D01*
X149756694Y-116029694D01*
X149665306Y-115938306D01*
X149656466Y-115933802D01*
X149656465Y-115933801D01*
X149558987Y-115884134D01*
X149558986Y-115884134D01*
X149550151Y-115879632D01*
X149454612Y-115864500D01*
X148890388Y-115864500D01*
X148794849Y-115879632D01*
X148786014Y-115884134D01*
X148786013Y-115884134D01*
X148688535Y-115933801D01*
X148688534Y-115933802D01*
X148679694Y-115938306D01*
X148588306Y-116029694D01*
X148583802Y-116038534D01*
X148583801Y-116038535D01*
X148542009Y-116120558D01*
X148529632Y-116144849D01*
X148514500Y-116240388D01*
X148514500Y-116779612D01*
X148005500Y-116779612D01*
X148005500Y-116240388D01*
X147990368Y-116144849D01*
X147977991Y-116120558D01*
X147936199Y-116038535D01*
X147936198Y-116038534D01*
X147931694Y-116029694D01*
X147840306Y-115938306D01*
X147831466Y-115933802D01*
X147823446Y-115927975D01*
X147825199Y-115925562D01*
X147785188Y-115887781D01*
X147768000Y-115824252D01*
X147768000Y-115585515D01*
X147769551Y-115565804D01*
X147771691Y-115552293D01*
X147773242Y-115542500D01*
X147769551Y-115519195D01*
X147768000Y-115499485D01*
X147768000Y-115192428D01*
X147791677Y-115118902D01*
X147813871Y-115088016D01*
X147835879Y-115057388D01*
X147843417Y-115038637D01*
X147874657Y-114960926D01*
X147918624Y-114905182D01*
X147985749Y-114882057D01*
X148054720Y-114898894D01*
X148080659Y-114918828D01*
X148362074Y-115200243D01*
X148362075Y-115200245D01*
X148456263Y-115294433D01*
X148465097Y-115298934D01*
X148465098Y-115298935D01*
X148477283Y-115305144D01*
X148494140Y-115315474D01*
X148513225Y-115329340D01*
X148535671Y-115336633D01*
X148553928Y-115344196D01*
X148564717Y-115349693D01*
X148574946Y-115354905D01*
X148598247Y-115358595D01*
X148617463Y-115363208D01*
X148639907Y-115370501D01*
X148773109Y-115370501D01*
X148773111Y-115370500D01*
X149663097Y-115370500D01*
X149761562Y-115354905D01*
X149770395Y-115350404D01*
X149770399Y-115350403D01*
X149797228Y-115336733D01*
X149854430Y-115323000D01*
X150190516Y-115323000D01*
X150196584Y-115321793D01*
X150257612Y-115309654D01*
X150257613Y-115309654D01*
X150269782Y-115307233D01*
X150311685Y-115279234D01*
X150381685Y-115258000D01*
X151559824Y-115257999D01*
X151756790Y-115257999D01*
X151806526Y-115248107D01*
X151816842Y-115241214D01*
X151816844Y-115241213D01*
X151852610Y-115217314D01*
X151862923Y-115210423D01*
X151900607Y-115154026D01*
X151910500Y-115104291D01*
X151910499Y-112835710D01*
X151900607Y-112785974D01*
X151891750Y-112772718D01*
X151869814Y-112739890D01*
X151862923Y-112729577D01*
X151806526Y-112691893D01*
X151756791Y-112682000D01*
X151591312Y-112682000D01*
X150411619Y-112682001D01*
X150341617Y-112660766D01*
X150314248Y-112642478D01*
X150269782Y-112612767D01*
X150190516Y-112597000D01*
X149854430Y-112597000D01*
X149797228Y-112583267D01*
X149770399Y-112569597D01*
X149770395Y-112569596D01*
X149761562Y-112565095D01*
X149663097Y-112549500D01*
X148699367Y-112549500D01*
X148631246Y-112529498D01*
X148584753Y-112475842D01*
X148574649Y-112405568D01*
X148604143Y-112340988D01*
X148610272Y-112334405D01*
X148727272Y-112217405D01*
X148789584Y-112183379D01*
X148816367Y-112180500D01*
X154422340Y-112180500D01*
X154490461Y-112200502D01*
X154536954Y-112254158D01*
X154547058Y-112324432D01*
X154522303Y-112383203D01*
X154464088Y-112459071D01*
X154441669Y-112488289D01*
X154438508Y-112495921D01*
X154392614Y-112606718D01*
X154348066Y-112661999D01*
X154276205Y-112684500D01*
X154010393Y-112684500D01*
X153940391Y-112663265D01*
X153940148Y-112663102D01*
X153879782Y-112622767D01*
X153800516Y-112607000D01*
X152449484Y-112607000D01*
X152370218Y-112622767D01*
X152359899Y-112629662D01*
X152296629Y-112671938D01*
X152280329Y-112682829D01*
X152220267Y-112772718D01*
X152204500Y-112851984D01*
X152204500Y-113108016D01*
X152220267Y-113187282D01*
X152246215Y-113226115D01*
X152255491Y-113239998D01*
X152276706Y-113307751D01*
X152255491Y-113380001D01*
X152220267Y-113432718D01*
X152204500Y-113511984D01*
X152204500Y-113768016D01*
X152220267Y-113847282D01*
X152253370Y-113896823D01*
X152255491Y-113899998D01*
X152276706Y-113967751D01*
X152255491Y-114040001D01*
X152220267Y-114092718D01*
X152204500Y-114171984D01*
X152204500Y-114428016D01*
X152220267Y-114507282D01*
X152253458Y-114556955D01*
X152255491Y-114559998D01*
X152276706Y-114627751D01*
X152255491Y-114700001D01*
X152220267Y-114752718D01*
X152204500Y-114831984D01*
X152204500Y-115088016D01*
X152220267Y-115167282D01*
X152280329Y-115257171D01*
X152290645Y-115264064D01*
X152305174Y-115273772D01*
X152370218Y-115317233D01*
X152449484Y-115333000D01*
X152615500Y-115333000D01*
X152683621Y-115353002D01*
X152730114Y-115406658D01*
X152741500Y-115459000D01*
X152741500Y-116005720D01*
X152721498Y-116073841D01*
X152698329Y-116100669D01*
X152677096Y-116119192D01*
X152660061Y-116134052D01*
X152566746Y-116266827D01*
X152507795Y-116418029D01*
X152506804Y-116425556D01*
X152487760Y-116570210D01*
X152486612Y-116578927D01*
X152504420Y-116740234D01*
X152520620Y-116784502D01*
X152557580Y-116885501D01*
X152557582Y-116885505D01*
X152560192Y-116892637D01*
X152564429Y-116898943D01*
X152564431Y-116898946D01*
X152583590Y-116927457D01*
X152650707Y-117027337D01*
X152656325Y-117032449D01*
X152765118Y-117131444D01*
X152765122Y-117131447D01*
X152770739Y-117136558D01*
X152777412Y-117140181D01*
X152777416Y-117140184D01*
X152906686Y-117210371D01*
X152913359Y-117213994D01*
X153070334Y-117255176D01*
X153108847Y-117255781D01*
X153143578Y-117256327D01*
X153211376Y-117277397D01*
X153257020Y-117331776D01*
X153266018Y-117402200D01*
X153230694Y-117471405D01*
X153167403Y-117534696D01*
X153165490Y-117536347D01*
X153160763Y-117538658D01*
X153152853Y-117547185D01*
X153128028Y-117573947D01*
X153124747Y-117577352D01*
X153111614Y-117590485D01*
X153108922Y-117594409D01*
X153106716Y-117596921D01*
X153085898Y-117619364D01*
X153081588Y-117630166D01*
X153075370Y-117640002D01*
X153071794Y-117637741D01*
X153041783Y-117676025D01*
X152968538Y-117699501D01*
X152923210Y-117699501D01*
X152873474Y-117709393D01*
X152863158Y-117716286D01*
X152863156Y-117716287D01*
X152834374Y-117735519D01*
X152817077Y-117747077D01*
X152779393Y-117803474D01*
X152769500Y-117853209D01*
X152769501Y-119786790D01*
X152779393Y-119836526D01*
X152786286Y-119846842D01*
X152786287Y-119846844D01*
X152807088Y-119877974D01*
X152817077Y-119892923D01*
X152873474Y-119930607D01*
X152923209Y-119940500D01*
X153339932Y-119940500D01*
X153756790Y-119940499D01*
X153806526Y-119930607D01*
X153816842Y-119923714D01*
X153816844Y-119923713D01*
X153852610Y-119899814D01*
X153862923Y-119892923D01*
X153900607Y-119836526D01*
X153910500Y-119786791D01*
X153910499Y-117853210D01*
X153900607Y-117803474D01*
X153891495Y-117789836D01*
X153870278Y-117722086D01*
X153889059Y-117653618D01*
X153907163Y-117630737D01*
X154224713Y-117313187D01*
X154287025Y-117279161D01*
X154357840Y-117284226D01*
X154414676Y-117326773D01*
X154430216Y-117354063D01*
X154436464Y-117369146D01*
X154441669Y-117381711D01*
X154533114Y-117500886D01*
X154539664Y-117505912D01*
X154539665Y-117505913D01*
X154565843Y-117526000D01*
X154652288Y-117592331D01*
X154696966Y-117610837D01*
X154783440Y-117646656D01*
X154783443Y-117646657D01*
X154791070Y-117649816D01*
X154799258Y-117650894D01*
X154819949Y-117653618D01*
X154940000Y-117669423D01*
X154948188Y-117668345D01*
X155080742Y-117650894D01*
X155088930Y-117649816D01*
X155096557Y-117646657D01*
X155096560Y-117646656D01*
X155183034Y-117610837D01*
X155227712Y-117592331D01*
X155314157Y-117526000D01*
X155340335Y-117505913D01*
X155340336Y-117505912D01*
X155346886Y-117500886D01*
X155438331Y-117381711D01*
X155495816Y-117242930D01*
X155496894Y-117234742D01*
X155510178Y-117133843D01*
X155538901Y-117068916D01*
X155598166Y-117029825D01*
X155669158Y-117028980D01*
X155724195Y-117061195D01*
X155744694Y-117081694D01*
X155753534Y-117086198D01*
X155753535Y-117086199D01*
X155755443Y-117087171D01*
X155859488Y-117140184D01*
X155859849Y-117140368D01*
X155859541Y-117140972D01*
X155911640Y-117176594D01*
X155939278Y-117241990D01*
X155940100Y-117256356D01*
X155940100Y-117761579D01*
X155920098Y-117829700D01*
X155871894Y-117873542D01*
X155855955Y-117881769D01*
X155850231Y-117886762D01*
X155850230Y-117886763D01*
X155817986Y-117914891D01*
X155733661Y-117988452D01*
X155640346Y-118121227D01*
X155581395Y-118272429D01*
X155580404Y-118279956D01*
X155563656Y-118407171D01*
X155560212Y-118433327D01*
X155578020Y-118594634D01*
X155589921Y-118627154D01*
X155631180Y-118739901D01*
X155631182Y-118739905D01*
X155633792Y-118747037D01*
X155638029Y-118753343D01*
X155638031Y-118753346D01*
X155659177Y-118784814D01*
X155724307Y-118881737D01*
X155729925Y-118886849D01*
X155838718Y-118985844D01*
X155838722Y-118985847D01*
X155844339Y-118990958D01*
X155851012Y-118994581D01*
X155851016Y-118994584D01*
X155980286Y-119064771D01*
X155986959Y-119068394D01*
X156143934Y-119109576D01*
X156229850Y-119110926D01*
X156298604Y-119112006D01*
X156298607Y-119112006D01*
X156306201Y-119112125D01*
X156361992Y-119099347D01*
X156456989Y-119077590D01*
X156456993Y-119077589D01*
X156464392Y-119075894D01*
X156609374Y-119002976D01*
X156654979Y-118964026D01*
X156727004Y-118902511D01*
X156727006Y-118902508D01*
X156732778Y-118897579D01*
X156827479Y-118765788D01*
X156838243Y-118739012D01*
X156885177Y-118622261D01*
X156885178Y-118622259D01*
X156888010Y-118615213D01*
X156910877Y-118454545D01*
X156911025Y-118440400D01*
X156907775Y-118413539D01*
X156892441Y-118286832D01*
X156892441Y-118286831D01*
X156891528Y-118279289D01*
X156834164Y-118127478D01*
X156742244Y-117993733D01*
X156621074Y-117885775D01*
X156598140Y-117873632D01*
X156547298Y-117824082D01*
X156531100Y-117762279D01*
X156531100Y-117257591D01*
X156551102Y-117189470D01*
X156604758Y-117142977D01*
X156608928Y-117141354D01*
X156615151Y-117140368D01*
X156719557Y-117087171D01*
X156721465Y-117086199D01*
X156721466Y-117086198D01*
X156730306Y-117081694D01*
X156821694Y-116990306D01*
X156848495Y-116937707D01*
X156875866Y-116883987D01*
X156875866Y-116883986D01*
X156880368Y-116875151D01*
X156895500Y-116779612D01*
X156895500Y-116240388D01*
X156880368Y-116144849D01*
X156867991Y-116120558D01*
X156826199Y-116038535D01*
X156826198Y-116038534D01*
X156821694Y-116029694D01*
X156730306Y-115938306D01*
X156721466Y-115933802D01*
X156721465Y-115933801D01*
X156623987Y-115884134D01*
X156623986Y-115884134D01*
X156615151Y-115879632D01*
X156519612Y-115864500D01*
X155955388Y-115864500D01*
X155859849Y-115879632D01*
X155851014Y-115884134D01*
X155851013Y-115884134D01*
X155753535Y-115933801D01*
X155753534Y-115933802D01*
X155744694Y-115938306D01*
X155653306Y-116029694D01*
X155648802Y-116038534D01*
X155648801Y-116038535D01*
X155607009Y-116120558D01*
X155594632Y-116144849D01*
X155591205Y-116143103D01*
X155561864Y-116186029D01*
X155496472Y-116213676D01*
X155482088Y-116214500D01*
X155067412Y-116214500D01*
X155064892Y-116214315D01*
X155059915Y-116212606D01*
X155048293Y-116213042D01*
X155048291Y-116213042D01*
X155011838Y-116214411D01*
X155007111Y-116214500D01*
X154661412Y-116214500D01*
X154658892Y-116214315D01*
X154653915Y-116212606D01*
X154642293Y-116213042D01*
X154642291Y-116213042D01*
X154605838Y-116214411D01*
X154601111Y-116214500D01*
X154582514Y-116214500D01*
X154577840Y-116215370D01*
X154574499Y-116215587D01*
X154555536Y-116216299D01*
X154555534Y-116216299D01*
X154543909Y-116216736D01*
X154533222Y-116221327D01*
X154528059Y-116222491D01*
X154518147Y-116225503D01*
X154513215Y-116227406D01*
X154501778Y-116229536D01*
X154482004Y-116241725D01*
X154481272Y-116242176D01*
X154464900Y-116250680D01*
X154450938Y-116256679D01*
X154450936Y-116256680D01*
X154442767Y-116260190D01*
X154437968Y-116264132D01*
X154435786Y-116266314D01*
X154433517Y-116268372D01*
X154433348Y-116268186D01*
X154425315Y-116274537D01*
X154417972Y-116281195D01*
X154408068Y-116287300D01*
X154401028Y-116296558D01*
X154401026Y-116296560D01*
X154391863Y-116308610D01*
X154380661Y-116321439D01*
X154050585Y-116651515D01*
X153988273Y-116685541D01*
X153917458Y-116680476D01*
X153860622Y-116637929D01*
X153836403Y-116577557D01*
X153835658Y-116571396D01*
X153817928Y-116424889D01*
X153769437Y-116296560D01*
X153763249Y-116280183D01*
X153763248Y-116280181D01*
X153760564Y-116273078D01*
X153703686Y-116190320D01*
X153672946Y-116145592D01*
X153672945Y-116145590D01*
X153668644Y-116139333D01*
X153662973Y-116134281D01*
X153662971Y-116134278D01*
X153624682Y-116100164D01*
X153587126Y-116039914D01*
X153582500Y-116006087D01*
X153582500Y-115506500D01*
X153602502Y-115438379D01*
X153656158Y-115391886D01*
X153708500Y-115380500D01*
X154467397Y-115380500D01*
X154467399Y-115380501D01*
X154600601Y-115380501D01*
X154610031Y-115377437D01*
X154610037Y-115377436D01*
X154623039Y-115373211D01*
X154642267Y-115368594D01*
X154665562Y-115364905D01*
X154686583Y-115354194D01*
X154704846Y-115346630D01*
X154717852Y-115342404D01*
X154717855Y-115342402D01*
X154727283Y-115339339D01*
X154736830Y-115332403D01*
X154746369Y-115325472D01*
X154763229Y-115315141D01*
X154773998Y-115309654D01*
X154784245Y-115304433D01*
X154878433Y-115210245D01*
X154878434Y-115210243D01*
X154936243Y-115152434D01*
X154936245Y-115152433D01*
X155002773Y-115085905D01*
X155065085Y-115051879D01*
X155091868Y-115049000D01*
X155448252Y-115049000D01*
X155516373Y-115069002D01*
X155549840Y-115105997D01*
X155551975Y-115104446D01*
X155557802Y-115112466D01*
X155562306Y-115121306D01*
X155653694Y-115212694D01*
X155662534Y-115217198D01*
X155662535Y-115217199D01*
X155760013Y-115266866D01*
X155768849Y-115271368D01*
X155864388Y-115286500D01*
X156403612Y-115286500D01*
X156499151Y-115271368D01*
X156507987Y-115266866D01*
X156605465Y-115217199D01*
X156605466Y-115217198D01*
X156614306Y-115212694D01*
X156705694Y-115121306D01*
X156710198Y-115112466D01*
X156716025Y-115104446D01*
X156718438Y-115106199D01*
X156756219Y-115066188D01*
X156819748Y-115049000D01*
X157328133Y-115049000D01*
X157396254Y-115069002D01*
X157417228Y-115085905D01*
X157605095Y-115273772D01*
X157639121Y-115336084D01*
X157642000Y-115362867D01*
X157642000Y-115824252D01*
X157621998Y-115892373D01*
X157585003Y-115925840D01*
X157586554Y-115927975D01*
X157578534Y-115933802D01*
X157569694Y-115938306D01*
X157478306Y-116029694D01*
X157473802Y-116038534D01*
X157473801Y-116038535D01*
X157432009Y-116120558D01*
X157419632Y-116144849D01*
X157404500Y-116240388D01*
X157404500Y-116779612D01*
X157419632Y-116875151D01*
X157424134Y-116883986D01*
X157424134Y-116883987D01*
X157451506Y-116937707D01*
X157478306Y-116990306D01*
X157569694Y-117081694D01*
X157578534Y-117086198D01*
X157578535Y-117086199D01*
X157672043Y-117133843D01*
X157684849Y-117140368D01*
X157780388Y-117155500D01*
X158344612Y-117155500D01*
X158440151Y-117140368D01*
X158452957Y-117133843D01*
X158546465Y-117086199D01*
X158546466Y-117086198D01*
X158555306Y-117081694D01*
X158646694Y-116990306D01*
X158673495Y-116937707D01*
X158700866Y-116883987D01*
X158700866Y-116883986D01*
X158705368Y-116875151D01*
X158720500Y-116779612D01*
X158720500Y-116240388D01*
X158705368Y-116144849D01*
X158692991Y-116120558D01*
X158651199Y-116038535D01*
X158651198Y-116038534D01*
X158646694Y-116029694D01*
X158555306Y-115938306D01*
X158546466Y-115933802D01*
X158538446Y-115927975D01*
X158540199Y-115925562D01*
X158500188Y-115887781D01*
X158483000Y-115824252D01*
X158483000Y-115512845D01*
X169104763Y-115512845D01*
X169142781Y-115728458D01*
X169144902Y-115736965D01*
X169230001Y-115998871D01*
X169233293Y-116007018D01*
X169354012Y-116254530D01*
X169358397Y-116262126D01*
X169512392Y-116490433D01*
X169517797Y-116497350D01*
X169702059Y-116701994D01*
X169708379Y-116708097D01*
X169919333Y-116885109D01*
X169926436Y-116890269D01*
X170159980Y-117036204D01*
X170167714Y-117040316D01*
X170419304Y-117152331D01*
X170427545Y-117155330D01*
X170692265Y-117231237D01*
X170700845Y-117233061D01*
X170973557Y-117271388D01*
X170982306Y-117272000D01*
X173347885Y-117272000D01*
X173363124Y-117267525D01*
X173364329Y-117266135D01*
X173366000Y-117258452D01*
X173366000Y-117253885D01*
X173874000Y-117253885D01*
X173878475Y-117269124D01*
X173879865Y-117270329D01*
X173887548Y-117272000D01*
X176188765Y-117272000D01*
X176193147Y-117271847D01*
X176399102Y-117257445D01*
X176407788Y-117256224D01*
X176599777Y-117215416D01*
X176670568Y-117220818D01*
X176727201Y-117263635D01*
X176751694Y-117330273D01*
X176748231Y-117369146D01*
X176735048Y-117422020D01*
X176733524Y-117430658D01*
X176725397Y-117507985D01*
X176728077Y-117522636D01*
X176740397Y-117526000D01*
X180967885Y-117526000D01*
X180983124Y-117521525D01*
X180984329Y-117520135D01*
X180986000Y-117512452D01*
X180986000Y-117507885D01*
X181494000Y-117507885D01*
X181498475Y-117523124D01*
X181499865Y-117524329D01*
X181507548Y-117526000D01*
X185740445Y-117526000D01*
X185753314Y-117522221D01*
X185755237Y-117507155D01*
X185717219Y-117291542D01*
X185715098Y-117283035D01*
X185629999Y-117021129D01*
X185626707Y-117012982D01*
X185505988Y-116765470D01*
X185501603Y-116757874D01*
X185347608Y-116529567D01*
X185342203Y-116522650D01*
X185157941Y-116318006D01*
X185151621Y-116311903D01*
X184940667Y-116134891D01*
X184933564Y-116129731D01*
X184700020Y-115983796D01*
X184692286Y-115979684D01*
X184440696Y-115867669D01*
X184432455Y-115864670D01*
X184167735Y-115788763D01*
X184159155Y-115786939D01*
X183886443Y-115748612D01*
X183877694Y-115748000D01*
X181512115Y-115748000D01*
X181496876Y-115752475D01*
X181495671Y-115753865D01*
X181494000Y-115761548D01*
X181494000Y-117507885D01*
X180986000Y-117507885D01*
X180986000Y-115766115D01*
X180981525Y-115750876D01*
X180980135Y-115749671D01*
X180972452Y-115748000D01*
X178671235Y-115748000D01*
X178666853Y-115748153D01*
X178460898Y-115762555D01*
X178452212Y-115763776D01*
X178260223Y-115804584D01*
X178189432Y-115799182D01*
X178132799Y-115756365D01*
X178108306Y-115689727D01*
X178111769Y-115650854D01*
X178124952Y-115597980D01*
X178126476Y-115589342D01*
X178134603Y-115512015D01*
X178131923Y-115497364D01*
X178119603Y-115494000D01*
X173892115Y-115494000D01*
X173876876Y-115498475D01*
X173875671Y-115499865D01*
X173874000Y-115507548D01*
X173874000Y-117253885D01*
X173366000Y-117253885D01*
X173366000Y-115512115D01*
X173361525Y-115496876D01*
X173360135Y-115495671D01*
X173352452Y-115494000D01*
X169119555Y-115494000D01*
X169106686Y-115497779D01*
X169104763Y-115512845D01*
X158483000Y-115512845D01*
X158483000Y-115419901D01*
X158503002Y-115351780D01*
X158556658Y-115305287D01*
X158626932Y-115295183D01*
X158683062Y-115317966D01*
X158689991Y-115323000D01*
X158698717Y-115329340D01*
X158721163Y-115336633D01*
X158739420Y-115344196D01*
X158750209Y-115349693D01*
X158760438Y-115354905D01*
X158783739Y-115358595D01*
X158802955Y-115363208D01*
X158825399Y-115370501D01*
X158958601Y-115370501D01*
X158958603Y-115370500D01*
X159745597Y-115370500D01*
X159844062Y-115354905D01*
X159852895Y-115350404D01*
X159852899Y-115350403D01*
X159879728Y-115336733D01*
X159936930Y-115323000D01*
X160273016Y-115323000D01*
X160279084Y-115321793D01*
X160340112Y-115309654D01*
X160340113Y-115309654D01*
X160352282Y-115307233D01*
X160394185Y-115279234D01*
X160464185Y-115258000D01*
X161642324Y-115257999D01*
X161839290Y-115257999D01*
X161889026Y-115248107D01*
X161899342Y-115241214D01*
X161899344Y-115241213D01*
X161935110Y-115217314D01*
X161945423Y-115210423D01*
X161983107Y-115154026D01*
X161993000Y-115104291D01*
X161992999Y-113675385D01*
X162013001Y-113607265D01*
X162066657Y-113560772D01*
X162136931Y-113550668D01*
X162183140Y-113566933D01*
X162225141Y-113591773D01*
X162273592Y-113643667D01*
X162287000Y-113700226D01*
X162287000Y-113768016D01*
X162302767Y-113847282D01*
X162335870Y-113896823D01*
X162337991Y-113899998D01*
X162359206Y-113967751D01*
X162337991Y-114040001D01*
X162302767Y-114092718D01*
X162287000Y-114171984D01*
X162287000Y-114428016D01*
X162302767Y-114507282D01*
X162335958Y-114556955D01*
X162337991Y-114559998D01*
X162359206Y-114627751D01*
X162337991Y-114700001D01*
X162302767Y-114752718D01*
X162287000Y-114831984D01*
X162287000Y-115088016D01*
X162302767Y-115167282D01*
X162362829Y-115257171D01*
X162373145Y-115264064D01*
X162387674Y-115273772D01*
X162452718Y-115317233D01*
X162531984Y-115333000D01*
X162728070Y-115333000D01*
X162785272Y-115346733D01*
X162812101Y-115360403D01*
X162812105Y-115360404D01*
X162820938Y-115364905D01*
X162919403Y-115380500D01*
X164221397Y-115380500D01*
X164221399Y-115380501D01*
X164354601Y-115380501D01*
X164364031Y-115377437D01*
X164364037Y-115377436D01*
X164377039Y-115373211D01*
X164396267Y-115368594D01*
X164419562Y-115364905D01*
X164440583Y-115354194D01*
X164458846Y-115346630D01*
X164471852Y-115342404D01*
X164471855Y-115342402D01*
X164481283Y-115339339D01*
X164490830Y-115332403D01*
X164500369Y-115325472D01*
X164517229Y-115315141D01*
X164527998Y-115309654D01*
X164538245Y-115304433D01*
X164632433Y-115210245D01*
X164632434Y-115210243D01*
X164874692Y-114967985D01*
X169105397Y-114967985D01*
X169108077Y-114982636D01*
X169120397Y-114986000D01*
X173347885Y-114986000D01*
X173363124Y-114981525D01*
X173364329Y-114980135D01*
X173366000Y-114972452D01*
X173366000Y-114967885D01*
X173874000Y-114967885D01*
X173878475Y-114983124D01*
X173879865Y-114984329D01*
X173887548Y-114986000D01*
X178120445Y-114986000D01*
X178133314Y-114982221D01*
X178135237Y-114967155D01*
X178097219Y-114751542D01*
X178095098Y-114743035D01*
X178009999Y-114481129D01*
X178006707Y-114472982D01*
X177885988Y-114225470D01*
X177881603Y-114217874D01*
X177727608Y-113989567D01*
X177722203Y-113982650D01*
X177537941Y-113778006D01*
X177531621Y-113771903D01*
X177320667Y-113594891D01*
X177313564Y-113589731D01*
X177080020Y-113443796D01*
X177072286Y-113439684D01*
X176820696Y-113327669D01*
X176812455Y-113324670D01*
X176547735Y-113248763D01*
X176539155Y-113246939D01*
X176266443Y-113208612D01*
X176257694Y-113208000D01*
X173892115Y-113208000D01*
X173876876Y-113212475D01*
X173875671Y-113213865D01*
X173874000Y-113221548D01*
X173874000Y-114967885D01*
X173366000Y-114967885D01*
X173366000Y-113226115D01*
X173361525Y-113210876D01*
X173360135Y-113209671D01*
X173352452Y-113208000D01*
X171051235Y-113208000D01*
X171046853Y-113208153D01*
X170840898Y-113222555D01*
X170832209Y-113223776D01*
X170562833Y-113281033D01*
X170554408Y-113283449D01*
X170295626Y-113377639D01*
X170287606Y-113381210D01*
X170044467Y-113510488D01*
X170037011Y-113515147D01*
X169814229Y-113677008D01*
X169807499Y-113682655D01*
X169609404Y-113873952D01*
X169603533Y-113880474D01*
X169433990Y-114097479D01*
X169429084Y-114104752D01*
X169291392Y-114343243D01*
X169287543Y-114351135D01*
X169184384Y-114606461D01*
X169181668Y-114614819D01*
X169115048Y-114882016D01*
X169113524Y-114890658D01*
X169105397Y-114967985D01*
X164874692Y-114967985D01*
X165198243Y-114644434D01*
X165198245Y-114644433D01*
X165214927Y-114627751D01*
X165229960Y-114614911D01*
X165241026Y-114606871D01*
X165249045Y-114601045D01*
X165262912Y-114581959D01*
X165275752Y-114566926D01*
X165292435Y-114550243D01*
X166051941Y-113790735D01*
X166051945Y-113790733D01*
X166146133Y-113696545D01*
X166156842Y-113675527D01*
X166167174Y-113658667D01*
X166175208Y-113647609D01*
X166175209Y-113647607D01*
X166181039Y-113639583D01*
X166184103Y-113630152D01*
X166184105Y-113630149D01*
X166188330Y-113617146D01*
X166195894Y-113598883D01*
X166206605Y-113577862D01*
X166210294Y-113554567D01*
X166214911Y-113535339D01*
X166219136Y-113522337D01*
X166219137Y-113522331D01*
X166222201Y-113512901D01*
X166222201Y-113379699D01*
X166222200Y-113379696D01*
X166222200Y-112638304D01*
X166222201Y-112638301D01*
X166222201Y-112505099D01*
X166219135Y-112495662D01*
X166214911Y-112482660D01*
X166210295Y-112463436D01*
X166208156Y-112449930D01*
X166208156Y-112449929D01*
X166206605Y-112440138D01*
X166202103Y-112431302D01*
X166195895Y-112419118D01*
X166188332Y-112400862D01*
X166181040Y-112378418D01*
X166167174Y-112359333D01*
X166156845Y-112342477D01*
X166150635Y-112330290D01*
X166150634Y-112330289D01*
X166146133Y-112321455D01*
X166051945Y-112227267D01*
X166051943Y-112227266D01*
X165371260Y-111546583D01*
X165337234Y-111484271D01*
X165334725Y-111448025D01*
X165335277Y-111444145D01*
X165335425Y-111430000D01*
X165333679Y-111415567D01*
X165316841Y-111276432D01*
X165316841Y-111276431D01*
X165315928Y-111268889D01*
X165268056Y-111142198D01*
X165261249Y-111124183D01*
X165261248Y-111124181D01*
X165258564Y-111117078D01*
X165212604Y-111050205D01*
X165170946Y-110989592D01*
X165170945Y-110989590D01*
X165166644Y-110983333D01*
X165160973Y-110978281D01*
X165160971Y-110978278D01*
X165122682Y-110944164D01*
X165085126Y-110883914D01*
X165080500Y-110850087D01*
X165080500Y-101861607D01*
X165080501Y-101861595D01*
X165080501Y-101728399D01*
X165073208Y-101705955D01*
X165068595Y-101686737D01*
X165066456Y-101673231D01*
X165064905Y-101663438D01*
X165054196Y-101642420D01*
X165046633Y-101624163D01*
X165039340Y-101601717D01*
X165025474Y-101582632D01*
X165015144Y-101565775D01*
X165008935Y-101553590D01*
X165008934Y-101553589D01*
X165004433Y-101544755D01*
X164910245Y-101450567D01*
X164910243Y-101450566D01*
X164358948Y-100899271D01*
X184596668Y-100899271D01*
X184596755Y-100903273D01*
X184596755Y-100903280D01*
X184603261Y-101201448D01*
X184603349Y-101205465D01*
X184648883Y-101508330D01*
X184649979Y-101512190D01*
X184649980Y-101512195D01*
X184681766Y-101624151D01*
X184732531Y-101802953D01*
X184852937Y-102084560D01*
X185008149Y-102348585D01*
X185195651Y-102590747D01*
X185412404Y-102807122D01*
X185415585Y-102809576D01*
X185415586Y-102809577D01*
X185651701Y-102991739D01*
X185651705Y-102991742D01*
X185654894Y-102994202D01*
X185658373Y-102996239D01*
X185907511Y-103142115D01*
X185919189Y-103148953D01*
X185922874Y-103150521D01*
X185922878Y-103150523D01*
X185984394Y-103176698D01*
X186201006Y-103268867D01*
X186495775Y-103352001D01*
X186695796Y-103381716D01*
X186795419Y-103396516D01*
X186795421Y-103396516D01*
X186798718Y-103397006D01*
X186802049Y-103397146D01*
X186802053Y-103397146D01*
X186838737Y-103398683D01*
X186882084Y-103400500D01*
X187077474Y-103400500D01*
X187200915Y-103392626D01*
X187301639Y-103386201D01*
X187301644Y-103386200D01*
X187305647Y-103385945D01*
X187309584Y-103385183D01*
X187309586Y-103385183D01*
X187602401Y-103328530D01*
X187602405Y-103328529D01*
X187606338Y-103327768D01*
X187897200Y-103231856D01*
X188173518Y-103099763D01*
X188430812Y-102933631D01*
X188664910Y-102736152D01*
X188858215Y-102525567D01*
X188869304Y-102513487D01*
X188869306Y-102513485D01*
X188872019Y-102510529D01*
X188881942Y-102496489D01*
X189006369Y-102320428D01*
X189048780Y-102260418D01*
X189192328Y-101989874D01*
X189200128Y-101969177D01*
X189298919Y-101707044D01*
X189298921Y-101707038D01*
X189300336Y-101703283D01*
X189323472Y-101605791D01*
X189370124Y-101409207D01*
X189370125Y-101409202D01*
X189371053Y-101405291D01*
X189403332Y-101100729D01*
X189401921Y-101036020D01*
X189396739Y-100798552D01*
X189396739Y-100798547D01*
X189396651Y-100794535D01*
X189351117Y-100491670D01*
X189267469Y-100197047D01*
X189147063Y-99915440D01*
X188991851Y-99651415D01*
X188804349Y-99409253D01*
X188587596Y-99192878D01*
X188584414Y-99190423D01*
X188348299Y-99008261D01*
X188348295Y-99008258D01*
X188345106Y-99005798D01*
X188168538Y-98902413D01*
X188084275Y-98853075D01*
X188084272Y-98853073D01*
X188080811Y-98851047D01*
X188077126Y-98849479D01*
X188077122Y-98849477D01*
X187890051Y-98769878D01*
X187798994Y-98731133D01*
X187504225Y-98647999D01*
X187274014Y-98613799D01*
X187204581Y-98603484D01*
X187204579Y-98603484D01*
X187201282Y-98602994D01*
X187197951Y-98602854D01*
X187197947Y-98602854D01*
X187161263Y-98601317D01*
X187117916Y-98599500D01*
X186922526Y-98599500D01*
X186799085Y-98607374D01*
X186698361Y-98613799D01*
X186698356Y-98613800D01*
X186694353Y-98614055D01*
X186690416Y-98614817D01*
X186690414Y-98614817D01*
X186397599Y-98671470D01*
X186397595Y-98671471D01*
X186393662Y-98672232D01*
X186102800Y-98768144D01*
X185826482Y-98900237D01*
X185569188Y-99066369D01*
X185566123Y-99068954D01*
X185566121Y-99068956D01*
X185557523Y-99076209D01*
X185335090Y-99263848D01*
X185127981Y-99489471D01*
X184951220Y-99739582D01*
X184807672Y-100010126D01*
X184806257Y-100013882D01*
X184806256Y-100013883D01*
X184735768Y-100200919D01*
X184699664Y-100296717D01*
X184698735Y-100300632D01*
X184630546Y-100587973D01*
X184628947Y-100594709D01*
X184596668Y-100899271D01*
X164358948Y-100899271D01*
X163539434Y-100079757D01*
X163539433Y-100079755D01*
X163445245Y-99985567D01*
X163424229Y-99974859D01*
X163407369Y-99964528D01*
X163396302Y-99956487D01*
X163396301Y-99956486D01*
X163388283Y-99950661D01*
X163378855Y-99947598D01*
X163378852Y-99947596D01*
X163365846Y-99943370D01*
X163347583Y-99935806D01*
X163326562Y-99925095D01*
X163303267Y-99921406D01*
X163284039Y-99916789D01*
X163271037Y-99912564D01*
X163271031Y-99912563D01*
X163261601Y-99909499D01*
X163128399Y-99909499D01*
X163128397Y-99909500D01*
X161986499Y-99909500D01*
X161918378Y-99889498D01*
X161871885Y-99835842D01*
X161860499Y-99783500D01*
X161860499Y-99463210D01*
X161850607Y-99413474D01*
X161812923Y-99357077D01*
X161756526Y-99319393D01*
X161706791Y-99309500D01*
X160840141Y-99309500D01*
X159973210Y-99309501D01*
X159923474Y-99319393D01*
X159913158Y-99326286D01*
X159913156Y-99326287D01*
X159882026Y-99347088D01*
X159867077Y-99357077D01*
X159829393Y-99413474D01*
X159819500Y-99463209D01*
X159819501Y-101196790D01*
X159829393Y-101246526D01*
X159867077Y-101302923D01*
X159923474Y-101340607D01*
X159973209Y-101350500D01*
X160326513Y-101350500D01*
X160394634Y-101370502D01*
X160441127Y-101424158D01*
X160451231Y-101494432D01*
X160421737Y-101559012D01*
X160365657Y-101596265D01*
X160316871Y-101612210D01*
X160307359Y-101616209D01*
X160118463Y-101714542D01*
X160109738Y-101720036D01*
X159939433Y-101847905D01*
X159931726Y-101854748D01*
X159784590Y-102008717D01*
X159778104Y-102016727D01*
X159658098Y-102192649D01*
X159653000Y-102201623D01*
X159563338Y-102394783D01*
X159559775Y-102404470D01*
X159504389Y-102604183D01*
X159505912Y-102612607D01*
X159518292Y-102616000D01*
X162158344Y-102616000D01*
X162171875Y-102612027D01*
X162173180Y-102602947D01*
X162131214Y-102435875D01*
X162127894Y-102426124D01*
X162042972Y-102230814D01*
X162038105Y-102221739D01*
X161922426Y-102042926D01*
X161916136Y-102034757D01*
X161772806Y-101877240D01*
X161765273Y-101870215D01*
X161598139Y-101738222D01*
X161589552Y-101732517D01*
X161403117Y-101629599D01*
X161393705Y-101625368D01*
X161308716Y-101595272D01*
X161251179Y-101553677D01*
X161225264Y-101487580D01*
X161239198Y-101417964D01*
X161288557Y-101366933D01*
X161350775Y-101350499D01*
X161706790Y-101350499D01*
X161756526Y-101340607D01*
X161766842Y-101333714D01*
X161766844Y-101333713D01*
X161802610Y-101309814D01*
X161812923Y-101302923D01*
X161850607Y-101246526D01*
X161860500Y-101196791D01*
X161860500Y-100876500D01*
X161880502Y-100808379D01*
X161934158Y-100761886D01*
X161986500Y-100750500D01*
X162968633Y-100750500D01*
X163036754Y-100770502D01*
X163057728Y-100787405D01*
X164202595Y-101932272D01*
X164236621Y-101994584D01*
X164239500Y-102021367D01*
X164239500Y-110849720D01*
X164219498Y-110917841D01*
X164196329Y-110944669D01*
X164195644Y-110945267D01*
X164158061Y-110978052D01*
X164064746Y-111110827D01*
X164005795Y-111262029D01*
X164004804Y-111269556D01*
X163986174Y-111411065D01*
X163984612Y-111422927D01*
X164002420Y-111584234D01*
X164009951Y-111604813D01*
X164055580Y-111729501D01*
X164055582Y-111729505D01*
X164058192Y-111736637D01*
X164062429Y-111742943D01*
X164062431Y-111742946D01*
X164079272Y-111768007D01*
X164148707Y-111871337D01*
X164154325Y-111876449D01*
X164263118Y-111975444D01*
X164263122Y-111975447D01*
X164268739Y-111980558D01*
X164275412Y-111984181D01*
X164275416Y-111984184D01*
X164401240Y-112052500D01*
X164411359Y-112057994D01*
X164568334Y-112099176D01*
X164686123Y-112101026D01*
X164753920Y-112122095D01*
X164773238Y-112137915D01*
X165344295Y-112708972D01*
X165378321Y-112771284D01*
X165381200Y-112798067D01*
X165381200Y-113219933D01*
X165361198Y-113288054D01*
X165344295Y-113309028D01*
X165037095Y-113616228D01*
X164974783Y-113650254D01*
X164903968Y-113645189D01*
X164858905Y-113616228D01*
X164632434Y-113389757D01*
X164632433Y-113389755D01*
X164538245Y-113295567D01*
X164524954Y-113288795D01*
X164473338Y-113240047D01*
X164459489Y-113189135D01*
X164457804Y-113186530D01*
X164448913Y-113182500D01*
X163131000Y-113182500D01*
X163062879Y-113162498D01*
X163016386Y-113108842D01*
X163005000Y-113056500D01*
X163005000Y-112759385D01*
X163410000Y-112759385D01*
X163414475Y-112774624D01*
X163415865Y-112775829D01*
X163423548Y-112777500D01*
X164443161Y-112777500D01*
X164456692Y-112773527D01*
X164457827Y-112765629D01*
X164422048Y-112642478D01*
X164415799Y-112628039D01*
X164345516Y-112509196D01*
X164335869Y-112496760D01*
X164238240Y-112399131D01*
X164225804Y-112389484D01*
X164106961Y-112319201D01*
X164092522Y-112312952D01*
X163958500Y-112274015D01*
X163945896Y-112271713D01*
X163920236Y-112269693D01*
X163915306Y-112269500D01*
X163428115Y-112269500D01*
X163412876Y-112273975D01*
X163411671Y-112275365D01*
X163410000Y-112283048D01*
X163410000Y-112759385D01*
X163005000Y-112759385D01*
X163005000Y-112287616D01*
X163000525Y-112272377D01*
X162999135Y-112271172D01*
X162991452Y-112269501D01*
X162499698Y-112269501D01*
X162494758Y-112269695D01*
X162469102Y-112271713D01*
X162456504Y-112274014D01*
X162322478Y-112312952D01*
X162308039Y-112319201D01*
X162189196Y-112389484D01*
X162176760Y-112399131D01*
X162079131Y-112496760D01*
X162069484Y-112509196D01*
X161999271Y-112627920D01*
X161947378Y-112676373D01*
X161877528Y-112689078D01*
X161866245Y-112687361D01*
X161839291Y-112682000D01*
X161673812Y-112682000D01*
X160494119Y-112682001D01*
X160424117Y-112660766D01*
X160396748Y-112642478D01*
X160352282Y-112612767D01*
X160273016Y-112597000D01*
X159936930Y-112597000D01*
X159879728Y-112583267D01*
X159852899Y-112569597D01*
X159852895Y-112569596D01*
X159844062Y-112565095D01*
X159745597Y-112549500D01*
X158788500Y-112549500D01*
X158720379Y-112529498D01*
X158673886Y-112475842D01*
X158662500Y-112423500D01*
X158662500Y-112136267D01*
X158682502Y-112068146D01*
X158731885Y-112023703D01*
X158793774Y-111992576D01*
X158820060Y-111970126D01*
X158911404Y-111892111D01*
X158911406Y-111892108D01*
X158917178Y-111887179D01*
X159011879Y-111755388D01*
X159072410Y-111604813D01*
X159095277Y-111444145D01*
X159095425Y-111430000D01*
X159093679Y-111415567D01*
X159076841Y-111276432D01*
X159076841Y-111276431D01*
X159075928Y-111268889D01*
X159028056Y-111142198D01*
X159021249Y-111124183D01*
X159021248Y-111124181D01*
X159018564Y-111117078D01*
X158972604Y-111050205D01*
X158930946Y-110989592D01*
X158930945Y-110989590D01*
X158926644Y-110983333D01*
X158920971Y-110978278D01*
X158881202Y-110942846D01*
X158805474Y-110875375D01*
X158662051Y-110799436D01*
X158652098Y-110796936D01*
X158512024Y-110761752D01*
X158512021Y-110761752D01*
X158504653Y-110759901D01*
X158497054Y-110759861D01*
X158497052Y-110759861D01*
X158430042Y-110759510D01*
X158342369Y-110759051D01*
X158334989Y-110760823D01*
X158334987Y-110760823D01*
X158191945Y-110795164D01*
X158191941Y-110795165D01*
X158184566Y-110796936D01*
X158040355Y-110871369D01*
X158034633Y-110876361D01*
X158034631Y-110876362D01*
X157933048Y-110964978D01*
X157918061Y-110978052D01*
X157824746Y-111110827D01*
X157765795Y-111262029D01*
X157764804Y-111269556D01*
X157746174Y-111411065D01*
X157744612Y-111422927D01*
X157762420Y-111584234D01*
X157813826Y-111724708D01*
X157821500Y-111768007D01*
X157821500Y-112257000D01*
X157801498Y-112325121D01*
X157747842Y-112371614D01*
X157695500Y-112383000D01*
X156819748Y-112383000D01*
X156751627Y-112362998D01*
X156718160Y-112326003D01*
X156716025Y-112327554D01*
X156710198Y-112319534D01*
X156705694Y-112310694D01*
X156614306Y-112219306D01*
X156605466Y-112214802D01*
X156605465Y-112214801D01*
X156507987Y-112165134D01*
X156507986Y-112165134D01*
X156499151Y-112160632D01*
X156403612Y-112145500D01*
X156122867Y-112145500D01*
X156054746Y-112125498D01*
X156033772Y-112108595D01*
X155434934Y-111509757D01*
X155434933Y-111509755D01*
X155340745Y-111415567D01*
X155319729Y-111404859D01*
X155302869Y-111394528D01*
X155291802Y-111386487D01*
X155291801Y-111386486D01*
X155283783Y-111380661D01*
X155274355Y-111377598D01*
X155274352Y-111377596D01*
X155261346Y-111373370D01*
X155243082Y-111365805D01*
X155222062Y-111355095D01*
X155198767Y-111351406D01*
X155179539Y-111346789D01*
X155166537Y-111342564D01*
X155166531Y-111342563D01*
X155157101Y-111339499D01*
X155023899Y-111339499D01*
X155023897Y-111339500D01*
X148656603Y-111339500D01*
X148656601Y-111339499D01*
X148523399Y-111339499D01*
X148513964Y-111342565D01*
X148513962Y-111342565D01*
X148500960Y-111346789D01*
X148481736Y-111351405D01*
X148468230Y-111353544D01*
X148468229Y-111353544D01*
X148458438Y-111355095D01*
X148449603Y-111359597D01*
X148449602Y-111359597D01*
X148437418Y-111365805D01*
X148419162Y-111373368D01*
X148396718Y-111380660D01*
X148388694Y-111386490D01*
X148377633Y-111394526D01*
X148360777Y-111404855D01*
X148348590Y-111411065D01*
X148348589Y-111411066D01*
X148339755Y-111415567D01*
X148245567Y-111509755D01*
X148245566Y-111509757D01*
X147755511Y-111999812D01*
X147755509Y-111999813D01*
X147661321Y-112094001D01*
X147656817Y-112102841D01*
X147650613Y-112115017D01*
X147640282Y-112131877D01*
X147626415Y-112150963D01*
X147623352Y-112160391D01*
X147623350Y-112160394D01*
X147619124Y-112173400D01*
X147611560Y-112191663D01*
X147600849Y-112212684D01*
X147598540Y-112227267D01*
X147597160Y-112235978D01*
X147592543Y-112255207D01*
X147588318Y-112268209D01*
X147588317Y-112268215D01*
X147585253Y-112277645D01*
X147585253Y-112410847D01*
X147585254Y-112410850D01*
X147585254Y-112912642D01*
X147585253Y-112912645D01*
X147585253Y-113045847D01*
X147585254Y-113045850D01*
X147585254Y-113547642D01*
X147585253Y-113547645D01*
X147585253Y-113680841D01*
X147585254Y-113680853D01*
X147585254Y-113964791D01*
X147565252Y-114032912D01*
X147511596Y-114079405D01*
X147441322Y-114089509D01*
X147428559Y-114086995D01*
X147336024Y-114063752D01*
X147336021Y-114063752D01*
X147328653Y-114061901D01*
X147321054Y-114061861D01*
X147321052Y-114061861D01*
X147254042Y-114061510D01*
X147166369Y-114061051D01*
X147158989Y-114062823D01*
X147158987Y-114062823D01*
X147015945Y-114097164D01*
X147015941Y-114097165D01*
X147008566Y-114098936D01*
X146982091Y-114112601D01*
X146879330Y-114165640D01*
X146864355Y-114173369D01*
X146858633Y-114178361D01*
X146858631Y-114178362D01*
X146768110Y-114257328D01*
X146742061Y-114280052D01*
X146648746Y-114412827D01*
X146589795Y-114564029D01*
X146588804Y-114571556D01*
X146570155Y-114713210D01*
X146568612Y-114724927D01*
X146576845Y-114799498D01*
X146584820Y-114871742D01*
X146572414Y-114941646D01*
X146524184Y-114993746D01*
X146455443Y-115011500D01*
X146400624Y-114996923D01*
X146292051Y-114939436D01*
X146282098Y-114936936D01*
X146142024Y-114901752D01*
X146142021Y-114901752D01*
X146134653Y-114899901D01*
X146127054Y-114899861D01*
X146127052Y-114899861D01*
X146060042Y-114899510D01*
X145972369Y-114899051D01*
X145964989Y-114900823D01*
X145964987Y-114900823D01*
X145821945Y-114935164D01*
X145821941Y-114935165D01*
X145814566Y-114936936D01*
X145670355Y-115011369D01*
X145664633Y-115016361D01*
X145664631Y-115016362D01*
X145584912Y-115085905D01*
X145548061Y-115118052D01*
X145454746Y-115250827D01*
X145395795Y-115402029D01*
X145394804Y-115409556D01*
X145375931Y-115552911D01*
X145374612Y-115562927D01*
X145392420Y-115724234D01*
X145407957Y-115766691D01*
X145445580Y-115869501D01*
X145445582Y-115869505D01*
X145448192Y-115876637D01*
X145452429Y-115882943D01*
X145452431Y-115882946D01*
X145489085Y-115937492D01*
X145538707Y-116011337D01*
X145544325Y-116016449D01*
X145653118Y-116115444D01*
X145653122Y-116115447D01*
X145658739Y-116120558D01*
X145695044Y-116140270D01*
X145699647Y-116142769D01*
X145749968Y-116192851D01*
X145765225Y-116262189D01*
X145740573Y-116328768D01*
X145683839Y-116371450D01*
X145639525Y-116379500D01*
X145281903Y-116379500D01*
X145183438Y-116395095D01*
X145174605Y-116399596D01*
X145174601Y-116399597D01*
X145147772Y-116413267D01*
X145090570Y-116427000D01*
X144754484Y-116427000D01*
X144748416Y-116428207D01*
X144687388Y-116440346D01*
X144687387Y-116440346D01*
X144675218Y-116442767D01*
X144633315Y-116470766D01*
X144563315Y-116492000D01*
X143385176Y-116492001D01*
X143188210Y-116492001D01*
X143138474Y-116501893D01*
X143128158Y-116508786D01*
X143128156Y-116508787D01*
X143098156Y-116528833D01*
X143082077Y-116539577D01*
X143044393Y-116595974D01*
X143034500Y-116645709D01*
X142737263Y-116645709D01*
X142724733Y-116582718D01*
X142664671Y-116492829D01*
X142574782Y-116432767D01*
X142495516Y-116417000D01*
X142044430Y-116417000D01*
X141987228Y-116403267D01*
X141960399Y-116389597D01*
X141960395Y-116389596D01*
X141951562Y-116385095D01*
X141853097Y-116369500D01*
X140187708Y-116369500D01*
X140119587Y-116349498D01*
X140073094Y-116295842D01*
X140062990Y-116225568D01*
X140080448Y-116177384D01*
X140162816Y-116043757D01*
X140168963Y-116030576D01*
X140220138Y-115876290D01*
X140223472Y-115860737D01*
X140257309Y-115798323D01*
X140319519Y-115764110D01*
X140394890Y-115770740D01*
X140508637Y-115817855D01*
X140508642Y-115817856D01*
X140516270Y-115821016D01*
X140665200Y-115840623D01*
X140673388Y-115839545D01*
X140805942Y-115822094D01*
X140814130Y-115821016D01*
X140821757Y-115817857D01*
X140821760Y-115817856D01*
X140883521Y-115792274D01*
X140952912Y-115763531D01*
X141020766Y-115711465D01*
X141065535Y-115677113D01*
X141065536Y-115677112D01*
X141072086Y-115672086D01*
X141109852Y-115622868D01*
X141119728Y-115609997D01*
X141177066Y-115568129D01*
X141219691Y-115560700D01*
X141270770Y-115560700D01*
X141338891Y-115580702D01*
X141383037Y-115629497D01*
X141429306Y-115720306D01*
X141520694Y-115811694D01*
X141529534Y-115816198D01*
X141529535Y-115816199D01*
X141613687Y-115859076D01*
X141635849Y-115870368D01*
X141731388Y-115885500D01*
X142295612Y-115885500D01*
X142391151Y-115870368D01*
X142413313Y-115859076D01*
X142497465Y-115816199D01*
X142497466Y-115816198D01*
X142506306Y-115811694D01*
X142597694Y-115720306D01*
X142633881Y-115649285D01*
X142682628Y-115597670D01*
X142751542Y-115580604D01*
X142818744Y-115603504D01*
X142862897Y-115659102D01*
X142865670Y-115666611D01*
X142906485Y-115788948D01*
X142912653Y-115802115D01*
X142996426Y-115937492D01*
X143005460Y-115948890D01*
X143118129Y-116061363D01*
X143129540Y-116070375D01*
X143265063Y-116153912D01*
X143278241Y-116160056D01*
X143429766Y-116210315D01*
X143443132Y-116213181D01*
X143535770Y-116222672D01*
X143542185Y-116223000D01*
X143566385Y-116223000D01*
X143581624Y-116218525D01*
X143582829Y-116217135D01*
X143584500Y-116209452D01*
X143584500Y-116204885D01*
X144092500Y-116204885D01*
X144096975Y-116220124D01*
X144098365Y-116221329D01*
X144106048Y-116223000D01*
X144134766Y-116223000D01*
X144141282Y-116222663D01*
X144235132Y-116212925D01*
X144248528Y-116210032D01*
X144399953Y-116159512D01*
X144413115Y-116153347D01*
X144548492Y-116069574D01*
X144559890Y-116060540D01*
X144672363Y-115947871D01*
X144681375Y-115936460D01*
X144764912Y-115800937D01*
X144771056Y-115787759D01*
X144821315Y-115636234D01*
X144824181Y-115622868D01*
X144833672Y-115530230D01*
X144834000Y-115523815D01*
X144834000Y-115512115D01*
X144829525Y-115496876D01*
X144828135Y-115495671D01*
X144820452Y-115494000D01*
X144110615Y-115494000D01*
X144095376Y-115498475D01*
X144094171Y-115499865D01*
X144092500Y-115507548D01*
X144092500Y-116204885D01*
X143584500Y-116204885D01*
X143584500Y-114967885D01*
X144092500Y-114967885D01*
X144096975Y-114983124D01*
X144098365Y-114984329D01*
X144106048Y-114986000D01*
X144815885Y-114986000D01*
X144831124Y-114981525D01*
X144832329Y-114980135D01*
X144834000Y-114972452D01*
X144834000Y-114956234D01*
X144833663Y-114949718D01*
X144823925Y-114855868D01*
X144821032Y-114842472D01*
X144770512Y-114691047D01*
X144764347Y-114677885D01*
X144680574Y-114542508D01*
X144671540Y-114531110D01*
X144558871Y-114418637D01*
X144547460Y-114409625D01*
X144411937Y-114326088D01*
X144398759Y-114319944D01*
X144247234Y-114269685D01*
X144233868Y-114266819D01*
X144141230Y-114257328D01*
X144134815Y-114257000D01*
X144110615Y-114257000D01*
X144095376Y-114261475D01*
X144094171Y-114262865D01*
X144092500Y-114270548D01*
X144092500Y-114967885D01*
X143584500Y-114967885D01*
X143584500Y-114275115D01*
X143580025Y-114259876D01*
X143578635Y-114258671D01*
X143570952Y-114257000D01*
X143542234Y-114257000D01*
X143535718Y-114257337D01*
X143441868Y-114267075D01*
X143428472Y-114269968D01*
X143277047Y-114320488D01*
X143263885Y-114326653D01*
X143128508Y-114410426D01*
X143117110Y-114419460D01*
X143004637Y-114532129D01*
X142995625Y-114543540D01*
X142912088Y-114679063D01*
X142905944Y-114692240D01*
X142865795Y-114813286D01*
X142825365Y-114871646D01*
X142759800Y-114898883D01*
X142689919Y-114886350D01*
X142637907Y-114838025D01*
X142633935Y-114830822D01*
X142631436Y-114825916D01*
X142597694Y-114759694D01*
X142506306Y-114668306D01*
X142497466Y-114663802D01*
X142489446Y-114657975D01*
X142491199Y-114655562D01*
X142451188Y-114617781D01*
X142434000Y-114554252D01*
X142434000Y-112870107D01*
X142434001Y-112870095D01*
X142434001Y-112736899D01*
X142429383Y-112722686D01*
X142426711Y-112714460D01*
X142422095Y-112695236D01*
X142419956Y-112681730D01*
X142419956Y-112681729D01*
X142418405Y-112671938D01*
X142407695Y-112650918D01*
X142400132Y-112632662D01*
X142392840Y-112610218D01*
X142378974Y-112591133D01*
X142368645Y-112574277D01*
X142362435Y-112562090D01*
X142362434Y-112562089D01*
X142357933Y-112553255D01*
X142263745Y-112459067D01*
X142263743Y-112459066D01*
X139156934Y-109352257D01*
X139156933Y-109352255D01*
X139062745Y-109258067D01*
X139041729Y-109247359D01*
X139024869Y-109237028D01*
X139013802Y-109228987D01*
X139013801Y-109228986D01*
X139005783Y-109223161D01*
X138996355Y-109220098D01*
X138996352Y-109220096D01*
X138983346Y-109215870D01*
X138965083Y-109208306D01*
X138944062Y-109197595D01*
X138920767Y-109193906D01*
X138901539Y-109189289D01*
X138888537Y-109185064D01*
X138888531Y-109185063D01*
X138879101Y-109181999D01*
X138745899Y-109181999D01*
X138745897Y-109182000D01*
X135120636Y-109182000D01*
X135052515Y-109161998D01*
X135006022Y-109108342D01*
X134995918Y-109038068D01*
X135004228Y-109007781D01*
X135005338Y-109005101D01*
X135012233Y-108994782D01*
X135028000Y-108915516D01*
X135028000Y-108579430D01*
X135041733Y-108522228D01*
X135055403Y-108495399D01*
X135055404Y-108495395D01*
X135059905Y-108486562D01*
X135075500Y-108388097D01*
X135075500Y-106758015D01*
X135077051Y-106738304D01*
X135079191Y-106724793D01*
X135080742Y-106715000D01*
X135059905Y-106583438D01*
X134999433Y-106464755D01*
X134905245Y-106370567D01*
X134786562Y-106310095D01*
X134688097Y-106294500D01*
X134655000Y-106289258D01*
X134645207Y-106290809D01*
X134631696Y-106292949D01*
X134611985Y-106294500D01*
X133959603Y-106294500D01*
X133959601Y-106294499D01*
X133826399Y-106294499D01*
X133826397Y-106294500D01*
X133381603Y-106294500D01*
X133381601Y-106294499D01*
X133248399Y-106294499D01*
X133248397Y-106294500D01*
X132619603Y-106294500D01*
X132619601Y-106294499D01*
X132486399Y-106294499D01*
X132486397Y-106294500D01*
X131390298Y-106294500D01*
X131322177Y-106274498D01*
X131275684Y-106220842D01*
X131265580Y-106150568D01*
X131295074Y-106085988D01*
X131338146Y-106053800D01*
X131400020Y-106025667D01*
X131400023Y-106025665D01*
X131404108Y-106023808D01*
X131445631Y-105997253D01*
X131554132Y-105903763D01*
X131586534Y-105866621D01*
X131664434Y-105746436D01*
X131668013Y-105738691D01*
X131683229Y-105705760D01*
X131683230Y-105705758D01*
X131685109Y-105701691D01*
X131726145Y-105564473D01*
X131733430Y-105515727D01*
X131734305Y-105372506D01*
X131733966Y-105370028D01*
X131733840Y-105366163D01*
X131733840Y-104940000D01*
X131720607Y-104873474D01*
X131713714Y-104863159D01*
X131713712Y-104863153D01*
X131711606Y-104860002D01*
X131709127Y-104852085D01*
X131708963Y-104851689D01*
X131708998Y-104851674D01*
X131690391Y-104792249D01*
X131709143Y-104728386D01*
X131708963Y-104728311D01*
X131709657Y-104726635D01*
X131711606Y-104719998D01*
X131713712Y-104716847D01*
X131713714Y-104716841D01*
X131720607Y-104706526D01*
X131733840Y-104640000D01*
X131733840Y-104149061D01*
X131733842Y-104148291D01*
X131734278Y-104076992D01*
X131734278Y-104076986D01*
X131734305Y-104072506D01*
X131727616Y-104023673D01*
X131711060Y-103965743D01*
X131689493Y-103890280D01*
X131689491Y-103890274D01*
X131688259Y-103885964D01*
X131668132Y-103840972D01*
X131661372Y-103830258D01*
X131594098Y-103723635D01*
X131594098Y-103723634D01*
X131591706Y-103719844D01*
X131559760Y-103682307D01*
X131452409Y-103587499D01*
X131448658Y-103585035D01*
X131448654Y-103585032D01*
X131426513Y-103570488D01*
X131380559Y-103516371D01*
X131371158Y-103445999D01*
X131401295Y-103381716D01*
X131406595Y-103376082D01*
X131455272Y-103327405D01*
X131517584Y-103293379D01*
X131544367Y-103290500D01*
X132767062Y-103290500D01*
X132835183Y-103310502D01*
X132851861Y-103323306D01*
X132856884Y-103327877D01*
X132953118Y-103415444D01*
X132953122Y-103415447D01*
X132958739Y-103420558D01*
X132965412Y-103424181D01*
X132965416Y-103424184D01*
X133094686Y-103494371D01*
X133101359Y-103497994D01*
X133258334Y-103539176D01*
X133344250Y-103540526D01*
X133413004Y-103541606D01*
X133413007Y-103541606D01*
X133420601Y-103541725D01*
X133476392Y-103528947D01*
X133571389Y-103507190D01*
X133571393Y-103507189D01*
X133578792Y-103505494D01*
X133723774Y-103432576D01*
X133770465Y-103392698D01*
X133841403Y-103332112D01*
X133841406Y-103332109D01*
X133847178Y-103327179D01*
X133847774Y-103327877D01*
X133903062Y-103294609D01*
X133934976Y-103290500D01*
X136013501Y-103290500D01*
X136081622Y-103310502D01*
X136128115Y-103364158D01*
X136139501Y-103416500D01*
X136139501Y-103736790D01*
X136149393Y-103786526D01*
X136187077Y-103842923D01*
X136243474Y-103880607D01*
X136293209Y-103890500D01*
X137159859Y-103890500D01*
X138026790Y-103890499D01*
X138076526Y-103880607D01*
X138086842Y-103873714D01*
X138086844Y-103873713D01*
X138122610Y-103849814D01*
X138132923Y-103842923D01*
X138170607Y-103786526D01*
X138180500Y-103736791D01*
X138180499Y-102003210D01*
X138170607Y-101953474D01*
X138132923Y-101897077D01*
X138076526Y-101859393D01*
X138026791Y-101849500D01*
X137679719Y-101849500D01*
X137611598Y-101829498D01*
X137565105Y-101775842D01*
X137555001Y-101705568D01*
X137584495Y-101640988D01*
X137643513Y-101602814D01*
X137652250Y-101600193D01*
X137661842Y-101596433D01*
X137853095Y-101502739D01*
X137861945Y-101497464D01*
X138035328Y-101373792D01*
X138043200Y-101367139D01*
X138194052Y-101216812D01*
X138200730Y-101208965D01*
X138325003Y-101036020D01*
X138330313Y-101027183D01*
X138393531Y-100899271D01*
X146596668Y-100899271D01*
X146596755Y-100903273D01*
X146596755Y-100903280D01*
X146603261Y-101201448D01*
X146603349Y-101205465D01*
X146648883Y-101508330D01*
X146649979Y-101512190D01*
X146649980Y-101512195D01*
X146681766Y-101624151D01*
X146732531Y-101802953D01*
X146852937Y-102084560D01*
X147008149Y-102348585D01*
X147195651Y-102590747D01*
X147412404Y-102807122D01*
X147415585Y-102809576D01*
X147415586Y-102809577D01*
X147651701Y-102991739D01*
X147651705Y-102991742D01*
X147654894Y-102994202D01*
X147658373Y-102996239D01*
X147907511Y-103142115D01*
X147919189Y-103148953D01*
X147922874Y-103150521D01*
X147922878Y-103150523D01*
X147984394Y-103176698D01*
X148201006Y-103268867D01*
X148495775Y-103352001D01*
X148695796Y-103381716D01*
X148795419Y-103396516D01*
X148795421Y-103396516D01*
X148798718Y-103397006D01*
X148802049Y-103397146D01*
X148802053Y-103397146D01*
X148838737Y-103398683D01*
X148882084Y-103400500D01*
X149077474Y-103400500D01*
X149200915Y-103392626D01*
X149301639Y-103386201D01*
X149301644Y-103386200D01*
X149305647Y-103385945D01*
X149309584Y-103385183D01*
X149309586Y-103385183D01*
X149602401Y-103328530D01*
X149602405Y-103328529D01*
X149606338Y-103327768D01*
X149897200Y-103231856D01*
X150093603Y-103137966D01*
X159508257Y-103137966D01*
X159538565Y-103272446D01*
X159541645Y-103282275D01*
X159621770Y-103479603D01*
X159626413Y-103488794D01*
X159737694Y-103670388D01*
X159743777Y-103678699D01*
X159883213Y-103839667D01*
X159890580Y-103846883D01*
X160054434Y-103982916D01*
X160062881Y-103988831D01*
X160246756Y-104096279D01*
X160256042Y-104100729D01*
X160455001Y-104176703D01*
X160464899Y-104179579D01*
X160568250Y-104200606D01*
X160582299Y-104199410D01*
X160586000Y-104189065D01*
X160586000Y-104188517D01*
X161094000Y-104188517D01*
X161098064Y-104202359D01*
X161111478Y-104204393D01*
X161118184Y-104203534D01*
X161128262Y-104201392D01*
X161332255Y-104140191D01*
X161341842Y-104136433D01*
X161533095Y-104042739D01*
X161541945Y-104037464D01*
X161715328Y-103913792D01*
X161723200Y-103907139D01*
X161874052Y-103756812D01*
X161880730Y-103748965D01*
X162005003Y-103576020D01*
X162010313Y-103567183D01*
X162104670Y-103376267D01*
X162108469Y-103366672D01*
X162170377Y-103162910D01*
X162172555Y-103152837D01*
X162173986Y-103141962D01*
X162171775Y-103127778D01*
X162158617Y-103124000D01*
X161112115Y-103124000D01*
X161096876Y-103128475D01*
X161095671Y-103129865D01*
X161094000Y-103137548D01*
X161094000Y-104188517D01*
X160586000Y-104188517D01*
X160586000Y-103142115D01*
X160581525Y-103126876D01*
X160580135Y-103125671D01*
X160572452Y-103124000D01*
X159523225Y-103124000D01*
X159509694Y-103127973D01*
X159508257Y-103137966D01*
X150093603Y-103137966D01*
X150173518Y-103099763D01*
X150430812Y-102933631D01*
X150664910Y-102736152D01*
X150858215Y-102525567D01*
X150869304Y-102513487D01*
X150869306Y-102513485D01*
X150872019Y-102510529D01*
X150881942Y-102496489D01*
X151006369Y-102320428D01*
X151048780Y-102260418D01*
X151192328Y-101989874D01*
X151200128Y-101969177D01*
X151298919Y-101707044D01*
X151298921Y-101707038D01*
X151300336Y-101703283D01*
X151323472Y-101605791D01*
X151370124Y-101409207D01*
X151370125Y-101409202D01*
X151371053Y-101405291D01*
X151403332Y-101100729D01*
X151401921Y-101036020D01*
X151396739Y-100798552D01*
X151396739Y-100798547D01*
X151396651Y-100794535D01*
X151351117Y-100491670D01*
X151267469Y-100197047D01*
X151147063Y-99915440D01*
X150991851Y-99651415D01*
X150804349Y-99409253D01*
X150587596Y-99192878D01*
X150584414Y-99190423D01*
X150348299Y-99008261D01*
X150348295Y-99008258D01*
X150345106Y-99005798D01*
X150168538Y-98902413D01*
X150084275Y-98853075D01*
X150084272Y-98853073D01*
X150080811Y-98851047D01*
X150077126Y-98849479D01*
X150077122Y-98849477D01*
X149890051Y-98769878D01*
X149798994Y-98731133D01*
X149504225Y-98647999D01*
X149274014Y-98613799D01*
X149204581Y-98603484D01*
X149204579Y-98603484D01*
X149201282Y-98602994D01*
X149197951Y-98602854D01*
X149197947Y-98602854D01*
X149161263Y-98601317D01*
X149117916Y-98599500D01*
X148922526Y-98599500D01*
X148799085Y-98607374D01*
X148698361Y-98613799D01*
X148698356Y-98613800D01*
X148694353Y-98614055D01*
X148690416Y-98614817D01*
X148690414Y-98614817D01*
X148397599Y-98671470D01*
X148397595Y-98671471D01*
X148393662Y-98672232D01*
X148102800Y-98768144D01*
X147826482Y-98900237D01*
X147569188Y-99066369D01*
X147566123Y-99068954D01*
X147566121Y-99068956D01*
X147557523Y-99076209D01*
X147335090Y-99263848D01*
X147127981Y-99489471D01*
X146951220Y-99739582D01*
X146807672Y-100010126D01*
X146806257Y-100013882D01*
X146806256Y-100013883D01*
X146735768Y-100200919D01*
X146699664Y-100296717D01*
X146698735Y-100300632D01*
X146630546Y-100587973D01*
X146628947Y-100594709D01*
X146596668Y-100899271D01*
X138393531Y-100899271D01*
X138424670Y-100836267D01*
X138428469Y-100826672D01*
X138490377Y-100622910D01*
X138492555Y-100612837D01*
X138493986Y-100601962D01*
X138491775Y-100587778D01*
X138478617Y-100584000D01*
X135843225Y-100584000D01*
X135829694Y-100587973D01*
X135828257Y-100597966D01*
X135858565Y-100732446D01*
X135861645Y-100742275D01*
X135941770Y-100939603D01*
X135946413Y-100948794D01*
X136057694Y-101130388D01*
X136063777Y-101138699D01*
X136203213Y-101299667D01*
X136210580Y-101306883D01*
X136374434Y-101442916D01*
X136382881Y-101448831D01*
X136566756Y-101556279D01*
X136576043Y-101560729D01*
X136694049Y-101605791D01*
X136750552Y-101648779D01*
X136774845Y-101715490D01*
X136759215Y-101784744D01*
X136708624Y-101834555D01*
X136649101Y-101849501D01*
X136293210Y-101849501D01*
X136243474Y-101859393D01*
X136233158Y-101866286D01*
X136233156Y-101866287D01*
X136202026Y-101887088D01*
X136187077Y-101897077D01*
X136149393Y-101953474D01*
X136139500Y-102003209D01*
X136139500Y-102323500D01*
X136119498Y-102391621D01*
X136065842Y-102438114D01*
X136013500Y-102449500D01*
X133934003Y-102449500D01*
X133865882Y-102429498D01*
X133850184Y-102417577D01*
X133793405Y-102366990D01*
X133735474Y-102315375D01*
X133592051Y-102239436D01*
X133582098Y-102236936D01*
X133442024Y-102201752D01*
X133442021Y-102201752D01*
X133434653Y-102199901D01*
X133427054Y-102199861D01*
X133427052Y-102199861D01*
X133360042Y-102199510D01*
X133272369Y-102199051D01*
X133264989Y-102200823D01*
X133264987Y-102200823D01*
X133121945Y-102235164D01*
X133121941Y-102235165D01*
X133114566Y-102236936D01*
X132970355Y-102311369D01*
X132848061Y-102418052D01*
X132845894Y-102415568D01*
X132798143Y-102445029D01*
X132764875Y-102449500D01*
X131384603Y-102449500D01*
X131384601Y-102449499D01*
X131251399Y-102449499D01*
X131241969Y-102452563D01*
X131241963Y-102452564D01*
X131228961Y-102456789D01*
X131209733Y-102461406D01*
X131186438Y-102465095D01*
X131165417Y-102475806D01*
X131147154Y-102483370D01*
X131134151Y-102487595D01*
X131134148Y-102487597D01*
X131124717Y-102490661D01*
X131105628Y-102504530D01*
X131088781Y-102514853D01*
X131076592Y-102521064D01*
X131067755Y-102525567D01*
X130973567Y-102619755D01*
X130973566Y-102619757D01*
X130559757Y-103033566D01*
X130559755Y-103033567D01*
X130465567Y-103127755D01*
X130461063Y-103136595D01*
X130454859Y-103148771D01*
X130444528Y-103165631D01*
X130430661Y-103184717D01*
X130427598Y-103194145D01*
X130427596Y-103194148D01*
X130423370Y-103207154D01*
X130415806Y-103225417D01*
X130405095Y-103246438D01*
X130403544Y-103256232D01*
X130401406Y-103269732D01*
X130396789Y-103288961D01*
X130392564Y-103301963D01*
X130392563Y-103301969D01*
X130389499Y-103311399D01*
X130389499Y-103396575D01*
X130369497Y-103464696D01*
X130314246Y-103511904D01*
X130267093Y-103532652D01*
X130223050Y-103552032D01*
X130219245Y-103554400D01*
X130219240Y-103554403D01*
X130202128Y-103565054D01*
X130181206Y-103578077D01*
X130177772Y-103580964D01*
X130177770Y-103580965D01*
X130148081Y-103605921D01*
X130071571Y-103670234D01*
X130068583Y-103673576D01*
X130041710Y-103703631D01*
X130041706Y-103703636D01*
X130038718Y-103706978D01*
X130036233Y-103710711D01*
X130036230Y-103710715D01*
X129978898Y-103796844D01*
X129959355Y-103826203D01*
X129938136Y-103870691D01*
X129895426Y-104007397D01*
X129894711Y-104011810D01*
X129894710Y-104011815D01*
X129892292Y-104026742D01*
X129887545Y-104056051D01*
X129884920Y-104199250D01*
X129885473Y-104203693D01*
X129885710Y-104208171D01*
X129885611Y-104208176D01*
X129886160Y-104217021D01*
X129886160Y-104640000D01*
X129899393Y-104706526D01*
X129906286Y-104716841D01*
X129906288Y-104716847D01*
X129908394Y-104719998D01*
X129910873Y-104727915D01*
X129911037Y-104728311D01*
X129911002Y-104728326D01*
X129929609Y-104787751D01*
X129910857Y-104851614D01*
X129911037Y-104851689D01*
X129910343Y-104853365D01*
X129908394Y-104860002D01*
X129906288Y-104863153D01*
X129906286Y-104863159D01*
X129899393Y-104873474D01*
X129886160Y-104940000D01*
X129886160Y-105018500D01*
X129866158Y-105086621D01*
X129812502Y-105133114D01*
X129760160Y-105144500D01*
X127712591Y-105144500D01*
X127644470Y-105124498D01*
X127623495Y-105107595D01*
X127332404Y-104816503D01*
X127298379Y-104754191D01*
X127295500Y-104727408D01*
X127295500Y-104440492D01*
X127315502Y-104372371D01*
X127344796Y-104340529D01*
X127400335Y-104297913D01*
X127400336Y-104297912D01*
X127406886Y-104292886D01*
X127498331Y-104173711D01*
X127555816Y-104034930D01*
X127575423Y-103886000D01*
X127555816Y-103737070D01*
X127498331Y-103598289D01*
X127406886Y-103479114D01*
X127363730Y-103445999D01*
X127323909Y-103415444D01*
X127287712Y-103387669D01*
X127203028Y-103352592D01*
X127156560Y-103333344D01*
X127156557Y-103333343D01*
X127148930Y-103330184D01*
X127127822Y-103327405D01*
X127008188Y-103311655D01*
X127000000Y-103310577D01*
X126991812Y-103311655D01*
X126872179Y-103327405D01*
X126851070Y-103330184D01*
X126712289Y-103387669D01*
X126593114Y-103479114D01*
X126588088Y-103485664D01*
X126538549Y-103550226D01*
X126501669Y-103598289D01*
X126444184Y-103737070D01*
X126424577Y-103886000D01*
X109170500Y-103886000D01*
X109170500Y-100899271D01*
X111596668Y-100899271D01*
X111596755Y-100903273D01*
X111596755Y-100903280D01*
X111603261Y-101201448D01*
X111603349Y-101205465D01*
X111648883Y-101508330D01*
X111649979Y-101512190D01*
X111649980Y-101512195D01*
X111681766Y-101624151D01*
X111732531Y-101802953D01*
X111852937Y-102084560D01*
X112008149Y-102348585D01*
X112195651Y-102590747D01*
X112412404Y-102807122D01*
X112415585Y-102809576D01*
X112415586Y-102809577D01*
X112651701Y-102991739D01*
X112651705Y-102991742D01*
X112654894Y-102994202D01*
X112658373Y-102996239D01*
X112907511Y-103142115D01*
X112919189Y-103148953D01*
X112922874Y-103150521D01*
X112922878Y-103150523D01*
X112984394Y-103176698D01*
X113201006Y-103268867D01*
X113495775Y-103352001D01*
X113695796Y-103381716D01*
X113795419Y-103396516D01*
X113795421Y-103396516D01*
X113798718Y-103397006D01*
X113802049Y-103397146D01*
X113802053Y-103397146D01*
X113838737Y-103398683D01*
X113882084Y-103400500D01*
X114077474Y-103400500D01*
X114200915Y-103392626D01*
X114301639Y-103386201D01*
X114301644Y-103386200D01*
X114305647Y-103385945D01*
X114309584Y-103385183D01*
X114309586Y-103385183D01*
X114602401Y-103328530D01*
X114602405Y-103328529D01*
X114606338Y-103327768D01*
X114897200Y-103231856D01*
X115173518Y-103099763D01*
X115430812Y-102933631D01*
X115664910Y-102736152D01*
X115858215Y-102525567D01*
X115869304Y-102513487D01*
X115869306Y-102513485D01*
X115872019Y-102510529D01*
X115881942Y-102496489D01*
X116006369Y-102320428D01*
X116048780Y-102260418D01*
X116192328Y-101989874D01*
X116200128Y-101969177D01*
X116298919Y-101707044D01*
X116298921Y-101707038D01*
X116300336Y-101703283D01*
X116323472Y-101605791D01*
X116370124Y-101409207D01*
X116370125Y-101409202D01*
X116371053Y-101405291D01*
X116403332Y-101100729D01*
X116401921Y-101036020D01*
X116396739Y-100798552D01*
X116396739Y-100798547D01*
X116396651Y-100794535D01*
X116351117Y-100491670D01*
X116267469Y-100197047D01*
X116210661Y-100064183D01*
X135824389Y-100064183D01*
X135825912Y-100072607D01*
X135838292Y-100076000D01*
X136887885Y-100076000D01*
X136903124Y-100071525D01*
X136904329Y-100070135D01*
X136906000Y-100062452D01*
X136906000Y-100057885D01*
X137414000Y-100057885D01*
X137418475Y-100073124D01*
X137419865Y-100074329D01*
X137427548Y-100076000D01*
X138478344Y-100076000D01*
X138491875Y-100072027D01*
X138493180Y-100062947D01*
X138451214Y-99895875D01*
X138447894Y-99886124D01*
X138362972Y-99690814D01*
X138358105Y-99681739D01*
X138242426Y-99502926D01*
X138236136Y-99494757D01*
X138092806Y-99337240D01*
X138085273Y-99330215D01*
X137918139Y-99198222D01*
X137909552Y-99192517D01*
X137723117Y-99089599D01*
X137713705Y-99085369D01*
X137512959Y-99014280D01*
X137502988Y-99011646D01*
X137431837Y-98998972D01*
X137418540Y-99000432D01*
X137414000Y-99014989D01*
X137414000Y-100057885D01*
X136906000Y-100057885D01*
X136906000Y-99013102D01*
X136902082Y-98999758D01*
X136887806Y-98997771D01*
X136849324Y-99003660D01*
X136839288Y-99006051D01*
X136636868Y-99072212D01*
X136627359Y-99076209D01*
X136438463Y-99174542D01*
X136429738Y-99180036D01*
X136259433Y-99307905D01*
X136251726Y-99314748D01*
X136104590Y-99468717D01*
X136098104Y-99476727D01*
X135978098Y-99652649D01*
X135973000Y-99661623D01*
X135883338Y-99854783D01*
X135879775Y-99864470D01*
X135824389Y-100064183D01*
X116210661Y-100064183D01*
X116147063Y-99915440D01*
X115991851Y-99651415D01*
X115804349Y-99409253D01*
X115587596Y-99192878D01*
X115584414Y-99190423D01*
X115348299Y-99008261D01*
X115348295Y-99008258D01*
X115345106Y-99005798D01*
X115168538Y-98902413D01*
X115084275Y-98853075D01*
X115084272Y-98853073D01*
X115080811Y-98851047D01*
X115077126Y-98849479D01*
X115077122Y-98849477D01*
X114890051Y-98769878D01*
X114798994Y-98731133D01*
X114504225Y-98647999D01*
X114274014Y-98613799D01*
X114204581Y-98603484D01*
X114204579Y-98603484D01*
X114201282Y-98602994D01*
X114197951Y-98602854D01*
X114197947Y-98602854D01*
X114161263Y-98601317D01*
X114117916Y-98599500D01*
X113922526Y-98599500D01*
X113799085Y-98607374D01*
X113698361Y-98613799D01*
X113698356Y-98613800D01*
X113694353Y-98614055D01*
X113690416Y-98614817D01*
X113690414Y-98614817D01*
X113397599Y-98671470D01*
X113397595Y-98671471D01*
X113393662Y-98672232D01*
X113102800Y-98768144D01*
X112826482Y-98900237D01*
X112569188Y-99066369D01*
X112566123Y-99068954D01*
X112566121Y-99068956D01*
X112557523Y-99076209D01*
X112335090Y-99263848D01*
X112127981Y-99489471D01*
X111951220Y-99739582D01*
X111807672Y-100010126D01*
X111806257Y-100013882D01*
X111806256Y-100013883D01*
X111735768Y-100200919D01*
X111699664Y-100296717D01*
X111698735Y-100300632D01*
X111630546Y-100587973D01*
X111628947Y-100594709D01*
X111596668Y-100899271D01*
X109170500Y-100899271D01*
X109170500Y-96296500D01*
X109190502Y-96228379D01*
X109244158Y-96181886D01*
X109296500Y-96170500D01*
X191703500Y-96170500D01*
X191771621Y-96190502D01*
G37*
%TD.AperFunction*%
%TA.AperFunction,Conductor*%
G36*
X138654254Y-110043002D02*
G01*
X138675228Y-110059905D01*
X141556095Y-112940772D01*
X141590121Y-113003084D01*
X141593000Y-113029867D01*
X141593000Y-114554252D01*
X141572998Y-114622373D01*
X141536003Y-114655840D01*
X141537554Y-114657975D01*
X141529534Y-114663802D01*
X141520694Y-114668306D01*
X141429306Y-114759694D01*
X141424803Y-114768532D01*
X141424801Y-114768535D01*
X141389320Y-114838171D01*
X141370632Y-114874849D01*
X141369298Y-114883272D01*
X141329660Y-114941241D01*
X141264263Y-114968879D01*
X141249900Y-114969700D01*
X141219691Y-114969700D01*
X141151570Y-114949698D01*
X141119728Y-114920403D01*
X141090273Y-114882016D01*
X141072086Y-114858314D01*
X140952912Y-114766869D01*
X140869882Y-114732477D01*
X140821760Y-114712544D01*
X140821757Y-114712543D01*
X140814130Y-114709384D01*
X140665200Y-114689777D01*
X140516270Y-114709384D01*
X140400255Y-114757439D01*
X140329667Y-114765028D01*
X140266180Y-114733249D01*
X140229952Y-114672191D01*
X140226711Y-114654034D01*
X140222743Y-114615793D01*
X140219851Y-114602400D01*
X140168412Y-114448216D01*
X140162239Y-114435038D01*
X140076937Y-114297193D01*
X140067901Y-114285792D01*
X139953171Y-114171261D01*
X139941760Y-114162249D01*
X139803757Y-114077184D01*
X139790576Y-114071037D01*
X139636290Y-114019862D01*
X139622914Y-114016995D01*
X139528562Y-114007328D01*
X139522145Y-114007000D01*
X139409615Y-114007000D01*
X139394376Y-114011475D01*
X139393171Y-114012865D01*
X139391500Y-114020548D01*
X139391500Y-116454882D01*
X139404517Y-116499213D01*
X139404517Y-116570210D01*
X139372716Y-116623807D01*
X138673928Y-117322595D01*
X138611616Y-117356621D01*
X138584833Y-117359500D01*
X138056499Y-117359500D01*
X137988378Y-117339498D01*
X137941885Y-117285842D01*
X137930499Y-117233500D01*
X137930499Y-116888210D01*
X137920607Y-116838474D01*
X137912355Y-116826123D01*
X137889814Y-116792390D01*
X137882923Y-116782077D01*
X137826526Y-116744393D01*
X137776791Y-116734500D01*
X137594000Y-116734500D01*
X137525879Y-116714498D01*
X137479386Y-116660842D01*
X137468000Y-116608500D01*
X137468000Y-116229505D01*
X137488002Y-116161384D01*
X137536797Y-116117238D01*
X137574903Y-116097821D01*
X137650245Y-116059433D01*
X137744433Y-115965245D01*
X137785761Y-115884134D01*
X137800402Y-115855400D01*
X137800402Y-115855399D01*
X137804905Y-115846562D01*
X137806457Y-115836764D01*
X137806822Y-115835640D01*
X137846895Y-115777034D01*
X137912292Y-115749396D01*
X137982248Y-115761502D01*
X138034555Y-115809508D01*
X138050624Y-115857508D01*
X138050802Y-115857470D01*
X138051149Y-115859076D01*
X138051983Y-115861568D01*
X138052257Y-115864208D01*
X138055149Y-115877600D01*
X138106588Y-116031784D01*
X138112761Y-116044962D01*
X138198063Y-116182807D01*
X138207099Y-116194208D01*
X138321829Y-116308739D01*
X138333240Y-116317751D01*
X138471243Y-116402816D01*
X138484424Y-116408963D01*
X138638710Y-116460138D01*
X138652086Y-116463005D01*
X138746438Y-116472672D01*
X138752854Y-116473000D01*
X138865385Y-116473000D01*
X138880624Y-116468525D01*
X138881829Y-116467135D01*
X138883500Y-116459452D01*
X138883500Y-114025116D01*
X138879025Y-114009877D01*
X138877635Y-114008672D01*
X138869952Y-114007001D01*
X138752905Y-114007001D01*
X138746386Y-114007338D01*
X138650794Y-114017257D01*
X138637400Y-114020149D01*
X138483216Y-114071588D01*
X138470038Y-114077761D01*
X138332193Y-114163063D01*
X138320792Y-114172099D01*
X138206261Y-114286829D01*
X138197249Y-114298240D01*
X138112184Y-114436243D01*
X138106037Y-114449424D01*
X138054862Y-114603710D01*
X138051995Y-114617086D01*
X138051904Y-114617971D01*
X138051696Y-114618481D01*
X138050553Y-114623811D01*
X138049602Y-114623607D01*
X138025063Y-114683699D01*
X137966948Y-114724481D01*
X137896010Y-114727369D01*
X137834772Y-114691448D01*
X137806727Y-114644064D01*
X137806455Y-114643228D01*
X137804905Y-114633438D01*
X137795915Y-114615793D01*
X137748933Y-114523587D01*
X137744433Y-114514755D01*
X137650245Y-114420567D01*
X137531562Y-114360095D01*
X137433097Y-114344500D01*
X137062538Y-114344500D01*
X136691904Y-114344501D01*
X136687011Y-114345276D01*
X136687010Y-114345276D01*
X136603235Y-114358543D01*
X136603232Y-114358544D01*
X136593438Y-114360095D01*
X136474755Y-114420567D01*
X136380567Y-114514755D01*
X136376067Y-114523587D01*
X136329086Y-114615793D01*
X136320095Y-114633438D01*
X136318544Y-114643229D01*
X136318544Y-114643230D01*
X136318353Y-114644434D01*
X136308238Y-114708306D01*
X136307461Y-114713210D01*
X136277049Y-114777363D01*
X136216781Y-114814890D01*
X136183012Y-114819500D01*
X135380367Y-114819500D01*
X135312246Y-114799498D01*
X135291272Y-114782595D01*
X134442405Y-113933728D01*
X134408379Y-113871416D01*
X134405500Y-113844633D01*
X134405500Y-113190194D01*
X134425502Y-113122073D01*
X134431188Y-113116371D01*
X134442500Y-113091413D01*
X134442500Y-113085661D01*
X134847500Y-113085661D01*
X134851473Y-113099192D01*
X134859371Y-113100327D01*
X134982522Y-113064548D01*
X134996961Y-113058299D01*
X135115804Y-112988016D01*
X135128240Y-112978369D01*
X135225869Y-112880740D01*
X135235516Y-112868304D01*
X135305799Y-112749461D01*
X135312048Y-112735022D01*
X135350985Y-112601000D01*
X135353287Y-112588396D01*
X135355307Y-112562736D01*
X135355500Y-112557806D01*
X135355500Y-112070615D01*
X135351025Y-112055376D01*
X135349635Y-112054171D01*
X135341952Y-112052500D01*
X134865615Y-112052500D01*
X134850376Y-112056975D01*
X134849171Y-112058365D01*
X134847500Y-112066048D01*
X134847500Y-113085661D01*
X134442500Y-113085661D01*
X134442500Y-111773500D01*
X134462502Y-111705379D01*
X134516158Y-111658886D01*
X134568500Y-111647500D01*
X135337384Y-111647500D01*
X135352623Y-111643025D01*
X135353828Y-111641635D01*
X135355499Y-111633952D01*
X135355499Y-111142198D01*
X135355305Y-111137258D01*
X135353287Y-111111602D01*
X135350986Y-111099004D01*
X135312048Y-110964978D01*
X135305799Y-110950539D01*
X135235516Y-110831696D01*
X135225869Y-110819260D01*
X135128240Y-110721631D01*
X135115804Y-110711984D01*
X134997080Y-110641771D01*
X134948627Y-110589878D01*
X134935922Y-110520028D01*
X134937640Y-110508735D01*
X134941792Y-110487862D01*
X134943000Y-110481791D01*
X134943000Y-110149000D01*
X134963002Y-110080879D01*
X135016658Y-110034386D01*
X135069000Y-110023000D01*
X138586133Y-110023000D01*
X138654254Y-110043002D01*
G37*
%TD.AperFunction*%
%TD*%
M02*
