%TF.GenerationSoftware,KiCad,Pcbnew,(6.0.6)*%
%TF.CreationDate,2023-07-05T10:52:05+02:00*%
%TF.ProjectId,ModuleBattery18650,4d6f6475-6c65-4426-9174-746572793138,rev?*%
%TF.SameCoordinates,Original*%
%TF.FileFunction,Soldermask,Top*%
%TF.FilePolarity,Negative*%
%FSLAX46Y46*%
G04 Gerber Fmt 4.6, Leading zero omitted, Abs format (unit mm)*
G04 Created by KiCad (PCBNEW (6.0.6)) date 2023-07-05 10:52:05*
%MOMM*%
%LPD*%
G01*
G04 APERTURE LIST*
G04 Aperture macros list*
%AMRoundRect*
0 Rectangle with rounded corners*
0 $1 Rounding radius*
0 $2 $3 $4 $5 $6 $7 $8 $9 X,Y pos of 4 corners*
0 Add a 4 corners polygon primitive as box body*
4,1,4,$2,$3,$4,$5,$6,$7,$8,$9,$2,$3,0*
0 Add four circle primitives for the rounded corners*
1,1,$1+$1,$2,$3*
1,1,$1+$1,$4,$5*
1,1,$1+$1,$6,$7*
1,1,$1+$1,$8,$9*
0 Add four rect primitives between the rounded corners*
20,1,$1+$1,$2,$3,$4,$5,0*
20,1,$1+$1,$4,$5,$6,$7,0*
20,1,$1+$1,$6,$7,$8,$9,0*
20,1,$1+$1,$8,$9,$2,$3,0*%
%AMFreePoly0*
4,1,22,0.500000,-0.750000,0.000000,-0.750000,0.000000,-0.745033,-0.079941,-0.743568,-0.215256,-0.701293,-0.333266,-0.622738,-0.424486,-0.514219,-0.481581,-0.384460,-0.499164,-0.250000,-0.500000,-0.250000,-0.500000,0.250000,-0.499164,0.250000,-0.499963,0.256109,-0.478152,0.396186,-0.417904,0.524511,-0.324060,0.630769,-0.204165,0.706417,-0.067858,0.745374,0.000000,0.744959,0.000000,0.750000,
0.500000,0.750000,0.500000,-0.750000,0.500000,-0.750000,$1*%
%AMFreePoly1*
4,1,20,0.000000,0.744959,0.073905,0.744508,0.209726,0.703889,0.328688,0.626782,0.421226,0.519385,0.479903,0.390333,0.500000,0.250000,0.500000,-0.250000,0.499851,-0.262216,0.476331,-0.402017,0.414519,-0.529596,0.319384,-0.634700,0.198574,-0.708877,0.061801,-0.746166,0.000000,-0.745033,0.000000,-0.750000,-0.500000,-0.750000,-0.500000,0.750000,0.000000,0.750000,0.000000,0.744959,
0.000000,0.744959,$1*%
G04 Aperture macros list end*
%ADD10RoundRect,0.237500X0.237500X-0.250000X0.237500X0.250000X-0.237500X0.250000X-0.237500X-0.250000X0*%
%ADD11C,1.000000*%
%ADD12R,1.425000X1.750000*%
%ADD13RoundRect,0.101250X-0.648750X-0.101250X0.648750X-0.101250X0.648750X0.101250X-0.648750X0.101250X0*%
%ADD14R,1.725000X2.235000*%
%ADD15RoundRect,0.101250X-0.533750X-0.101250X0.533750X-0.101250X0.533750X0.101250X-0.533750X0.101250X0*%
%ADD16RoundRect,0.237500X-0.250000X-0.237500X0.250000X-0.237500X0.250000X0.237500X-0.250000X0.237500X0*%
%ADD17RoundRect,0.101250X0.648750X0.101250X-0.648750X0.101250X-0.648750X-0.101250X0.648750X-0.101250X0*%
%ADD18RoundRect,0.101250X0.533750X0.101250X-0.533750X0.101250X-0.533750X-0.101250X0.533750X-0.101250X0*%
%ADD19RoundRect,0.237500X0.250000X0.237500X-0.250000X0.237500X-0.250000X-0.237500X0.250000X-0.237500X0*%
%ADD20C,4.300000*%
%ADD21FreePoly0,270.000000*%
%ADD22FreePoly1,270.000000*%
%ADD23RoundRect,0.101250X0.101250X-0.648750X0.101250X0.648750X-0.101250X0.648750X-0.101250X-0.648750X0*%
%ADD24RoundRect,0.101250X0.101250X-0.533750X0.101250X0.533750X-0.101250X0.533750X-0.101250X-0.533750X0*%
%ADD25R,2.235000X1.725000*%
%ADD26RoundRect,0.250000X-0.337500X-0.475000X0.337500X-0.475000X0.337500X0.475000X-0.337500X0.475000X0*%
%ADD27R,0.800000X1.900000*%
%ADD28R,1.700000X1.700000*%
%ADD29O,1.700000X1.700000*%
%ADD30C,3.048000*%
%ADD31O,8.048000X3.048000*%
G04 APERTURE END LIST*
D10*
%TO.C,RS2*%
X156134000Y-114628500D03*
X156134000Y-112803500D03*
%TD*%
D11*
%TO.C,TP6*%
X150800000Y-123114000D03*
%TD*%
%TO.C,TP2*%
X164660000Y-117780000D03*
%TD*%
D12*
%TO.C,F1*%
X134072500Y-117780000D03*
X137047500Y-117780000D03*
%TD*%
D13*
%TO.C,T2*%
X141820000Y-116790000D03*
X141820000Y-117450000D03*
X141820000Y-118110000D03*
X141820000Y-118770000D03*
D14*
X144067500Y-117780000D03*
D15*
X145315000Y-116800000D03*
X145315000Y-118120000D03*
X145315000Y-118780000D03*
X145315000Y-117460000D03*
%TD*%
D11*
%TO.C,TP4*%
X141910000Y-122225000D03*
%TD*%
D16*
%TO.C,RS1*%
X142013500Y-120320000D03*
X143838500Y-120320000D03*
%TD*%
D17*
%TO.C,T5*%
X163207500Y-114960000D03*
X163207500Y-114300000D03*
X163207500Y-113640000D03*
X163207500Y-112980000D03*
D18*
X159712500Y-113630000D03*
X159712500Y-112970000D03*
D14*
X160960000Y-113970000D03*
D18*
X159712500Y-114290000D03*
X159712500Y-114950000D03*
%TD*%
D11*
%TO.C,TP1*%
X133350000Y-102870000D03*
%TD*%
D19*
%TO.C,R3*%
X158062500Y-116510000D03*
X156237500Y-116510000D03*
%TD*%
D11*
%TO.C,TP7*%
X156235600Y-118440400D03*
%TD*%
D20*
%TO.C,H1*%
X114000000Y-101000000D03*
%TD*%
%TO.C,H3*%
X187000000Y-101000000D03*
%TD*%
D21*
%TO.C,JP1*%
X130810000Y-104140000D03*
D22*
X130810000Y-105440000D03*
%TD*%
D11*
%TO.C,TP5*%
X147244000Y-114732000D03*
%TD*%
%TO.C,TP9*%
X164660000Y-111430000D03*
%TD*%
D20*
%TO.C,H2*%
X149000000Y-101000000D03*
%TD*%
D23*
%TO.C,T1*%
X132665000Y-111850000D03*
X133325000Y-111850000D03*
X133985000Y-111850000D03*
X134645000Y-111850000D03*
D24*
X134655000Y-108355000D03*
D25*
X133655000Y-109602500D03*
D24*
X133335000Y-108355000D03*
X133995000Y-108355000D03*
X132675000Y-108355000D03*
%TD*%
D11*
%TO.C,TP8*%
X158420000Y-111430000D03*
%TD*%
D26*
%TO.C,C1*%
X137062500Y-115240000D03*
X139137500Y-115240000D03*
%TD*%
D27*
%TO.C,T3*%
X152390000Y-121820000D03*
X154290000Y-121820000D03*
X153340000Y-118820000D03*
%TD*%
%TO.C,U1*%
X149210000Y-118820000D03*
X147310000Y-118820000D03*
X148260000Y-121820000D03*
%TD*%
D16*
%TO.C,R2*%
X147347500Y-116510000D03*
X149172500Y-116510000D03*
%TD*%
%TO.C,R1*%
X142013500Y-115240000D03*
X143838500Y-115240000D03*
%TD*%
D17*
%TO.C,T4*%
X153125000Y-114960000D03*
X153125000Y-114300000D03*
X153125000Y-113640000D03*
X153125000Y-112980000D03*
D14*
X150877500Y-113970000D03*
D18*
X149630000Y-112970000D03*
X149630000Y-114290000D03*
X149630000Y-113630000D03*
X149630000Y-114950000D03*
%TD*%
D11*
%TO.C,TP3*%
X130048000Y-108204000D03*
%TD*%
D28*
%TO.C,J1*%
X137160000Y-102870000D03*
D29*
X137160000Y-100330000D03*
%TD*%
D28*
%TO.C,J2*%
X160840000Y-100330000D03*
D29*
X160840000Y-102870000D03*
%TD*%
D30*
%TO.C,BT1*%
X118500000Y-117780000D03*
X126120000Y-115240000D03*
X126120000Y-120320000D03*
D31*
X173620000Y-120320000D03*
X173620000Y-115240000D03*
X181240000Y-117780000D03*
%TD*%
M02*
