%TF.GenerationSoftware,KiCad,Pcbnew,(6.0.6)*%
%TF.CreationDate,2023-07-05T10:52:05+02:00*%
%TF.ProjectId,ModuleBattery18650,4d6f6475-6c65-4426-9174-746572793138,rev?*%
%TF.SameCoordinates,Original*%
%TF.FileFunction,Copper,L2,Bot*%
%TF.FilePolarity,Positive*%
%FSLAX46Y46*%
G04 Gerber Fmt 4.6, Leading zero omitted, Abs format (unit mm)*
G04 Created by KiCad (PCBNEW (6.0.6)) date 2023-07-05 10:52:05*
%MOMM*%
%LPD*%
G01*
G04 APERTURE LIST*
G04 Aperture macros list*
%AMRoundRect*
0 Rectangle with rounded corners*
0 $1 Rounding radius*
0 $2 $3 $4 $5 $6 $7 $8 $9 X,Y pos of 4 corners*
0 Add a 4 corners polygon primitive as box body*
4,1,4,$2,$3,$4,$5,$6,$7,$8,$9,$2,$3,0*
0 Add four circle primitives for the rounded corners*
1,1,$1+$1,$2,$3*
1,1,$1+$1,$4,$5*
1,1,$1+$1,$6,$7*
1,1,$1+$1,$8,$9*
0 Add four rect primitives between the rounded corners*
20,1,$1+$1,$2,$3,$4,$5,0*
20,1,$1+$1,$4,$5,$6,$7,0*
20,1,$1+$1,$6,$7,$8,$9,0*
20,1,$1+$1,$8,$9,$2,$3,0*%
G04 Aperture macros list end*
%TA.AperFunction,ComponentPad*%
%ADD10R,1.700000X1.700000*%
%TD*%
%TA.AperFunction,ComponentPad*%
%ADD11O,1.700000X1.700000*%
%TD*%
%TA.AperFunction,SMDPad,CuDef*%
%ADD12RoundRect,0.250000X-0.450000X0.350000X-0.450000X-0.350000X0.450000X-0.350000X0.450000X0.350000X0*%
%TD*%
%TA.AperFunction,SMDPad,CuDef*%
%ADD13RoundRect,0.237500X0.237500X-0.287500X0.237500X0.287500X-0.237500X0.287500X-0.237500X-0.287500X0*%
%TD*%
%TA.AperFunction,ComponentPad*%
%ADD14C,3.048000*%
%TD*%
%TA.AperFunction,ComponentPad*%
%ADD15O,8.048000X3.048000*%
%TD*%
%TA.AperFunction,ViaPad*%
%ADD16C,1.000000*%
%TD*%
%TA.AperFunction,ViaPad*%
%ADD17C,0.800000*%
%TD*%
%TA.AperFunction,Conductor*%
%ADD18C,1.200000*%
%TD*%
%TA.AperFunction,Conductor*%
%ADD19C,0.500000*%
%TD*%
%TA.AperFunction,Conductor*%
%ADD20C,0.250000*%
%TD*%
G04 APERTURE END LIST*
D10*
%TO.P,J1,1,P1*%
%TO.N,/Vch*%
X137160000Y-102870000D03*
D11*
%TO.P,J1,2,P2*%
%TO.N,GND*%
X137160000Y-100330000D03*
%TD*%
D12*
%TO.P,R4,1*%
%TO.N,Net-(D1-Pad2)*%
X125095000Y-100600000D03*
%TO.P,R4,2*%
%TO.N,GND*%
X125095000Y-102600000D03*
%TD*%
D10*
%TO.P,J2,1,P1*%
%TO.N,/Vbat*%
X160840000Y-100330000D03*
D11*
%TO.P,J2,2,P2*%
%TO.N,GND*%
X160840000Y-102870000D03*
%TD*%
D13*
%TO.P,D1,1,A*%
%TO.N,Net-(D1-Pad1)*%
X127000000Y-102475000D03*
%TO.P,D1,2,K*%
%TO.N,Net-(D1-Pad2)*%
X127000000Y-100725000D03*
%TD*%
D14*
%TO.P,BT1,1,+*%
%TO.N,Net-(BT1-Pad1)*%
X118500000Y-117780000D03*
X126120000Y-115240000D03*
X126120000Y-120320000D03*
D15*
%TO.P,BT1,2,-*%
%TO.N,GND*%
X173620000Y-120320000D03*
X173620000Y-115240000D03*
X181240000Y-117780000D03*
%TD*%
D16*
%TO.N,GND*%
X135305800Y-113436400D03*
X164660000Y-119050000D03*
X164922200Y-113004600D03*
X146118000Y-120828000D03*
X156278000Y-120574000D03*
X139137500Y-112721500D03*
X143688000Y-112700000D03*
D17*
%TO.N,Net-(D1-Pad1)*%
X140665200Y-115265200D03*
X140106400Y-119151400D03*
X127000000Y-103886000D03*
%TO.N,Net-(R3-Pad2)*%
X154940000Y-112776000D03*
X154940000Y-117094000D03*
D16*
%TO.N,Net-(R2-Pad1)*%
X153162000Y-116586000D03*
X146050000Y-115570000D03*
%TD*%
D18*
%TO.N,Net-(BT1-Pad1)*%
X126060000Y-117780000D02*
X126120000Y-117720000D01*
X118500000Y-117780000D02*
X126060000Y-117780000D01*
X126120000Y-115240000D02*
X126120000Y-117720000D01*
X126120000Y-117720000D02*
X126120000Y-120320000D01*
%TO.N,GND*%
X166802000Y-110160000D02*
X166802000Y-112877400D01*
X145720000Y-121844000D02*
X139370000Y-121844000D01*
X137084000Y-112700000D02*
X143688000Y-112700000D01*
X156278000Y-120574000D02*
X156278000Y-121700000D01*
X137084000Y-113606000D02*
X137084000Y-118796000D01*
D19*
X135305800Y-113436400D02*
X136914400Y-113436400D01*
D18*
X164465000Y-102870000D02*
X160840000Y-102870000D01*
X166802000Y-110160000D02*
X166802000Y-105207000D01*
X137084000Y-119558000D02*
X139370000Y-121844000D01*
D19*
X164922200Y-113004600D02*
X166674800Y-113004600D01*
X125095000Y-102600000D02*
X125095000Y-104140000D01*
D18*
X166802000Y-114224000D02*
X166802000Y-117780000D01*
X139137500Y-105210500D02*
X139137500Y-101037500D01*
X166802000Y-117780000D02*
X161722000Y-117780000D01*
X166802000Y-105207000D02*
X164465000Y-102870000D01*
X137084000Y-112700000D02*
X137084000Y-113606000D01*
X161722000Y-117780000D02*
X157658000Y-121844000D01*
X139137500Y-112721500D02*
X139137500Y-105210500D01*
X146118000Y-121844000D02*
X145720000Y-121844000D01*
X172898000Y-117780000D02*
X166802000Y-117780000D01*
D19*
X125095000Y-104140000D02*
X126165500Y-105210500D01*
D18*
X156134000Y-121844000D02*
X146118000Y-121844000D01*
X164660000Y-119050000D02*
X164660000Y-117780000D01*
X166802000Y-112877400D02*
X166802000Y-114224000D01*
X180490000Y-117780000D02*
X172898000Y-117780000D01*
D19*
X136914400Y-113436400D02*
X137084000Y-113606000D01*
D18*
X146118000Y-120828000D02*
X146118000Y-121844000D01*
D19*
X166674800Y-113004600D02*
X166802000Y-112877400D01*
D18*
X157658000Y-121844000D02*
X156134000Y-121844000D01*
X156278000Y-121700000D02*
X156134000Y-121844000D01*
X137084000Y-118796000D02*
X137084000Y-119558000D01*
X139137500Y-101037500D02*
X138430000Y-100330000D01*
D19*
X126165500Y-105210500D02*
X139137500Y-105210500D01*
D18*
X173620000Y-115240000D02*
X173620000Y-120320000D01*
X138430000Y-100330000D02*
X137160000Y-100330000D01*
D20*
%TO.N,Net-(D1-Pad1)*%
X127000000Y-102475000D02*
X127000000Y-103886000D01*
X140106400Y-115824000D02*
X140665200Y-115265200D01*
X140106400Y-119151400D02*
X140106400Y-115824000D01*
%TO.N,Net-(D1-Pad2)*%
X125095000Y-100600000D02*
X126875000Y-100600000D01*
X126875000Y-100600000D02*
X127000000Y-100725000D01*
%TO.N,Net-(R3-Pad2)*%
X154940000Y-112776000D02*
X154940000Y-117094000D01*
D19*
%TO.N,Net-(R2-Pad1)*%
X149860000Y-115570000D02*
X150876000Y-116586000D01*
X150876000Y-116586000D02*
X153162000Y-116586000D01*
X146050000Y-115570000D02*
X149860000Y-115570000D01*
%TD*%
%TA.AperFunction,Conductor*%
%TO.N,GND*%
G36*
X191771621Y-96190502D02*
G01*
X191818114Y-96244158D01*
X191829500Y-96296500D01*
X191829500Y-125703500D01*
X191809498Y-125771621D01*
X191755842Y-125818114D01*
X191703500Y-125829500D01*
X109296500Y-125829500D01*
X109228379Y-125809498D01*
X109181886Y-125755842D01*
X109170500Y-125703500D01*
X109170500Y-117735519D01*
X116801331Y-117735519D01*
X116813415Y-117987087D01*
X116826330Y-118052015D01*
X116855437Y-118198344D01*
X116862550Y-118234105D01*
X116864129Y-118238503D01*
X116864131Y-118238510D01*
X116908989Y-118363449D01*
X116947657Y-118471148D01*
X116949874Y-118475274D01*
X117058135Y-118676757D01*
X117066866Y-118693007D01*
X117069661Y-118696750D01*
X117069663Y-118696753D01*
X117214767Y-118891071D01*
X117214772Y-118891077D01*
X117217559Y-118894809D01*
X117220868Y-118898089D01*
X117220873Y-118898095D01*
X117326328Y-119002633D01*
X117396425Y-119072121D01*
X117400187Y-119074879D01*
X117400190Y-119074882D01*
X117537649Y-119175671D01*
X117599534Y-119221047D01*
X117603665Y-119223221D01*
X117603666Y-119223221D01*
X117818290Y-119336140D01*
X117818296Y-119336142D01*
X117822425Y-119338315D01*
X117826832Y-119339854D01*
X117826839Y-119339857D01*
X118055785Y-119419808D01*
X118060201Y-119421350D01*
X118064794Y-119422222D01*
X118217988Y-119451307D01*
X118307639Y-119468328D01*
X118427341Y-119473031D01*
X118554635Y-119478033D01*
X118554640Y-119478033D01*
X118559303Y-119478216D01*
X118657543Y-119467457D01*
X118805011Y-119451307D01*
X118805016Y-119451306D01*
X118809664Y-119450797D01*
X118829157Y-119445665D01*
X119048699Y-119387864D01*
X119048701Y-119387863D01*
X119053222Y-119386673D01*
X119168288Y-119337237D01*
X119280333Y-119289099D01*
X119280335Y-119289098D01*
X119284627Y-119287254D01*
X119388103Y-119223221D01*
X119494822Y-119157182D01*
X119494826Y-119157179D01*
X119498795Y-119154723D01*
X119668972Y-119010658D01*
X119687454Y-118995012D01*
X119687456Y-118995010D01*
X119691021Y-118991992D01*
X119857082Y-118802635D01*
X119860627Y-118797125D01*
X119982059Y-118608337D01*
X120035733Y-118561866D01*
X120088030Y-118550500D01*
X125223500Y-118550500D01*
X125291621Y-118570502D01*
X125338114Y-118624158D01*
X125349500Y-118676500D01*
X125349500Y-118730792D01*
X125329498Y-118798913D01*
X125292586Y-118836163D01*
X125258460Y-118858537D01*
X125089475Y-118969328D01*
X125089470Y-118969332D01*
X125085562Y-118971894D01*
X124897661Y-119139601D01*
X124736613Y-119333240D01*
X124684082Y-119419808D01*
X124632476Y-119504853D01*
X124605956Y-119548556D01*
X124508560Y-119780820D01*
X124446564Y-120024928D01*
X124446096Y-120029579D01*
X124446095Y-120029583D01*
X124442428Y-120066000D01*
X124421331Y-120275519D01*
X124421555Y-120280185D01*
X124421555Y-120280190D01*
X124423619Y-120323160D01*
X124433415Y-120527087D01*
X124482550Y-120774105D01*
X124484129Y-120778503D01*
X124484131Y-120778510D01*
X124528174Y-120901178D01*
X124567657Y-121011148D01*
X124569874Y-121015274D01*
X124678135Y-121216757D01*
X124686866Y-121233007D01*
X124689661Y-121236750D01*
X124689663Y-121236753D01*
X124834767Y-121431071D01*
X124834772Y-121431077D01*
X124837559Y-121434809D01*
X124840868Y-121438089D01*
X124840873Y-121438095D01*
X124981349Y-121577350D01*
X125016425Y-121612121D01*
X125020187Y-121614879D01*
X125020190Y-121614882D01*
X125132433Y-121697182D01*
X125219534Y-121761047D01*
X125223665Y-121763221D01*
X125223666Y-121763221D01*
X125438290Y-121876140D01*
X125438296Y-121876142D01*
X125442425Y-121878315D01*
X125446832Y-121879854D01*
X125446839Y-121879857D01*
X125675785Y-121959808D01*
X125680201Y-121961350D01*
X125684794Y-121962222D01*
X125837988Y-121991307D01*
X125927639Y-122008328D01*
X126047341Y-122013031D01*
X126174635Y-122018033D01*
X126174640Y-122018033D01*
X126179303Y-122018216D01*
X126277543Y-122007457D01*
X126425011Y-121991307D01*
X126425016Y-121991306D01*
X126429664Y-121990797D01*
X126434188Y-121989606D01*
X126668699Y-121927864D01*
X126668701Y-121927863D01*
X126673222Y-121926673D01*
X126788037Y-121877345D01*
X126900333Y-121829099D01*
X126900335Y-121829098D01*
X126904627Y-121827254D01*
X127008103Y-121763221D01*
X127114822Y-121697182D01*
X127114826Y-121697179D01*
X127118795Y-121694723D01*
X127311021Y-121531992D01*
X127477082Y-121342635D01*
X127482296Y-121334530D01*
X127610803Y-121134743D01*
X127613331Y-121130813D01*
X127716774Y-120901178D01*
X127785138Y-120658776D01*
X127793525Y-120592845D01*
X169104763Y-120592845D01*
X169142781Y-120808458D01*
X169144902Y-120816965D01*
X169230001Y-121078871D01*
X169233293Y-121087018D01*
X169354012Y-121334530D01*
X169358397Y-121342126D01*
X169512392Y-121570433D01*
X169517797Y-121577350D01*
X169702059Y-121781994D01*
X169708379Y-121788097D01*
X169919333Y-121965109D01*
X169926436Y-121970269D01*
X170159980Y-122116204D01*
X170167714Y-122120316D01*
X170419304Y-122232331D01*
X170427545Y-122235330D01*
X170692265Y-122311237D01*
X170700845Y-122313061D01*
X170973557Y-122351388D01*
X170982306Y-122352000D01*
X173347885Y-122352000D01*
X173363124Y-122347525D01*
X173364329Y-122346135D01*
X173366000Y-122338452D01*
X173366000Y-122333885D01*
X173874000Y-122333885D01*
X173878475Y-122349124D01*
X173879865Y-122350329D01*
X173887548Y-122352000D01*
X176188765Y-122352000D01*
X176193147Y-122351847D01*
X176399102Y-122337445D01*
X176407791Y-122336224D01*
X176677167Y-122278967D01*
X176685592Y-122276551D01*
X176944374Y-122182361D01*
X176952394Y-122178790D01*
X177195533Y-122049512D01*
X177202989Y-122044853D01*
X177425771Y-121882992D01*
X177432501Y-121877345D01*
X177630596Y-121686048D01*
X177636467Y-121679526D01*
X177806010Y-121462521D01*
X177810916Y-121455248D01*
X177948608Y-121216757D01*
X177952457Y-121208865D01*
X178055616Y-120953539D01*
X178058332Y-120945181D01*
X178124952Y-120677984D01*
X178126476Y-120669342D01*
X178134603Y-120592015D01*
X178131923Y-120577364D01*
X178119603Y-120574000D01*
X173892115Y-120574000D01*
X173876876Y-120578475D01*
X173875671Y-120579865D01*
X173874000Y-120587548D01*
X173874000Y-122333885D01*
X173366000Y-122333885D01*
X173366000Y-120592115D01*
X173361525Y-120576876D01*
X173360135Y-120575671D01*
X173352452Y-120574000D01*
X169119555Y-120574000D01*
X169106686Y-120577779D01*
X169104763Y-120592845D01*
X127793525Y-120592845D01*
X127816922Y-120408932D01*
X127819251Y-120320000D01*
X127816293Y-120280190D01*
X127800932Y-120073487D01*
X127800931Y-120073483D01*
X127800586Y-120068835D01*
X127795868Y-120047985D01*
X169105397Y-120047985D01*
X169108077Y-120062636D01*
X169120397Y-120066000D01*
X173347885Y-120066000D01*
X173363124Y-120061525D01*
X173364329Y-120060135D01*
X173366000Y-120052452D01*
X173366000Y-120047885D01*
X173874000Y-120047885D01*
X173878475Y-120063124D01*
X173879865Y-120064329D01*
X173887548Y-120066000D01*
X178120445Y-120066000D01*
X178133314Y-120062221D01*
X178135237Y-120047155D01*
X178109582Y-119901656D01*
X178117451Y-119831097D01*
X178162219Y-119775994D01*
X178229670Y-119753840D01*
X178268399Y-119758658D01*
X178312269Y-119771238D01*
X178320845Y-119773061D01*
X178593557Y-119811388D01*
X178602306Y-119812000D01*
X180967885Y-119812000D01*
X180983124Y-119807525D01*
X180984329Y-119806135D01*
X180986000Y-119798452D01*
X180986000Y-119793885D01*
X181494000Y-119793885D01*
X181498475Y-119809124D01*
X181499865Y-119810329D01*
X181507548Y-119812000D01*
X183808765Y-119812000D01*
X183813147Y-119811847D01*
X184019102Y-119797445D01*
X184027791Y-119796224D01*
X184297167Y-119738967D01*
X184305592Y-119736551D01*
X184564374Y-119642361D01*
X184572394Y-119638790D01*
X184815533Y-119509512D01*
X184822989Y-119504853D01*
X185045771Y-119342992D01*
X185052501Y-119337345D01*
X185250596Y-119146048D01*
X185256467Y-119139526D01*
X185426010Y-118922521D01*
X185430916Y-118915248D01*
X185568608Y-118676757D01*
X185572457Y-118668865D01*
X185675616Y-118413539D01*
X185678332Y-118405181D01*
X185744952Y-118137984D01*
X185746476Y-118129342D01*
X185754603Y-118052015D01*
X185751923Y-118037364D01*
X185739603Y-118034000D01*
X181512115Y-118034000D01*
X181496876Y-118038475D01*
X181495671Y-118039865D01*
X181494000Y-118047548D01*
X181494000Y-119793885D01*
X180986000Y-119793885D01*
X180986000Y-118052115D01*
X180981525Y-118036876D01*
X180980135Y-118035671D01*
X180972452Y-118034000D01*
X176739555Y-118034000D01*
X176726686Y-118037779D01*
X176724763Y-118052845D01*
X176750418Y-118198344D01*
X176742549Y-118268903D01*
X176697781Y-118324006D01*
X176630330Y-118346160D01*
X176591601Y-118341342D01*
X176547731Y-118328762D01*
X176539155Y-118326939D01*
X176266443Y-118288612D01*
X176257694Y-118288000D01*
X173892115Y-118288000D01*
X173876876Y-118292475D01*
X173875671Y-118293865D01*
X173874000Y-118301548D01*
X173874000Y-120047885D01*
X173366000Y-120047885D01*
X173366000Y-118306115D01*
X173361525Y-118290876D01*
X173360135Y-118289671D01*
X173352452Y-118288000D01*
X171051235Y-118288000D01*
X171046853Y-118288153D01*
X170840898Y-118302555D01*
X170832209Y-118303776D01*
X170562833Y-118361033D01*
X170554408Y-118363449D01*
X170295626Y-118457639D01*
X170287606Y-118461210D01*
X170044467Y-118590488D01*
X170037011Y-118595147D01*
X169814229Y-118757008D01*
X169807499Y-118762655D01*
X169609404Y-118953952D01*
X169603533Y-118960474D01*
X169433990Y-119177479D01*
X169429084Y-119184752D01*
X169291392Y-119423243D01*
X169287543Y-119431135D01*
X169184384Y-119686461D01*
X169181668Y-119694819D01*
X169115048Y-119962016D01*
X169113524Y-119970658D01*
X169105397Y-120047985D01*
X127795868Y-120047985D01*
X127745002Y-119823187D01*
X127739533Y-119809124D01*
X127655412Y-119592807D01*
X127655411Y-119592805D01*
X127653719Y-119588454D01*
X127630916Y-119548556D01*
X127572108Y-119445665D01*
X127528743Y-119369791D01*
X127372819Y-119172003D01*
X127350917Y-119151400D01*
X139530977Y-119151400D01*
X139532055Y-119159588D01*
X139548863Y-119287254D01*
X139550584Y-119300330D01*
X139608069Y-119439111D01*
X139699514Y-119558286D01*
X139818688Y-119649731D01*
X139888079Y-119678474D01*
X139949840Y-119704056D01*
X139949843Y-119704057D01*
X139957470Y-119707216D01*
X140106400Y-119726823D01*
X140114588Y-119725745D01*
X140247142Y-119708294D01*
X140255330Y-119707216D01*
X140262957Y-119704057D01*
X140262960Y-119704056D01*
X140324721Y-119678474D01*
X140394112Y-119649731D01*
X140513286Y-119558286D01*
X140604731Y-119439111D01*
X140662216Y-119300330D01*
X140663938Y-119287254D01*
X140680745Y-119159588D01*
X140681823Y-119151400D01*
X140662216Y-119002470D01*
X140656420Y-118988476D01*
X140607892Y-118871321D01*
X140604731Y-118863689D01*
X140513286Y-118744514D01*
X140451196Y-118696871D01*
X140409329Y-118639533D01*
X140401900Y-118596908D01*
X140401900Y-115998590D01*
X140421902Y-115930469D01*
X140438805Y-115909495D01*
X140482065Y-115866235D01*
X140544377Y-115832209D01*
X140587606Y-115830408D01*
X140657011Y-115839545D01*
X140657012Y-115839545D01*
X140665200Y-115840623D01*
X140673388Y-115839545D01*
X140805942Y-115822094D01*
X140814130Y-115821016D01*
X140821757Y-115817857D01*
X140821760Y-115817856D01*
X140893611Y-115788094D01*
X140952912Y-115763531D01*
X141032831Y-115702207D01*
X141065535Y-115677113D01*
X141065536Y-115677112D01*
X141072086Y-115672086D01*
X141155846Y-115562927D01*
X145374612Y-115562927D01*
X145392420Y-115724234D01*
X145415367Y-115786939D01*
X145445580Y-115869501D01*
X145445582Y-115869505D01*
X145448192Y-115876637D01*
X145452429Y-115882943D01*
X145452431Y-115882946D01*
X145474576Y-115915901D01*
X145538707Y-116011337D01*
X145544325Y-116016449D01*
X145653118Y-116115444D01*
X145653122Y-116115447D01*
X145658739Y-116120558D01*
X145665412Y-116124181D01*
X145665416Y-116124184D01*
X145741512Y-116165500D01*
X145801359Y-116197994D01*
X145958334Y-116239176D01*
X146044250Y-116240526D01*
X146113004Y-116241606D01*
X146113007Y-116241606D01*
X146120601Y-116241725D01*
X146176392Y-116228947D01*
X146271389Y-116207190D01*
X146271393Y-116207189D01*
X146278792Y-116205494D01*
X146423774Y-116132576D01*
X146476885Y-116087215D01*
X146541403Y-116032112D01*
X146541406Y-116032109D01*
X146547178Y-116027179D01*
X146547774Y-116027877D01*
X146603062Y-115994609D01*
X146634976Y-115990500D01*
X149633633Y-115990500D01*
X149701754Y-116010502D01*
X149722728Y-116027405D01*
X150531566Y-116836243D01*
X150531567Y-116836245D01*
X150625755Y-116930433D01*
X150634595Y-116934937D01*
X150646771Y-116941141D01*
X150663631Y-116951472D01*
X150682717Y-116965339D01*
X150692145Y-116968402D01*
X150692148Y-116968404D01*
X150705154Y-116972630D01*
X150723417Y-116980194D01*
X150744438Y-116990905D01*
X150767733Y-116994594D01*
X150786961Y-116999211D01*
X150799963Y-117003436D01*
X150799969Y-117003437D01*
X150809399Y-117006501D01*
X150942601Y-117006501D01*
X150942603Y-117006500D01*
X152579062Y-117006500D01*
X152647183Y-117026502D01*
X152663862Y-117039307D01*
X152765118Y-117131444D01*
X152765122Y-117131447D01*
X152770739Y-117136558D01*
X152777412Y-117140181D01*
X152777416Y-117140184D01*
X152906686Y-117210371D01*
X152913359Y-117213994D01*
X153070334Y-117255176D01*
X153156250Y-117256526D01*
X153225004Y-117257606D01*
X153225007Y-117257606D01*
X153232601Y-117257725D01*
X153297199Y-117242930D01*
X153383389Y-117223190D01*
X153383393Y-117223189D01*
X153390792Y-117221494D01*
X153535774Y-117148576D01*
X153562060Y-117126126D01*
X153599675Y-117094000D01*
X154364577Y-117094000D01*
X154365655Y-117102188D01*
X154380375Y-117213994D01*
X154384184Y-117242930D01*
X154441669Y-117381711D01*
X154533114Y-117500886D01*
X154539664Y-117505912D01*
X154539665Y-117505913D01*
X154565843Y-117526000D01*
X154652288Y-117592331D01*
X154721679Y-117621073D01*
X154783440Y-117646656D01*
X154783443Y-117646657D01*
X154791070Y-117649816D01*
X154940000Y-117669423D01*
X154948188Y-117668345D01*
X155080742Y-117650894D01*
X155088930Y-117649816D01*
X155096557Y-117646657D01*
X155096560Y-117646656D01*
X155158321Y-117621073D01*
X155227712Y-117592331D01*
X155314157Y-117526000D01*
X155340335Y-117505913D01*
X155340336Y-117505912D01*
X155346886Y-117500886D01*
X155438331Y-117381711D01*
X155495816Y-117242930D01*
X155499626Y-117213994D01*
X155514345Y-117102188D01*
X155515423Y-117094000D01*
X155495816Y-116945070D01*
X155438331Y-116806289D01*
X155346886Y-116687114D01*
X155338980Y-116681047D01*
X155284796Y-116639471D01*
X155242929Y-116582133D01*
X155235500Y-116539508D01*
X155235500Y-115512845D01*
X169104763Y-115512845D01*
X169142781Y-115728458D01*
X169144902Y-115736965D01*
X169230001Y-115998871D01*
X169233293Y-116007018D01*
X169354012Y-116254530D01*
X169358397Y-116262126D01*
X169512392Y-116490433D01*
X169517797Y-116497350D01*
X169702059Y-116701994D01*
X169708379Y-116708097D01*
X169919333Y-116885109D01*
X169926436Y-116890269D01*
X170159980Y-117036204D01*
X170167714Y-117040316D01*
X170419304Y-117152331D01*
X170427545Y-117155330D01*
X170692265Y-117231237D01*
X170700845Y-117233061D01*
X170973557Y-117271388D01*
X170982306Y-117272000D01*
X173347885Y-117272000D01*
X173363124Y-117267525D01*
X173364329Y-117266135D01*
X173366000Y-117258452D01*
X173366000Y-117253885D01*
X173874000Y-117253885D01*
X173878475Y-117269124D01*
X173879865Y-117270329D01*
X173887548Y-117272000D01*
X176188765Y-117272000D01*
X176193147Y-117271847D01*
X176399102Y-117257445D01*
X176407788Y-117256224D01*
X176599777Y-117215416D01*
X176670568Y-117220818D01*
X176727201Y-117263635D01*
X176751694Y-117330273D01*
X176748231Y-117369146D01*
X176735048Y-117422020D01*
X176733524Y-117430658D01*
X176725397Y-117507985D01*
X176728077Y-117522636D01*
X176740397Y-117526000D01*
X180967885Y-117526000D01*
X180983124Y-117521525D01*
X180984329Y-117520135D01*
X180986000Y-117512452D01*
X180986000Y-117507885D01*
X181494000Y-117507885D01*
X181498475Y-117523124D01*
X181499865Y-117524329D01*
X181507548Y-117526000D01*
X185740445Y-117526000D01*
X185753314Y-117522221D01*
X185755237Y-117507155D01*
X185717219Y-117291542D01*
X185715098Y-117283035D01*
X185629999Y-117021129D01*
X185626707Y-117012982D01*
X185505988Y-116765470D01*
X185501603Y-116757874D01*
X185347608Y-116529567D01*
X185342203Y-116522650D01*
X185157941Y-116318006D01*
X185151621Y-116311903D01*
X184940667Y-116134891D01*
X184933564Y-116129731D01*
X184700020Y-115983796D01*
X184692286Y-115979684D01*
X184440696Y-115867669D01*
X184432455Y-115864670D01*
X184167735Y-115788763D01*
X184159155Y-115786939D01*
X183886443Y-115748612D01*
X183877694Y-115748000D01*
X181512115Y-115748000D01*
X181496876Y-115752475D01*
X181495671Y-115753865D01*
X181494000Y-115761548D01*
X181494000Y-117507885D01*
X180986000Y-117507885D01*
X180986000Y-115766115D01*
X180981525Y-115750876D01*
X180980135Y-115749671D01*
X180972452Y-115748000D01*
X178671235Y-115748000D01*
X178666853Y-115748153D01*
X178460898Y-115762555D01*
X178452212Y-115763776D01*
X178260223Y-115804584D01*
X178189432Y-115799182D01*
X178132799Y-115756365D01*
X178108306Y-115689727D01*
X178111769Y-115650854D01*
X178124952Y-115597980D01*
X178126476Y-115589342D01*
X178134603Y-115512015D01*
X178131923Y-115497364D01*
X178119603Y-115494000D01*
X173892115Y-115494000D01*
X173876876Y-115498475D01*
X173875671Y-115499865D01*
X173874000Y-115507548D01*
X173874000Y-117253885D01*
X173366000Y-117253885D01*
X173366000Y-115512115D01*
X173361525Y-115496876D01*
X173360135Y-115495671D01*
X173352452Y-115494000D01*
X169119555Y-115494000D01*
X169106686Y-115497779D01*
X169104763Y-115512845D01*
X155235500Y-115512845D01*
X155235500Y-114967985D01*
X169105397Y-114967985D01*
X169108077Y-114982636D01*
X169120397Y-114986000D01*
X173347885Y-114986000D01*
X173363124Y-114981525D01*
X173364329Y-114980135D01*
X173366000Y-114972452D01*
X173366000Y-114967885D01*
X173874000Y-114967885D01*
X173878475Y-114983124D01*
X173879865Y-114984329D01*
X173887548Y-114986000D01*
X178120445Y-114986000D01*
X178133314Y-114982221D01*
X178135237Y-114967155D01*
X178097219Y-114751542D01*
X178095098Y-114743035D01*
X178009999Y-114481129D01*
X178006707Y-114472982D01*
X177885988Y-114225470D01*
X177881603Y-114217874D01*
X177727608Y-113989567D01*
X177722203Y-113982650D01*
X177537941Y-113778006D01*
X177531621Y-113771903D01*
X177320667Y-113594891D01*
X177313564Y-113589731D01*
X177080020Y-113443796D01*
X177072286Y-113439684D01*
X176820696Y-113327669D01*
X176812455Y-113324670D01*
X176547735Y-113248763D01*
X176539155Y-113246939D01*
X176266443Y-113208612D01*
X176257694Y-113208000D01*
X173892115Y-113208000D01*
X173876876Y-113212475D01*
X173875671Y-113213865D01*
X173874000Y-113221548D01*
X173874000Y-114967885D01*
X173366000Y-114967885D01*
X173366000Y-113226115D01*
X173361525Y-113210876D01*
X173360135Y-113209671D01*
X173352452Y-113208000D01*
X171051235Y-113208000D01*
X171046853Y-113208153D01*
X170840898Y-113222555D01*
X170832209Y-113223776D01*
X170562833Y-113281033D01*
X170554408Y-113283449D01*
X170295626Y-113377639D01*
X170287606Y-113381210D01*
X170044467Y-113510488D01*
X170037011Y-113515147D01*
X169814229Y-113677008D01*
X169807499Y-113682655D01*
X169609404Y-113873952D01*
X169603533Y-113880474D01*
X169433990Y-114097479D01*
X169429084Y-114104752D01*
X169291392Y-114343243D01*
X169287543Y-114351135D01*
X169184384Y-114606461D01*
X169181668Y-114614819D01*
X169115048Y-114882016D01*
X169113524Y-114890658D01*
X169105397Y-114967985D01*
X155235500Y-114967985D01*
X155235500Y-113330492D01*
X155255502Y-113262371D01*
X155284796Y-113230529D01*
X155340335Y-113187913D01*
X155340336Y-113187912D01*
X155346886Y-113182886D01*
X155438331Y-113063711D01*
X155495816Y-112924930D01*
X155515423Y-112776000D01*
X155495816Y-112627070D01*
X155438331Y-112488289D01*
X155346886Y-112369114D01*
X155227712Y-112277669D01*
X155158321Y-112248926D01*
X155096560Y-112223344D01*
X155096557Y-112223343D01*
X155088930Y-112220184D01*
X154940000Y-112200577D01*
X154791070Y-112220184D01*
X154652289Y-112277669D01*
X154533114Y-112369114D01*
X154441669Y-112488289D01*
X154384184Y-112627070D01*
X154364577Y-112776000D01*
X154384184Y-112924930D01*
X154441669Y-113063711D01*
X154533114Y-113182886D01*
X154539664Y-113187912D01*
X154539665Y-113187913D01*
X154595204Y-113230529D01*
X154637071Y-113287867D01*
X154644500Y-113330492D01*
X154644500Y-116539509D01*
X154624498Y-116607630D01*
X154595203Y-116639472D01*
X154533114Y-116687114D01*
X154528088Y-116693664D01*
X154474563Y-116763420D01*
X154441669Y-116806289D01*
X154384184Y-116945070D01*
X154364577Y-117094000D01*
X153599675Y-117094000D01*
X153653404Y-117048111D01*
X153653406Y-117048108D01*
X153659178Y-117043179D01*
X153753879Y-116911388D01*
X153765090Y-116883500D01*
X153811577Y-116767861D01*
X153811578Y-116767859D01*
X153814410Y-116760813D01*
X153837277Y-116600145D01*
X153837425Y-116586000D01*
X153822109Y-116459434D01*
X153818841Y-116432432D01*
X153818841Y-116432431D01*
X153817928Y-116424889D01*
X153775235Y-116311903D01*
X153763249Y-116280183D01*
X153763248Y-116280181D01*
X153760564Y-116273078D01*
X153703686Y-116190320D01*
X153672946Y-116145592D01*
X153672945Y-116145590D01*
X153668644Y-116139333D01*
X153654745Y-116126949D01*
X153553145Y-116036428D01*
X153547474Y-116031375D01*
X153404051Y-115955436D01*
X153394098Y-115952936D01*
X153254024Y-115917752D01*
X153254021Y-115917752D01*
X153246653Y-115915901D01*
X153239054Y-115915861D01*
X153239052Y-115915861D01*
X153172042Y-115915510D01*
X153084369Y-115915051D01*
X153076989Y-115916823D01*
X153076987Y-115916823D01*
X152933945Y-115951164D01*
X152933941Y-115951165D01*
X152926566Y-115952936D01*
X152782355Y-116027369D01*
X152776633Y-116032361D01*
X152776631Y-116032362D01*
X152678597Y-116117882D01*
X152660061Y-116134052D01*
X152657894Y-116131568D01*
X152610143Y-116161029D01*
X152576875Y-116165500D01*
X151102367Y-116165500D01*
X151034246Y-116145498D01*
X151013272Y-116128595D01*
X150204434Y-115319757D01*
X150204433Y-115319755D01*
X150110245Y-115225567D01*
X150089229Y-115214859D01*
X150072369Y-115204528D01*
X150061302Y-115196487D01*
X150061301Y-115196486D01*
X150053283Y-115190661D01*
X150043855Y-115187598D01*
X150043852Y-115187596D01*
X150030846Y-115183370D01*
X150012583Y-115175806D01*
X149991562Y-115165095D01*
X149968267Y-115161406D01*
X149949039Y-115156789D01*
X149936037Y-115152564D01*
X149936031Y-115152563D01*
X149926601Y-115149499D01*
X149793399Y-115149499D01*
X149793397Y-115149500D01*
X146634003Y-115149500D01*
X146565882Y-115129498D01*
X146550184Y-115117577D01*
X146441145Y-115020428D01*
X146435474Y-115015375D01*
X146292051Y-114939436D01*
X146282098Y-114936936D01*
X146142024Y-114901752D01*
X146142021Y-114901752D01*
X146134653Y-114899901D01*
X146127054Y-114899861D01*
X146127052Y-114899861D01*
X146060042Y-114899510D01*
X145972369Y-114899051D01*
X145964989Y-114900823D01*
X145964987Y-114900823D01*
X145821945Y-114935164D01*
X145821941Y-114935165D01*
X145814566Y-114936936D01*
X145670355Y-115011369D01*
X145548061Y-115118052D01*
X145454746Y-115250827D01*
X145395795Y-115402029D01*
X145394804Y-115409556D01*
X145375931Y-115552911D01*
X145374612Y-115562927D01*
X141155846Y-115562927D01*
X141163531Y-115552911D01*
X141221016Y-115414130D01*
X141240623Y-115265200D01*
X141225391Y-115149499D01*
X141222094Y-115124458D01*
X141221016Y-115116270D01*
X141163531Y-114977489D01*
X141072086Y-114858314D01*
X140952912Y-114766869D01*
X140883521Y-114738127D01*
X140821760Y-114712544D01*
X140821757Y-114712543D01*
X140814130Y-114709384D01*
X140665200Y-114689777D01*
X140516270Y-114709384D01*
X140377489Y-114766869D01*
X140258314Y-114858314D01*
X140166869Y-114977489D01*
X140109384Y-115116270D01*
X140108306Y-115124458D01*
X140105009Y-115149499D01*
X140089777Y-115265200D01*
X140090855Y-115273388D01*
X140090855Y-115273389D01*
X140099992Y-115342792D01*
X140089053Y-115412941D01*
X140064165Y-115448333D01*
X139933801Y-115578697D01*
X139931888Y-115580348D01*
X139927163Y-115582658D01*
X139919251Y-115591187D01*
X139919250Y-115591188D01*
X139894440Y-115617934D01*
X139891160Y-115621339D01*
X139878014Y-115634485D01*
X139875322Y-115638409D01*
X139873116Y-115640921D01*
X139852298Y-115663364D01*
X139847989Y-115674165D01*
X139845166Y-115678630D01*
X139840275Y-115687789D01*
X139838136Y-115692616D01*
X139831557Y-115702207D01*
X139825994Y-115725650D01*
X139820434Y-115743232D01*
X139811506Y-115765609D01*
X139810900Y-115771790D01*
X139810900Y-115774871D01*
X139810750Y-115777942D01*
X139810500Y-115777930D01*
X139809310Y-115788094D01*
X139808826Y-115797996D01*
X139806140Y-115809315D01*
X139807709Y-115820844D01*
X139809749Y-115835834D01*
X139810900Y-115852825D01*
X139810900Y-118596909D01*
X139790898Y-118665030D01*
X139761603Y-118696872D01*
X139699514Y-118744514D01*
X139608069Y-118863689D01*
X139604908Y-118871321D01*
X139556381Y-118988476D01*
X139550584Y-119002470D01*
X139530977Y-119151400D01*
X127350917Y-119151400D01*
X127289381Y-119093512D01*
X127192774Y-119002633D01*
X127192771Y-119002631D01*
X127189373Y-118999434D01*
X127068019Y-118915248D01*
X126986271Y-118858537D01*
X126986270Y-118858536D01*
X126982435Y-118855876D01*
X126960772Y-118845193D01*
X126908523Y-118797125D01*
X126890500Y-118732187D01*
X126890500Y-117733719D01*
X126890501Y-117733279D01*
X126890789Y-117650894D01*
X126890840Y-117636260D01*
X126890583Y-117635109D01*
X126890500Y-117633580D01*
X126890500Y-116826198D01*
X126910502Y-116758077D01*
X126950193Y-116719057D01*
X127118795Y-116614723D01*
X127265613Y-116490433D01*
X127307454Y-116455012D01*
X127307456Y-116455010D01*
X127311021Y-116451992D01*
X127477082Y-116262635D01*
X127482296Y-116254530D01*
X127610803Y-116054743D01*
X127613331Y-116050813D01*
X127716774Y-115821178D01*
X127785138Y-115578776D01*
X127816922Y-115328932D01*
X127817163Y-115319757D01*
X127819168Y-115243160D01*
X127819251Y-115240000D01*
X127816017Y-115196487D01*
X127800932Y-114993487D01*
X127800931Y-114993483D01*
X127800586Y-114988835D01*
X127745002Y-114743187D01*
X127731857Y-114709384D01*
X127655412Y-114512807D01*
X127655411Y-114512805D01*
X127653719Y-114508454D01*
X127630916Y-114468556D01*
X127531062Y-114293849D01*
X127528743Y-114289791D01*
X127372819Y-114092003D01*
X127289381Y-114013512D01*
X127192774Y-113922633D01*
X127192771Y-113922631D01*
X127189373Y-113919434D01*
X127123811Y-113873952D01*
X126986267Y-113778534D01*
X126986264Y-113778532D01*
X126982435Y-113775876D01*
X126978258Y-113773816D01*
X126978251Y-113773812D01*
X126760737Y-113666546D01*
X126760733Y-113666545D01*
X126756551Y-113664482D01*
X126516682Y-113587699D01*
X126380761Y-113565563D01*
X126272711Y-113547966D01*
X126272710Y-113547966D01*
X126268099Y-113547215D01*
X126138638Y-113545520D01*
X126020939Y-113543979D01*
X126020936Y-113543979D01*
X126016263Y-113543918D01*
X125870723Y-113563726D01*
X125771340Y-113577251D01*
X125771336Y-113577252D01*
X125766706Y-113577882D01*
X125524910Y-113648359D01*
X125520657Y-113650319D01*
X125520656Y-113650320D01*
X125485459Y-113666546D01*
X125296187Y-113753802D01*
X125248463Y-113785091D01*
X125089475Y-113889328D01*
X125089470Y-113889332D01*
X125085562Y-113891894D01*
X124897661Y-114059601D01*
X124736613Y-114253240D01*
X124605956Y-114468556D01*
X124508560Y-114700820D01*
X124446564Y-114944928D01*
X124446096Y-114949579D01*
X124446095Y-114949583D01*
X124439874Y-115011369D01*
X124421331Y-115195519D01*
X124421555Y-115200185D01*
X124421555Y-115200190D01*
X124424285Y-115257012D01*
X124433415Y-115447087D01*
X124446330Y-115512015D01*
X124481294Y-115687789D01*
X124482550Y-115694105D01*
X124484129Y-115698503D01*
X124484131Y-115698510D01*
X124550351Y-115882946D01*
X124567657Y-115931148D01*
X124569874Y-115935274D01*
X124679519Y-116139333D01*
X124686866Y-116153007D01*
X124689661Y-116156750D01*
X124689663Y-116156753D01*
X124834767Y-116351071D01*
X124834772Y-116351077D01*
X124837559Y-116354809D01*
X124840868Y-116358089D01*
X124840873Y-116358095D01*
X124981349Y-116497350D01*
X125016425Y-116532121D01*
X125020187Y-116534879D01*
X125020190Y-116534882D01*
X125162833Y-116639472D01*
X125219534Y-116681047D01*
X125223667Y-116683221D01*
X125223671Y-116683224D01*
X125282168Y-116714001D01*
X125333140Y-116763420D01*
X125349500Y-116825509D01*
X125349500Y-116883500D01*
X125329498Y-116951621D01*
X125275842Y-116998114D01*
X125223500Y-117009500D01*
X120084568Y-117009500D01*
X120016447Y-116989498D01*
X119975175Y-116946023D01*
X119939440Y-116883500D01*
X119908743Y-116829791D01*
X119752819Y-116632003D01*
X119654494Y-116539508D01*
X119572774Y-116462633D01*
X119572771Y-116462631D01*
X119569373Y-116459434D01*
X119509332Y-116417782D01*
X119366267Y-116318534D01*
X119366264Y-116318532D01*
X119362435Y-116315876D01*
X119358258Y-116313816D01*
X119358251Y-116313812D01*
X119140737Y-116206546D01*
X119140733Y-116206545D01*
X119136551Y-116204482D01*
X118896682Y-116127699D01*
X118760761Y-116105563D01*
X118652711Y-116087966D01*
X118652710Y-116087966D01*
X118648099Y-116087215D01*
X118518638Y-116085520D01*
X118400939Y-116083979D01*
X118400936Y-116083979D01*
X118396263Y-116083918D01*
X118250723Y-116103726D01*
X118151340Y-116117251D01*
X118151336Y-116117252D01*
X118146706Y-116117882D01*
X117904910Y-116188359D01*
X117900657Y-116190319D01*
X117900656Y-116190320D01*
X117851547Y-116212960D01*
X117676187Y-116293802D01*
X117628463Y-116325091D01*
X117469475Y-116429328D01*
X117469470Y-116429332D01*
X117465562Y-116431894D01*
X117437685Y-116456775D01*
X117288284Y-116590120D01*
X117277661Y-116599601D01*
X117116613Y-116793240D01*
X117091971Y-116833849D01*
X116989063Y-117003436D01*
X116985956Y-117008556D01*
X116888560Y-117240820D01*
X116826564Y-117484928D01*
X116826096Y-117489579D01*
X116826095Y-117489583D01*
X116822428Y-117526000D01*
X116801331Y-117735519D01*
X109170500Y-117735519D01*
X109170500Y-100899271D01*
X111596668Y-100899271D01*
X111596755Y-100903273D01*
X111596755Y-100903280D01*
X111603235Y-101200245D01*
X111603349Y-101205465D01*
X111648883Y-101508330D01*
X111649979Y-101512190D01*
X111649980Y-101512195D01*
X111682112Y-101625368D01*
X111732531Y-101802953D01*
X111852937Y-102084560D01*
X112008149Y-102348585D01*
X112195651Y-102590747D01*
X112412404Y-102807122D01*
X112415585Y-102809576D01*
X112415586Y-102809577D01*
X112651701Y-102991739D01*
X112651705Y-102991742D01*
X112654894Y-102994202D01*
X112673858Y-103005306D01*
X112907511Y-103142115D01*
X112919189Y-103148953D01*
X112922874Y-103150521D01*
X112922878Y-103150523D01*
X112942319Y-103158795D01*
X113201006Y-103268867D01*
X113495775Y-103352001D01*
X113716338Y-103384768D01*
X113795419Y-103396516D01*
X113795421Y-103396516D01*
X113798718Y-103397006D01*
X113802049Y-103397146D01*
X113802053Y-103397146D01*
X113838737Y-103398683D01*
X113882084Y-103400500D01*
X114077474Y-103400500D01*
X114200915Y-103392626D01*
X114301639Y-103386201D01*
X114301644Y-103386200D01*
X114305647Y-103385945D01*
X114309584Y-103385183D01*
X114309586Y-103385183D01*
X114602401Y-103328530D01*
X114602405Y-103328529D01*
X114606338Y-103327768D01*
X114897200Y-103231856D01*
X115173518Y-103099763D01*
X115332523Y-102997095D01*
X123887001Y-102997095D01*
X123887338Y-103003614D01*
X123897257Y-103099206D01*
X123900149Y-103112600D01*
X123951588Y-103266784D01*
X123957761Y-103279962D01*
X124043063Y-103417807D01*
X124052099Y-103429208D01*
X124166829Y-103543739D01*
X124178240Y-103552751D01*
X124316243Y-103637816D01*
X124329424Y-103643963D01*
X124483710Y-103695138D01*
X124497086Y-103698005D01*
X124591438Y-103707672D01*
X124597854Y-103708000D01*
X124822885Y-103708000D01*
X124838124Y-103703525D01*
X124839329Y-103702135D01*
X124841000Y-103694452D01*
X124841000Y-102872115D01*
X124836525Y-102856876D01*
X124835135Y-102855671D01*
X124827452Y-102854000D01*
X123905116Y-102854000D01*
X123889877Y-102858475D01*
X123888672Y-102859865D01*
X123887001Y-102867548D01*
X123887001Y-102997095D01*
X115332523Y-102997095D01*
X115430812Y-102933631D01*
X115664910Y-102736152D01*
X115872019Y-102510529D01*
X116001099Y-102327885D01*
X123887000Y-102327885D01*
X123891475Y-102343124D01*
X123892865Y-102344329D01*
X123900548Y-102346000D01*
X125223000Y-102346000D01*
X125291121Y-102366002D01*
X125337614Y-102419658D01*
X125349000Y-102472000D01*
X125349000Y-103689884D01*
X125353475Y-103705123D01*
X125354865Y-103706328D01*
X125362548Y-103707999D01*
X125592095Y-103707999D01*
X125598614Y-103707662D01*
X125694206Y-103697743D01*
X125707600Y-103694851D01*
X125861784Y-103643412D01*
X125874962Y-103637239D01*
X126012807Y-103551937D01*
X126024208Y-103542901D01*
X126138739Y-103428171D01*
X126147751Y-103416760D01*
X126232816Y-103278757D01*
X126238963Y-103265576D01*
X126286660Y-103121775D01*
X126327091Y-103063416D01*
X126392655Y-103036179D01*
X126462537Y-103048713D01*
X126495348Y-103072348D01*
X126519694Y-103096694D01*
X126528534Y-103101198D01*
X126528535Y-103101199D01*
X126634849Y-103155368D01*
X126633103Y-103158795D01*
X126676029Y-103188136D01*
X126703676Y-103253528D01*
X126704500Y-103267912D01*
X126704500Y-103331509D01*
X126684498Y-103399630D01*
X126655203Y-103431472D01*
X126593114Y-103479114D01*
X126501669Y-103598289D01*
X126444184Y-103737070D01*
X126424577Y-103886000D01*
X126444184Y-104034930D01*
X126501669Y-104173711D01*
X126593114Y-104292886D01*
X126712288Y-104384331D01*
X126781679Y-104413073D01*
X126843440Y-104438656D01*
X126843443Y-104438657D01*
X126851070Y-104441816D01*
X127000000Y-104461423D01*
X127008188Y-104460345D01*
X127140742Y-104442894D01*
X127148930Y-104441816D01*
X127156557Y-104438657D01*
X127156560Y-104438656D01*
X127218321Y-104413074D01*
X127287712Y-104384331D01*
X127406886Y-104292886D01*
X127498331Y-104173711D01*
X127555816Y-104034930D01*
X127575423Y-103886000D01*
X127555816Y-103737070D01*
X127498331Y-103598289D01*
X127406886Y-103479114D01*
X127344796Y-103431471D01*
X127302929Y-103374133D01*
X127295500Y-103331508D01*
X127295500Y-103267912D01*
X127315502Y-103199791D01*
X127365647Y-103156341D01*
X127365151Y-103155368D01*
X127369079Y-103153367D01*
X127369080Y-103153366D01*
X127426715Y-103124000D01*
X127471465Y-103101199D01*
X127471466Y-103101198D01*
X127480306Y-103096694D01*
X127571694Y-103005306D01*
X127630368Y-102890151D01*
X127645500Y-102794612D01*
X127645500Y-102155388D01*
X127630368Y-102059849D01*
X127625866Y-102051013D01*
X127576199Y-101953535D01*
X127576198Y-101953534D01*
X127571694Y-101944694D01*
X127480306Y-101853306D01*
X127471466Y-101848802D01*
X127471465Y-101848801D01*
X127373987Y-101799134D01*
X127373986Y-101799134D01*
X127365151Y-101794632D01*
X127269612Y-101779500D01*
X126730388Y-101779500D01*
X126634849Y-101794632D01*
X126626014Y-101799134D01*
X126626013Y-101799134D01*
X126528535Y-101848801D01*
X126528534Y-101848802D01*
X126519694Y-101853306D01*
X126429125Y-101943875D01*
X126366813Y-101977901D01*
X126295998Y-101972836D01*
X126239162Y-101930289D01*
X126232886Y-101921084D01*
X126146934Y-101782190D01*
X126137901Y-101770792D01*
X126023171Y-101656261D01*
X126011760Y-101647249D01*
X125873757Y-101562184D01*
X125860574Y-101556036D01*
X125796268Y-101534707D01*
X125737908Y-101494277D01*
X125710671Y-101428713D01*
X125723204Y-101358831D01*
X125771529Y-101306819D01*
X125778731Y-101302848D01*
X125786410Y-101298935D01*
X125786412Y-101298934D01*
X125795245Y-101294433D01*
X125889433Y-101200245D01*
X125925043Y-101130357D01*
X125945404Y-101090396D01*
X125945404Y-101090395D01*
X125949905Y-101081562D01*
X125962540Y-101001789D01*
X125992951Y-100937637D01*
X126053219Y-100900110D01*
X126086988Y-100895500D01*
X126228500Y-100895500D01*
X126296621Y-100915502D01*
X126343114Y-100969158D01*
X126354500Y-101021500D01*
X126354500Y-101044612D01*
X126369632Y-101140151D01*
X126374134Y-101148986D01*
X126374134Y-101148987D01*
X126401585Y-101202862D01*
X126428306Y-101255306D01*
X126519694Y-101346694D01*
X126528534Y-101351198D01*
X126528535Y-101351199D01*
X126566414Y-101370499D01*
X126634849Y-101405368D01*
X126730388Y-101420500D01*
X127269612Y-101420500D01*
X127365151Y-101405368D01*
X127433586Y-101370499D01*
X127471465Y-101351199D01*
X127471466Y-101351198D01*
X127480306Y-101346694D01*
X127571694Y-101255306D01*
X127598416Y-101202862D01*
X127625866Y-101148987D01*
X127625866Y-101148986D01*
X127630368Y-101140151D01*
X127645500Y-101044612D01*
X127645500Y-100597966D01*
X135828257Y-100597966D01*
X135858565Y-100732446D01*
X135861645Y-100742275D01*
X135941770Y-100939603D01*
X135946413Y-100948794D01*
X136057694Y-101130388D01*
X136063777Y-101138699D01*
X136203213Y-101299667D01*
X136210580Y-101306883D01*
X136374434Y-101442916D01*
X136382881Y-101448831D01*
X136566756Y-101556279D01*
X136576043Y-101560729D01*
X136694049Y-101605791D01*
X136750552Y-101648779D01*
X136774845Y-101715490D01*
X136759215Y-101784744D01*
X136708624Y-101834555D01*
X136649101Y-101849501D01*
X136293210Y-101849501D01*
X136243474Y-101859393D01*
X136233158Y-101866286D01*
X136233156Y-101866287D01*
X136202026Y-101887088D01*
X136187077Y-101897077D01*
X136149393Y-101953474D01*
X136139500Y-102003209D01*
X136139501Y-103736790D01*
X136149393Y-103786526D01*
X136187077Y-103842923D01*
X136243474Y-103880607D01*
X136293209Y-103890500D01*
X137159859Y-103890500D01*
X138026790Y-103890499D01*
X138076526Y-103880607D01*
X138086842Y-103873714D01*
X138086844Y-103873713D01*
X138122610Y-103849814D01*
X138132923Y-103842923D01*
X138170607Y-103786526D01*
X138180500Y-103736791D01*
X138180499Y-102003210D01*
X138170607Y-101953474D01*
X138132923Y-101897077D01*
X138076526Y-101859393D01*
X138026791Y-101849500D01*
X137679719Y-101849500D01*
X137611598Y-101829498D01*
X137565105Y-101775842D01*
X137555001Y-101705568D01*
X137584495Y-101640988D01*
X137643513Y-101602814D01*
X137652250Y-101600193D01*
X137661842Y-101596433D01*
X137853095Y-101502739D01*
X137861945Y-101497464D01*
X138035328Y-101373792D01*
X138043200Y-101367139D01*
X138194052Y-101216812D01*
X138200730Y-101208965D01*
X138325003Y-101036020D01*
X138330313Y-101027183D01*
X138393531Y-100899271D01*
X146596668Y-100899271D01*
X146596755Y-100903273D01*
X146596755Y-100903280D01*
X146603235Y-101200245D01*
X146603349Y-101205465D01*
X146648883Y-101508330D01*
X146649979Y-101512190D01*
X146649980Y-101512195D01*
X146682112Y-101625368D01*
X146732531Y-101802953D01*
X146852937Y-102084560D01*
X147008149Y-102348585D01*
X147195651Y-102590747D01*
X147412404Y-102807122D01*
X147415585Y-102809576D01*
X147415586Y-102809577D01*
X147651701Y-102991739D01*
X147651705Y-102991742D01*
X147654894Y-102994202D01*
X147673858Y-103005306D01*
X147907511Y-103142115D01*
X147919189Y-103148953D01*
X147922874Y-103150521D01*
X147922878Y-103150523D01*
X147942319Y-103158795D01*
X148201006Y-103268867D01*
X148495775Y-103352001D01*
X148716338Y-103384768D01*
X148795419Y-103396516D01*
X148795421Y-103396516D01*
X148798718Y-103397006D01*
X148802049Y-103397146D01*
X148802053Y-103397146D01*
X148838737Y-103398683D01*
X148882084Y-103400500D01*
X149077474Y-103400500D01*
X149200915Y-103392626D01*
X149301639Y-103386201D01*
X149301644Y-103386200D01*
X149305647Y-103385945D01*
X149309584Y-103385183D01*
X149309586Y-103385183D01*
X149602401Y-103328530D01*
X149602405Y-103328529D01*
X149606338Y-103327768D01*
X149897200Y-103231856D01*
X150093603Y-103137966D01*
X159508257Y-103137966D01*
X159538565Y-103272446D01*
X159541645Y-103282275D01*
X159621770Y-103479603D01*
X159626413Y-103488794D01*
X159737694Y-103670388D01*
X159743777Y-103678699D01*
X159883213Y-103839667D01*
X159890580Y-103846883D01*
X160054434Y-103982916D01*
X160062881Y-103988831D01*
X160246756Y-104096279D01*
X160256042Y-104100729D01*
X160455001Y-104176703D01*
X160464899Y-104179579D01*
X160568250Y-104200606D01*
X160582299Y-104199410D01*
X160586000Y-104189065D01*
X160586000Y-104188517D01*
X161094000Y-104188517D01*
X161098064Y-104202359D01*
X161111478Y-104204393D01*
X161118184Y-104203534D01*
X161128262Y-104201392D01*
X161332255Y-104140191D01*
X161341842Y-104136433D01*
X161533095Y-104042739D01*
X161541945Y-104037464D01*
X161715328Y-103913792D01*
X161723200Y-103907139D01*
X161874052Y-103756812D01*
X161880730Y-103748965D01*
X162005003Y-103576020D01*
X162010313Y-103567183D01*
X162104670Y-103376267D01*
X162108469Y-103366672D01*
X162170377Y-103162910D01*
X162172555Y-103152837D01*
X162173986Y-103141962D01*
X162171775Y-103127778D01*
X162158617Y-103124000D01*
X161112115Y-103124000D01*
X161096876Y-103128475D01*
X161095671Y-103129865D01*
X161094000Y-103137548D01*
X161094000Y-104188517D01*
X160586000Y-104188517D01*
X160586000Y-103142115D01*
X160581525Y-103126876D01*
X160580135Y-103125671D01*
X160572452Y-103124000D01*
X159523225Y-103124000D01*
X159509694Y-103127973D01*
X159508257Y-103137966D01*
X150093603Y-103137966D01*
X150173518Y-103099763D01*
X150430812Y-102933631D01*
X150664910Y-102736152D01*
X150786050Y-102604183D01*
X159504389Y-102604183D01*
X159505912Y-102612607D01*
X159518292Y-102616000D01*
X162158344Y-102616000D01*
X162171875Y-102612027D01*
X162173180Y-102602947D01*
X162131214Y-102435875D01*
X162127894Y-102426124D01*
X162042972Y-102230814D01*
X162038105Y-102221739D01*
X161922426Y-102042926D01*
X161916136Y-102034757D01*
X161772806Y-101877240D01*
X161765273Y-101870215D01*
X161598139Y-101738222D01*
X161589552Y-101732517D01*
X161403117Y-101629599D01*
X161393705Y-101625368D01*
X161308716Y-101595272D01*
X161251179Y-101553677D01*
X161225264Y-101487580D01*
X161239198Y-101417964D01*
X161288557Y-101366933D01*
X161350775Y-101350499D01*
X161706790Y-101350499D01*
X161756526Y-101340607D01*
X161766842Y-101333714D01*
X161766844Y-101333713D01*
X161802610Y-101309814D01*
X161812923Y-101302923D01*
X161850607Y-101246526D01*
X161860500Y-101196791D01*
X161860500Y-100899271D01*
X184596668Y-100899271D01*
X184596755Y-100903273D01*
X184596755Y-100903280D01*
X184603235Y-101200245D01*
X184603349Y-101205465D01*
X184648883Y-101508330D01*
X184649979Y-101512190D01*
X184649980Y-101512195D01*
X184682112Y-101625368D01*
X184732531Y-101802953D01*
X184852937Y-102084560D01*
X185008149Y-102348585D01*
X185195651Y-102590747D01*
X185412404Y-102807122D01*
X185415585Y-102809576D01*
X185415586Y-102809577D01*
X185651701Y-102991739D01*
X185651705Y-102991742D01*
X185654894Y-102994202D01*
X185673858Y-103005306D01*
X185907511Y-103142115D01*
X185919189Y-103148953D01*
X185922874Y-103150521D01*
X185922878Y-103150523D01*
X185942319Y-103158795D01*
X186201006Y-103268867D01*
X186495775Y-103352001D01*
X186716338Y-103384768D01*
X186795419Y-103396516D01*
X186795421Y-103396516D01*
X186798718Y-103397006D01*
X186802049Y-103397146D01*
X186802053Y-103397146D01*
X186838737Y-103398683D01*
X186882084Y-103400500D01*
X187077474Y-103400500D01*
X187200915Y-103392626D01*
X187301639Y-103386201D01*
X187301644Y-103386200D01*
X187305647Y-103385945D01*
X187309584Y-103385183D01*
X187309586Y-103385183D01*
X187602401Y-103328530D01*
X187602405Y-103328529D01*
X187606338Y-103327768D01*
X187897200Y-103231856D01*
X188173518Y-103099763D01*
X188430812Y-102933631D01*
X188664910Y-102736152D01*
X188872019Y-102510529D01*
X189048780Y-102260418D01*
X189192328Y-101989874D01*
X189198749Y-101972836D01*
X189298919Y-101707044D01*
X189298921Y-101707038D01*
X189300336Y-101703283D01*
X189323472Y-101605791D01*
X189370124Y-101409207D01*
X189370125Y-101409202D01*
X189371053Y-101405291D01*
X189403332Y-101100729D01*
X189402701Y-101071770D01*
X189396739Y-100798552D01*
X189396739Y-100798547D01*
X189396651Y-100794535D01*
X189351117Y-100491670D01*
X189328027Y-100410341D01*
X189299495Y-100309849D01*
X189267469Y-100197047D01*
X189147063Y-99915440D01*
X188991851Y-99651415D01*
X188804349Y-99409253D01*
X188587596Y-99192878D01*
X188584414Y-99190423D01*
X188348299Y-99008261D01*
X188348295Y-99008258D01*
X188345106Y-99005798D01*
X188168538Y-98902413D01*
X188084275Y-98853075D01*
X188084272Y-98853073D01*
X188080811Y-98851047D01*
X188077126Y-98849479D01*
X188077122Y-98849477D01*
X187890051Y-98769878D01*
X187798994Y-98731133D01*
X187504225Y-98647999D01*
X187274014Y-98613799D01*
X187204581Y-98603484D01*
X187204579Y-98603484D01*
X187201282Y-98602994D01*
X187197951Y-98602854D01*
X187197947Y-98602854D01*
X187161263Y-98601317D01*
X187117916Y-98599500D01*
X186922526Y-98599500D01*
X186799085Y-98607374D01*
X186698361Y-98613799D01*
X186698356Y-98613800D01*
X186694353Y-98614055D01*
X186690416Y-98614817D01*
X186690414Y-98614817D01*
X186397599Y-98671470D01*
X186397595Y-98671471D01*
X186393662Y-98672232D01*
X186102800Y-98768144D01*
X185826482Y-98900237D01*
X185569188Y-99066369D01*
X185566123Y-99068954D01*
X185566121Y-99068956D01*
X185557523Y-99076209D01*
X185335090Y-99263848D01*
X185127981Y-99489471D01*
X184951220Y-99739582D01*
X184807672Y-100010126D01*
X184806257Y-100013882D01*
X184806256Y-100013883D01*
X184727877Y-100221857D01*
X184699664Y-100296717D01*
X184698735Y-100300632D01*
X184630546Y-100587973D01*
X184628947Y-100594709D01*
X184596668Y-100899271D01*
X161860500Y-100899271D01*
X161860499Y-99463210D01*
X161850607Y-99413474D01*
X161812923Y-99357077D01*
X161756526Y-99319393D01*
X161706791Y-99309500D01*
X160840141Y-99309500D01*
X159973210Y-99309501D01*
X159923474Y-99319393D01*
X159913158Y-99326286D01*
X159913156Y-99326287D01*
X159882026Y-99347088D01*
X159867077Y-99357077D01*
X159829393Y-99413474D01*
X159819500Y-99463209D01*
X159819501Y-101196790D01*
X159829393Y-101246526D01*
X159867077Y-101302923D01*
X159923474Y-101340607D01*
X159973209Y-101350500D01*
X160326513Y-101350500D01*
X160394634Y-101370502D01*
X160441127Y-101424158D01*
X160451231Y-101494432D01*
X160421737Y-101559012D01*
X160365657Y-101596265D01*
X160316871Y-101612210D01*
X160307359Y-101616209D01*
X160118463Y-101714542D01*
X160109738Y-101720036D01*
X159939433Y-101847905D01*
X159931726Y-101854748D01*
X159784590Y-102008717D01*
X159778104Y-102016727D01*
X159658098Y-102192649D01*
X159653000Y-102201623D01*
X159563338Y-102394783D01*
X159559775Y-102404470D01*
X159504389Y-102604183D01*
X150786050Y-102604183D01*
X150872019Y-102510529D01*
X151048780Y-102260418D01*
X151192328Y-101989874D01*
X151198749Y-101972836D01*
X151298919Y-101707044D01*
X151298921Y-101707038D01*
X151300336Y-101703283D01*
X151323472Y-101605791D01*
X151370124Y-101409207D01*
X151370125Y-101409202D01*
X151371053Y-101405291D01*
X151403332Y-101100729D01*
X151402701Y-101071770D01*
X151396739Y-100798552D01*
X151396739Y-100798547D01*
X151396651Y-100794535D01*
X151351117Y-100491670D01*
X151328027Y-100410341D01*
X151299495Y-100309849D01*
X151267469Y-100197047D01*
X151147063Y-99915440D01*
X150991851Y-99651415D01*
X150804349Y-99409253D01*
X150587596Y-99192878D01*
X150584414Y-99190423D01*
X150348299Y-99008261D01*
X150348295Y-99008258D01*
X150345106Y-99005798D01*
X150168538Y-98902413D01*
X150084275Y-98853075D01*
X150084272Y-98853073D01*
X150080811Y-98851047D01*
X150077126Y-98849479D01*
X150077122Y-98849477D01*
X149890051Y-98769878D01*
X149798994Y-98731133D01*
X149504225Y-98647999D01*
X149274014Y-98613799D01*
X149204581Y-98603484D01*
X149204579Y-98603484D01*
X149201282Y-98602994D01*
X149197951Y-98602854D01*
X149197947Y-98602854D01*
X149161263Y-98601317D01*
X149117916Y-98599500D01*
X148922526Y-98599500D01*
X148799085Y-98607374D01*
X148698361Y-98613799D01*
X148698356Y-98613800D01*
X148694353Y-98614055D01*
X148690416Y-98614817D01*
X148690414Y-98614817D01*
X148397599Y-98671470D01*
X148397595Y-98671471D01*
X148393662Y-98672232D01*
X148102800Y-98768144D01*
X147826482Y-98900237D01*
X147569188Y-99066369D01*
X147566123Y-99068954D01*
X147566121Y-99068956D01*
X147557523Y-99076209D01*
X147335090Y-99263848D01*
X147127981Y-99489471D01*
X146951220Y-99739582D01*
X146807672Y-100010126D01*
X146806257Y-100013882D01*
X146806256Y-100013883D01*
X146727877Y-100221857D01*
X146699664Y-100296717D01*
X146698735Y-100300632D01*
X146630546Y-100587973D01*
X146628947Y-100594709D01*
X146596668Y-100899271D01*
X138393531Y-100899271D01*
X138424670Y-100836267D01*
X138428469Y-100826672D01*
X138490377Y-100622910D01*
X138492555Y-100612837D01*
X138493986Y-100601962D01*
X138491775Y-100587778D01*
X138478617Y-100584000D01*
X135843225Y-100584000D01*
X135829694Y-100587973D01*
X135828257Y-100597966D01*
X127645500Y-100597966D01*
X127645500Y-100405388D01*
X127630368Y-100309849D01*
X127585534Y-100221857D01*
X127576199Y-100203535D01*
X127576198Y-100203534D01*
X127571694Y-100194694D01*
X127480306Y-100103306D01*
X127471466Y-100098802D01*
X127471465Y-100098801D01*
X127403523Y-100064183D01*
X135824389Y-100064183D01*
X135825912Y-100072607D01*
X135838292Y-100076000D01*
X136887885Y-100076000D01*
X136903124Y-100071525D01*
X136904329Y-100070135D01*
X136906000Y-100062452D01*
X136906000Y-100057885D01*
X137414000Y-100057885D01*
X137418475Y-100073124D01*
X137419865Y-100074329D01*
X137427548Y-100076000D01*
X138478344Y-100076000D01*
X138491875Y-100072027D01*
X138493180Y-100062947D01*
X138451214Y-99895875D01*
X138447894Y-99886124D01*
X138362972Y-99690814D01*
X138358105Y-99681739D01*
X138242426Y-99502926D01*
X138236136Y-99494757D01*
X138092806Y-99337240D01*
X138085273Y-99330215D01*
X137918139Y-99198222D01*
X137909552Y-99192517D01*
X137723117Y-99089599D01*
X137713705Y-99085369D01*
X137512959Y-99014280D01*
X137502988Y-99011646D01*
X137431837Y-98998972D01*
X137418540Y-99000432D01*
X137414000Y-99014989D01*
X137414000Y-100057885D01*
X136906000Y-100057885D01*
X136906000Y-99013102D01*
X136902082Y-98999758D01*
X136887806Y-98997771D01*
X136849324Y-99003660D01*
X136839288Y-99006051D01*
X136636868Y-99072212D01*
X136627359Y-99076209D01*
X136438463Y-99174542D01*
X136429738Y-99180036D01*
X136259433Y-99307905D01*
X136251726Y-99314748D01*
X136104590Y-99468717D01*
X136098104Y-99476727D01*
X135978098Y-99652649D01*
X135973000Y-99661623D01*
X135883338Y-99854783D01*
X135879775Y-99864470D01*
X135824389Y-100064183D01*
X127403523Y-100064183D01*
X127373987Y-100049134D01*
X127373986Y-100049134D01*
X127365151Y-100044632D01*
X127269612Y-100029500D01*
X126730388Y-100029500D01*
X126634849Y-100044632D01*
X126626014Y-100049134D01*
X126626013Y-100049134D01*
X126528535Y-100098801D01*
X126528534Y-100098802D01*
X126519694Y-100103306D01*
X126428306Y-100194694D01*
X126416990Y-100216904D01*
X126407411Y-100235703D01*
X126358663Y-100287318D01*
X126295144Y-100304500D01*
X126086987Y-100304500D01*
X126018866Y-100284498D01*
X125972373Y-100230842D01*
X125962538Y-100198208D01*
X125951457Y-100128236D01*
X125951456Y-100128234D01*
X125949905Y-100118438D01*
X125939900Y-100098801D01*
X125904589Y-100029500D01*
X125889433Y-99999755D01*
X125795245Y-99905567D01*
X125676562Y-99845095D01*
X125578097Y-99829500D01*
X125095049Y-99829500D01*
X124611904Y-99829501D01*
X124607011Y-99830276D01*
X124607010Y-99830276D01*
X124523235Y-99843543D01*
X124523232Y-99843544D01*
X124513438Y-99845095D01*
X124394755Y-99905567D01*
X124300567Y-99999755D01*
X124285411Y-100029500D01*
X124250101Y-100098801D01*
X124240095Y-100118438D01*
X124224500Y-100216903D01*
X124224501Y-100983096D01*
X124225276Y-100987989D01*
X124225276Y-100987990D01*
X124235018Y-101049502D01*
X124240095Y-101081562D01*
X124244598Y-101090399D01*
X124244598Y-101090400D01*
X124264957Y-101130357D01*
X124300567Y-101200245D01*
X124394755Y-101294433D01*
X124403586Y-101298933D01*
X124403588Y-101298934D01*
X124411297Y-101302862D01*
X124462911Y-101351612D01*
X124479976Y-101420527D01*
X124457074Y-101487728D01*
X124401475Y-101531879D01*
X124393967Y-101534652D01*
X124328218Y-101556587D01*
X124315038Y-101562761D01*
X124177193Y-101648063D01*
X124165792Y-101657099D01*
X124051261Y-101771829D01*
X124042249Y-101783240D01*
X123957184Y-101921243D01*
X123951037Y-101934424D01*
X123899862Y-102088710D01*
X123896995Y-102102086D01*
X123887328Y-102196438D01*
X123887000Y-102202855D01*
X123887000Y-102327885D01*
X116001099Y-102327885D01*
X116048780Y-102260418D01*
X116192328Y-101989874D01*
X116198749Y-101972836D01*
X116298919Y-101707044D01*
X116298921Y-101707038D01*
X116300336Y-101703283D01*
X116323472Y-101605791D01*
X116370124Y-101409207D01*
X116370125Y-101409202D01*
X116371053Y-101405291D01*
X116403332Y-101100729D01*
X116402701Y-101071770D01*
X116396739Y-100798552D01*
X116396739Y-100798547D01*
X116396651Y-100794535D01*
X116351117Y-100491670D01*
X116328027Y-100410341D01*
X116299495Y-100309849D01*
X116267469Y-100197047D01*
X116147063Y-99915440D01*
X115991851Y-99651415D01*
X115804349Y-99409253D01*
X115587596Y-99192878D01*
X115584414Y-99190423D01*
X115348299Y-99008261D01*
X115348295Y-99008258D01*
X115345106Y-99005798D01*
X115168538Y-98902413D01*
X115084275Y-98853075D01*
X115084272Y-98853073D01*
X115080811Y-98851047D01*
X115077126Y-98849479D01*
X115077122Y-98849477D01*
X114890051Y-98769878D01*
X114798994Y-98731133D01*
X114504225Y-98647999D01*
X114274014Y-98613799D01*
X114204581Y-98603484D01*
X114204579Y-98603484D01*
X114201282Y-98602994D01*
X114197951Y-98602854D01*
X114197947Y-98602854D01*
X114161263Y-98601317D01*
X114117916Y-98599500D01*
X113922526Y-98599500D01*
X113799085Y-98607374D01*
X113698361Y-98613799D01*
X113698356Y-98613800D01*
X113694353Y-98614055D01*
X113690416Y-98614817D01*
X113690414Y-98614817D01*
X113397599Y-98671470D01*
X113397595Y-98671471D01*
X113393662Y-98672232D01*
X113102800Y-98768144D01*
X112826482Y-98900237D01*
X112569188Y-99066369D01*
X112566123Y-99068954D01*
X112566121Y-99068956D01*
X112557523Y-99076209D01*
X112335090Y-99263848D01*
X112127981Y-99489471D01*
X111951220Y-99739582D01*
X111807672Y-100010126D01*
X111806257Y-100013882D01*
X111806256Y-100013883D01*
X111727877Y-100221857D01*
X111699664Y-100296717D01*
X111698735Y-100300632D01*
X111630546Y-100587973D01*
X111628947Y-100594709D01*
X111596668Y-100899271D01*
X109170500Y-100899271D01*
X109170500Y-96296500D01*
X109190502Y-96228379D01*
X109244158Y-96181886D01*
X109296500Y-96170500D01*
X191703500Y-96170500D01*
X191771621Y-96190502D01*
G37*
%TD.AperFunction*%
%TD*%
M02*
